HelveticaNeueLight.ufo
<glyph name="exclam" format="2">
  <advance width="241"/>
  <unicode hex="0021"/>
  <outline>
    <contour>
      <point x="102" y="178" type="line"/>
      <point x="87" y="501" type="line"/>
      <point x="87" y="714" type="line"/>
      <point x="155" y="714" type="line"/>
      <point x="155" y="501" type="line"/>
      <point x="140" y="178" type="line"/>
    </contour>
    <contour>
      <point x="163" y="0" type="line"/>
      <point x="79" y="0" type="line"/>
      <point x="79" y="106" type="line"/>
      <point x="163" y="106" type="line"/>
    </contour>
  </outline>
</glyph>
<glyph name="quotedbl" format="2">
  <advance width="370"/>
  <unicode hex="0022"/>
  <outline>
    <contour>
      <point x="87" y="471" type="line"/>
      <point x="87" y="714" type="line"/>
      <point x="150" y="714" type="line"/>
      <point x="150" y="471" type="line"/>
    </contour>
    <contour>
      <point x="220" y="471" type="line"/>
      <point x="220" y="714" type="line"/>
      <point x="283" y="714" type="line"/>
      <point x="283" y="471" type="line"/>
    </contour>
  </outline>
</glyph>
<glyph name="numbersign" format="2">
  <advance width="556"/>
  <unicode hex="0023"/>
  <outline>
    <contour>
      <point x="497" y="268" type="line"/>
      <point x="497" y="223" type="line"/>
      <point x="386" y="223" type="line"/>
      <point x="355" y="0" type="line"/>
      <point x="305" y="0" type="line"/>
      <point x="336" y="223" type="line"/>
      <point x="195" y="223" type="line"/>
      <point x="164" y="0" type="line"/>
      <point x="114" y="0" type="line"/>
      <point x="145" y="223" type="line"/>
      <point x="35" y="223" type="line"/>
      <point x="35" y="268" type="line"/>
      <point x="151" y="268" type="line"/>
      <point x="173" y="424" type="line"/>
      <point x="63" y="424" type="line"/>
      <point x="63" y="469" type="line"/>
      <point x="179" y="469" type="line"/>
      <point x="210" y="691" type="line"/>
      <point x="260" y="691" type="line"/>
      <point x="229" y="469" type="line"/>
      <point x="370" y="469" type="line"/>
      <point x="401" y="691" type="line"/>
      <point x="451" y="691" type="line"/>
      <point x="420" y="469" type="line"/>
      <point x="525" y="469" type="line"/>
      <point x="525" y="424" type="line"/>
      <point x="414" y="424" type="line"/>
      <point x="392" y="268" type="line"/>
    </contour>
    <contour>
      <point x="364" y="424" type="line"/>
      <point x="223" y="424" type="line"/>
      <point x="201" y="268" type="line"/>
      <point x="342" y="268" type="line"/>
    </contour>
  </outline>
</glyph>
<glyph name="dollar" format="2">
  <advance width="556"/>
  <unicode hex="0024"/>
  <outline>
    <contour>
      <point x="296" y="326" type="qcurve"/>
      <point x="296" y="38" type="line"/>
      <point x="366" y="38"/>
      <point x="412" y="72" type="qcurve" smooth="yes"/>
      <point x="464" y="111"/>
      <point x="464" y="184" type="qcurve" smooth="yes"/>
      <point x="464" y="247"/>
      <point x="409" y="284" type="qcurve" smooth="yes"/>
      <point x="373" y="307"/>
    </contour>
    <contour>
      <point x="257" y="397" type="qcurve"/>
      <point x="257" y="676" type="line"/>
      <point x="192" y="676"/>
      <point x="154" y="641" type="qcurve" smooth="yes"/>
      <point x="110" y="602"/>
      <point x="110" y="527" type="qcurve" smooth="yes"/>
      <point x="110" y="465"/>
      <point x="155" y="434" type="qcurve" smooth="yes"/>
      <point x="184" y="415"/>
    </contour>
    <contour>
      <point x="29" y="228" type="qcurve"/>
      <point x="92" y="228" type="line"/>
      <point x="93" y="57"/>
      <point x="257" y="38" type="qcurve"/>
      <point x="257" y="334" type="line"/>
      <point x="154" y="357"/>
      <point x="110" y="391" type="qcurve" smooth="yes"/>
      <point x="47" y="439"/>
      <point x="47" y="534" type="qcurve" smooth="yes"/>
      <point x="47" y="622"/>
      <point x="109" y="677" type="qcurve" smooth="yes"/>
      <point x="168" y="729"/>
      <point x="257" y="729" type="qcurve"/>
      <point x="257" y="807" type="line"/>
      <point x="296" y="807" type="line"/>
      <point x="296" y="729" type="line"/>
      <point x="386" y="729"/>
      <point x="447" y="670" type="qcurve" smooth="yes"/>
      <point x="510" y="608"/>
      <point x="508" y="512" type="qcurve"/>
      <point x="445" y="512" type="line"/>
      <point x="444" y="586"/>
      <point x="362" y="676"/>
      <point x="296" y="676" type="qcurve"/>
      <point x="296" y="388" type="line"/>
      <point x="403" y="365"/>
      <point x="454" y="330" type="qcurve" smooth="yes"/>
      <point x="527" y="279"/>
      <point x="527" y="185" type="qcurve" smooth="yes"/>
      <point x="527" y="92"/>
      <point x="455" y="36" type="qcurve" smooth="yes"/>
      <point x="390" y="-16"/>
      <point x="296" y="-15" type="qcurve"/>
      <point x="296" y="-100" type="line"/>
      <point x="257" y="-100" type="line"/>
      <point x="257" y="-14" type="line"/>
      <point x="141" y="-3"/>
      <point x="34" y="113"/>
    </contour>
  </outline>
</glyph>
<glyph name="percent" format="2">
  <advance width="889"/>
  <unicode hex="0025"/>
  <outline>
    <contour>
      <point x="228" y="661" type="qcurve" smooth="yes"/>
      <point x="171" y="661"/>
      <point x="144" y="613" type="qcurve" smooth="yes"/>
      <point x="122" y="575"/>
      <point x="122" y="516" type="qcurve" smooth="yes"/>
      <point x="122" y="458"/>
      <point x="144" y="421" type="qcurve" smooth="yes"/>
      <point x="171" y="373"/>
      <point x="228" y="373" type="qcurve" smooth="yes"/>
      <point x="285" y="373"/>
      <point x="313" y="421" type="qcurve" smooth="yes"/>
      <point x="334" y="458"/>
      <point x="334" y="516" type="qcurve" smooth="yes"/>
      <point x="334" y="575"/>
      <point x="313" y="613" type="qcurve" smooth="yes"/>
      <point x="285" y="661"/>
    </contour>
    <contour>
      <point x="190" y="-34" type="line"/>
      <point x="643" y="725" type="line"/>
      <point x="690" y="725" type="line"/>
      <point x="238" y="-34" type="line"/>
    </contour>
    <contour>
      <point x="667" y="363" type="qcurve" smooth="yes"/>
      <point x="748" y="363"/>
      <point x="789" y="309" type="qcurve" smooth="yes"/>
      <point x="826" y="260"/>
      <point x="826" y="174" type="qcurve" smooth="yes"/>
      <point x="826" y="88"/>
      <point x="789" y="39" type="qcurve" smooth="yes"/>
      <point x="748" y="-15"/>
      <point x="667" y="-15" type="qcurve" smooth="yes"/>
      <point x="586" y="-15"/>
      <point x="545" y="39" type="qcurve" smooth="yes"/>
      <point x="508" y="88"/>
      <point x="508" y="174" type="qcurve" smooth="yes"/>
      <point x="508" y="260"/>
      <point x="545" y="309" type="qcurve" smooth="yes"/>
      <point x="586" y="363"/>
    </contour>
    <contour>
      <point x="667" y="318" type="qcurve" smooth="yes"/>
      <point x="610" y="318"/>
      <point x="583" y="270" type="qcurve" smooth="yes"/>
      <point x="561" y="232"/>
      <point x="561" y="173" type="qcurve" smooth="yes"/>
      <point x="561" y="115"/>
      <point x="583" y="78" type="qcurve" smooth="yes"/>
      <point x="610" y="30"/>
      <point x="667" y="30" type="qcurve" smooth="yes"/>
      <point x="724" y="30"/>
      <point x="752" y="78" type="qcurve" smooth="yes"/>
      <point x="773" y="115"/>
      <point x="773" y="173" type="qcurve" smooth="yes"/>
      <point x="773" y="232"/>
      <point x="752" y="270" type="qcurve" smooth="yes"/>
      <point x="724" y="318"/>
    </contour>
    <contour>
      <point x="228" y="706" type="qcurve" smooth="yes"/>
      <point x="309" y="706"/>
      <point x="350" y="652" type="qcurve" smooth="yes"/>
      <point x="387" y="603"/>
      <point x="387" y="517" type="qcurve" smooth="yes"/>
      <point x="387" y="431"/>
      <point x="350" y="382" type="qcurve" smooth="yes"/>
      <point x="309" y="328"/>
      <point x="228" y="328" type="qcurve" smooth="yes"/>
      <point x="147" y="328"/>
      <point x="106" y="382" type="qcurve" smooth="yes"/>
      <point x="69" y="431"/>
      <point x="69" y="517" type="qcurve" smooth="yes"/>
      <point x="69" y="603"/>
      <point x="106" y="652" type="qcurve" smooth="yes"/>
      <point x="147" y="706"/>
    </contour>
  </outline>
</glyph>
<glyph name="ampersand" format="2">
  <advance width="611"/>
  <unicode hex="0026"/>
  <outline>
    <contour>
      <point x="426" y="140" type="qcurve"/>
      <point x="248" y="356" type="line"/>
      <point x="102" y="277"/>
      <point x="102" y="179" type="qcurve" smooth="yes"/>
      <point x="102" y="118"/>
      <point x="194" y="38"/>
      <point x="257" y="38" type="qcurve" smooth="yes"/>
      <point x="354" y="38"/>
    </contour>
    <contour>
      <point x="541" y="0" type="line"/>
      <point x="465" y="93" type="line"/>
      <point x="379" y="-15"/>
      <point x="255" y="-15" type="qcurve" smooth="yes"/>
      <point x="160" y="-15"/>
      <point x="101" y="37" type="qcurve" smooth="yes"/>
      <point x="39" y="91"/>
      <point x="39" y="185" type="qcurve" smooth="yes"/>
      <point x="39" y="303"/>
      <point x="214" y="397" type="qcurve"/>
      <point x="163" y="463"/>
      <point x="155" y="476" type="qcurve" smooth="yes"/>
      <point x="126" y="524"/>
      <point x="126" y="569" type="qcurve" smooth="yes"/>
      <point x="126" y="633"/>
      <point x="217" y="714"/>
      <point x="284" y="714" type="qcurve" smooth="yes"/>
      <point x="351" y="714"/>
      <point x="442" y="633"/>
      <point x="442" y="569" type="qcurve" smooth="yes"/>
      <point x="442" y="509"/>
      <point x="399" y="460" type="qcurve" smooth="yes"/>
      <point x="369" y="426"/>
      <point x="302" y="384" type="qcurve"/>
      <point x="458" y="196" type="line"/>
      <point x="479" y="239"/>
      <point x="479" y="316" type="qcurve"/>
      <point x="542" y="316" type="line"/>
      <point x="542" y="223"/>
      <point x="500" y="145" type="qcurve"/>
      <point x="620" y="0" type="line"/>
    </contour>
    <contour>
      <point x="284" y="661" type="qcurve" smooth="yes"/>
      <point x="243" y="661"/>
      <point x="189" y="612"/>
      <point x="189" y="569" type="qcurve" smooth="yes"/>
      <point x="189" y="523"/>
      <point x="269" y="425" type="qcurve"/>
      <point x="379" y="493"/>
      <point x="379" y="569" type="qcurve" smooth="yes"/>
      <point x="379" y="612"/>
      <point x="325" y="661"/>
    </contour>
  </outline>
</glyph>
<glyph name="quotesingle" format="2">
  <advance width="278"/>
  <unicode hex="0027"/>
  <outline>
    <contour>
      <point x="108" y="471" type="line"/>
      <point x="108" y="714" type="line"/>
      <point x="171" y="714" type="line"/>
      <point x="171" y="471" type="line"/>
    </contour>
  </outline>
</glyph>
<glyph name="parenleft" format="2">
  <advance width="241"/>
  <unicode hex="0028"/>
  <outline>
    <contour>
      <point x="242" y="-191" type="qcurve"/>
      <point x="192" y="-191" type="line"/>
      <point x="51" y="42"/>
      <point x="51" y="266" type="qcurve" smooth="yes"/>
      <point x="51" y="510"/>
      <point x="192" y="729" type="qcurve"/>
      <point x="242" y="729" type="line"/>
      <point x="114" y="525"/>
      <point x="114" y="243" type="qcurve" smooth="yes"/>
      <point x="114" y="136"/>
      <point x="150" y="18" type="qcurve" smooth="yes"/>
      <point x="184" y="-96"/>
    </contour>
  </outline>
</glyph>
<glyph name="parenright" format="2">
  <advance width="241"/>
  <unicode hex="0029"/>
  <outline>
    <contour>
      <point x="-1" y="729" type="qcurve"/>
      <point x="49" y="729" type="line"/>
      <point x="190" y="496"/>
      <point x="190" y="272" type="qcurve" smooth="yes"/>
      <point x="190" y="28"/>
      <point x="49" y="-191" type="qcurve"/>
      <point x="-1" y="-191" type="line"/>
      <point x="127" y="13"/>
      <point x="127" y="295" type="qcurve" smooth="yes"/>
      <point x="127" y="402"/>
      <point x="92" y="520" type="qcurve" smooth="yes"/>
      <point x="57" y="634"/>
    </contour>
  </outline>
</glyph>
<glyph name="asterisk" format="2">
  <advance width="352"/>
  <unicode hex="002A"/>
  <outline>
    <contour>
      <point x="142" y="556" type="line"/>
      <point x="27" y="595" type="line"/>
      <point x="41" y="632" type="line"/>
      <point x="156" y="591" type="line"/>
      <point x="156" y="714" type="line"/>
      <point x="195" y="714" type="line"/>
      <point x="195" y="591" type="line"/>
      <point x="310" y="632" type="line"/>
      <point x="325" y="595" type="line"/>
      <point x="207" y="556" type="line"/>
      <point x="279" y="458" type="line"/>
      <point x="247" y="435" type="line"/>
      <point x="174" y="535" type="line"/>
      <point x="101" y="435" type="line"/>
      <point x="69" y="458" type="line"/>
    </contour>
  </outline>
</glyph>
<glyph name="plus" format="2">
  <advance width="600"/>
  <unicode hex="002B"/>
  <outline>
    <contour>
      <point x="274" y="278" type="line"/>
      <point x="274" y="503" type="line"/>
      <point x="327" y="503" type="line"/>
      <point x="327" y="278" type="line"/>
      <point x="552" y="278" type="line"/>
      <point x="552" y="225" type="line"/>
      <point x="327" y="225" type="line"/>
      <point x="327" y="0" type="line"/>
      <point x="274" y="0" type="line"/>
      <point x="274" y="225" type="line"/>
      <point x="49" y="225" type="line"/>
      <point x="49" y="278" type="line"/>
    </contour>
  </outline>
</glyph>
<glyph name="comma" format="2">
  <advance width="278"/>
  <unicode hex="002C"/>
  <outline>
    <contour>
      <point x="97" y="106" type="line"/>
      <point x="181" y="106" type="line"/>
      <point x="181" y="-1" type="line" smooth="yes"/>
      <point x="181" y="-48"/>
      <point x="160" y="-84" type="qcurve" smooth="yes"/>
      <point x="136" y="-125"/>
      <point x="93" y="-137" type="qcurve"/>
      <point x="93" y="-94" type="line"/>
      <point x="116" y="-86"/>
      <point x="129" y="-55" type="qcurve" smooth="yes"/>
      <point x="141" y="-28"/>
      <point x="139" y="0" type="qcurve"/>
      <point x="97" y="0" type="line"/>
    </contour>
  </outline>
</glyph>
<glyph name="hyphen" format="2">
  <advance width="370"/>
  <unicode hex="002D"/>
  <unicode hex="2010"/>
  <outline>
    <contour>
      <point x="310" y="246" type="line"/>
      <point x="60" y="246" type="line"/>
      <point x="60" y="304" type="line"/>
      <point x="310" y="304" type="line"/>
    </contour>
  </outline>
</glyph>
<glyph name="period" format="2">
  <advance width="278"/>
  <unicode hex="002E"/>
  <outline>
    <contour>
      <point x="181" y="0" type="line"/>
      <point x="97" y="0" type="line"/>
      <point x="97" y="106" type="line"/>
      <point x="181" y="106" type="line"/>
    </contour>
  </outline>
</glyph>
<glyph name="slash" format="2">
  <advance width="333"/>
  <unicode hex="002F"/>
  <outline>
    <contour>
      <point x="41" y="-15" type="line"/>
      <point x="-13" y="-15" type="line"/>
      <point x="295" y="729" type="line"/>
      <point x="346" y="729" type="line"/>
    </contour>
  </outline>
</glyph>
<glyph name="zero" format="2">
  <advance width="556"/>
  <unicode hex="0030"/>
  <outline>
    <contour>
      <point x="278" y="653" type="qcurve" smooth="yes"/>
      <point x="97" y="653"/>
      <point x="97" y="346" type="qcurve" smooth="yes"/>
      <point x="97" y="38"/>
      <point x="278" y="38" type="qcurve" smooth="yes"/>
      <point x="459" y="38"/>
      <point x="459" y="346" type="qcurve" smooth="yes"/>
      <point x="459" y="653"/>
    </contour>
    <contour>
      <point x="278" y="706" type="qcurve" smooth="yes"/>
      <point x="522" y="706"/>
      <point x="522" y="346" type="qcurve" smooth="yes"/>
      <point x="522" y="-15"/>
      <point x="278" y="-15" type="qcurve" smooth="yes"/>
      <point x="34" y="-15"/>
      <point x="34" y="345" type="qcurve" smooth="yes"/>
      <point x="34" y="706"/>
    </contour>
  </outline>
</glyph>
<glyph name="one" format="2">
  <advance width="556"/>
  <unicode hex="0031"/>
  <outline>
    <contour>
      <point x="97" y="520" type="line"/>
      <point x="97" y="565" type="line"/>
      <point x="197" y="569"/>
      <point x="230" y="586" type="qcurve" smooth="yes"/>
      <point x="281" y="612"/>
      <point x="294" y="700" type="qcurve"/>
      <point x="345" y="700" type="line"/>
      <point x="345" y="0" type="line"/>
      <point x="282" y="0" type="line"/>
      <point x="282" y="520" type="line"/>
    </contour>
  </outline>
</glyph>
<glyph name="two" format="2">
  <advance width="556"/>
  <unicode hex="0032"/>
  <outline>
    <contour>
      <point x="497" y="58" type="line"/>
      <point x="497" y="0" type="line"/>
      <point x="36" y="0" type="line"/>
      <point x="38" y="93"/>
      <point x="99" y="164" type="qcurve" smooth="yes"/>
      <point x="138" y="209"/>
      <point x="234" y="273" type="qcurve" smooth="yes"/>
      <point x="337" y="342"/>
      <point x="373" y="378" type="qcurve" smooth="yes"/>
      <point x="431" y="436"/>
      <point x="431" y="510" type="qcurve" smooth="yes"/>
      <point x="431" y="576"/>
      <point x="384" y="616" type="qcurve" smooth="yes"/>
      <point x="340" y="653"/>
      <point x="274" y="653" type="qcurve" smooth="yes"/>
      <point x="193" y="653"/>
      <point x="151" y="594" type="qcurve" smooth="yes"/>
      <point x="114" y="542"/>
      <point x="116" y="458" type="qcurve"/>
      <point x="53" y="458" type="line"/>
      <point x="51" y="570"/>
      <point x="107" y="636" type="qcurve" smooth="yes"/>
      <point x="166" y="706"/>
      <point x="277" y="706" type="qcurve" smooth="yes"/>
      <point x="372" y="706"/>
      <point x="431" y="656" type="qcurve" smooth="yes"/>
      <point x="494" y="603"/>
      <point x="494" y="509" type="qcurve" smooth="yes"/>
      <point x="494" y="429"/>
      <point x="440" y="363" type="qcurve" smooth="yes"/>
      <point x="400" y="314"/>
      <point x="318" y="260" type="qcurve" smooth="yes"/>
      <point x="198" y="181"/>
      <point x="194" y="177" type="qcurve" smooth="yes"/>
      <point x="119" y="118"/>
      <point x="108" y="58" type="qcurve"/>
    </contour>
  </outline>
</glyph>
<glyph name="three" format="2">
  <advance width="556"/>
  <unicode hex="0033"/>
  <outline>
    <contour>
      <point x="33" y="223" type="qcurve"/>
      <point x="96" y="223" type="line"/>
      <point x="93" y="139"/>
      <point x="187" y="38"/>
      <point x="271" y="38" type="qcurve" smooth="yes"/>
      <point x="344" y="38"/>
      <point x="395" y="78" type="qcurve" smooth="yes"/>
      <point x="450" y="121"/>
      <point x="450" y="193" type="qcurve" smooth="yes"/>
      <point x="450" y="264"/>
      <point x="401" y="304" type="qcurve" smooth="yes"/>
      <point x="355" y="341"/>
      <point x="282" y="341" type="qcurve" smooth="yes"/>
      <point x="229" y="341" type="line"/>
      <point x="229" y="394" type="line"/>
      <point x="282" y="394" type="line" smooth="yes"/>
      <point x="337" y="394"/>
      <point x="377" y="425" type="qcurve" smooth="yes"/>
      <point x="424" y="460"/>
      <point x="424" y="521" type="qcurve" smooth="yes"/>
      <point x="424" y="587"/>
      <point x="379" y="622" type="qcurve" smooth="yes"/>
      <point x="338" y="653"/>
      <point x="271" y="653" type="qcurve" smooth="yes"/>
      <point x="194" y="653"/>
      <point x="110" y="556"/>
      <point x="112" y="476" type="qcurve"/>
      <point x="49" y="476" type="line"/>
      <point x="50" y="577"/>
      <point x="170" y="706"/>
      <point x="270" y="706" type="qcurve" smooth="yes"/>
      <point x="360" y="706"/>
      <point x="420" y="664" type="qcurve" smooth="yes"/>
      <point x="487" y="615"/>
      <point x="487" y="528" type="qcurve" smooth="yes"/>
      <point x="487" y="470"/>
      <point x="424" y="386"/>
      <point x="369" y="373" type="qcurve"/>
      <point x="369" y="371" type="line"/>
      <point x="437" y="360"/>
      <point x="513" y="267"/>
      <point x="513" y="198" type="qcurve" smooth="yes"/>
      <point x="513" y="99"/>
      <point x="441" y="40" type="qcurve" smooth="yes"/>
      <point x="374" y="-15"/>
      <point x="272" y="-15" type="qcurve" smooth="yes"/>
      <point x="160" y="-15"/>
      <point x="26" y="113"/>
    </contour>
  </outline>
</glyph>
<glyph name="four" format="2">
  <advance width="556"/>
  <unicode hex="0034"/>
  <outline>
    <contour>
      <point x="30" y="174" type="line"/>
      <point x="30" y="235" type="line"/>
      <point x="354" y="700" type="line"/>
      <point x="411" y="700" type="line"/>
      <point x="411" y="227" type="line"/>
      <point x="516" y="227" type="line"/>
      <point x="516" y="174" type="line"/>
      <point x="411" y="174" type="line"/>
      <point x="411" y="0" type="line"/>
      <point x="353" y="0" type="line"/>
      <point x="353" y="174" type="line"/>
    </contour>
    <contour>
      <point x="87" y="227" type="line"/>
      <point x="353" y="227" type="line"/>
      <point x="353" y="608" type="line"/>
      <point x="351" y="608" type="line"/>
    </contour>
  </outline>
</glyph>
<glyph name="five" format="2">
  <advance width="556"/>
  <unicode hex="0035"/>
  <outline>
    <contour>
      <point x="36" y="200" type="qcurve"/>
      <point x="99" y="200" type="line"/>
      <point x="101" y="128"/>
      <point x="198" y="38"/>
      <point x="271" y="38" type="qcurve" smooth="yes"/>
      <point x="350" y="38"/>
      <point x="446" y="150"/>
      <point x="446" y="229" type="qcurve" smooth="yes"/>
      <point x="446" y="307"/>
      <point x="345" y="411"/>
      <point x="267" y="411" type="qcurve" smooth="yes"/>
      <point x="164" y="411"/>
      <point x="111" y="328" type="qcurve"/>
      <point x="57" y="328" type="line"/>
      <point x="125" y="691" type="line"/>
      <point x="475" y="691" type="line"/>
      <point x="475" y="633" type="line"/>
      <point x="169" y="633" type="line"/>
      <point x="124" y="401" type="line"/>
      <point x="126" y="399" type="line"/>
      <point x="181" y="464"/>
      <point x="274" y="464" type="qcurve" smooth="yes"/>
      <point x="381" y="464"/>
      <point x="509" y="329"/>
      <point x="509" y="222" type="qcurve" smooth="yes"/>
      <point x="509" y="120"/>
      <point x="368" y="-15"/>
      <point x="266" y="-15" type="qcurve" smooth="yes"/>
      <point x="167" y="-15"/>
      <point x="38" y="102"/>
    </contour>
  </outline>
</glyph>
<glyph name="six" format="2">
  <advance width="556"/>
  <unicode hex="0036"/>
  <outline>
    <contour>
      <point x="290" y="403" type="qcurve" smooth="yes"/>
      <point x="210" y="403"/>
      <point x="116" y="298"/>
      <point x="116" y="218" type="qcurve" smooth="yes"/>
      <point x="116" y="139"/>
      <point x="158" y="91" type="qcurve" smooth="yes"/>
      <point x="204" y="38"/>
      <point x="291" y="38" type="qcurve" smooth="yes"/>
      <point x="364" y="38"/>
      <point x="413" y="92" type="qcurve" smooth="yes"/>
      <point x="459" y="143"/>
      <point x="459" y="218" type="qcurve" smooth="yes"/>
      <point x="459" y="297"/>
      <point x="415" y="349" type="qcurve" smooth="yes"/>
      <point x="368" y="403"/>
    </contour>
    <contour>
      <point x="505" y="523" type="qcurve"/>
      <point x="442" y="523" type="line"/>
      <point x="434" y="582"/>
      <point x="356" y="653"/>
      <point x="296" y="653" type="qcurve" smooth="yes"/>
      <point x="187" y="653"/>
      <point x="138" y="544" type="qcurve" smooth="yes"/>
      <point x="103" y="465"/>
      <point x="103" y="340" type="qcurve"/>
      <point x="105" y="340" type="line"/>
      <point x="130" y="392"/>
      <point x="232" y="456"/>
      <point x="291" y="456" type="qcurve" smooth="yes"/>
      <point x="395" y="456"/>
      <point x="522" y="326"/>
      <point x="522" y="222" type="qcurve" smooth="yes"/>
      <point x="522" y="120"/>
      <point x="388" y="-15"/>
      <point x="285" y="-15" type="qcurve" smooth="yes"/>
      <point x="156" y="-15"/>
      <point x="40" y="155"/>
      <point x="40" y="357" type="qcurve" smooth="yes"/>
      <point x="40" y="474"/>
      <point x="79" y="563" type="qcurve" smooth="yes"/>
      <point x="142" y="706"/>
      <point x="290" y="706" type="qcurve" smooth="yes"/>
      <point x="483" y="706"/>
    </contour>
  </outline>
</glyph>
<glyph name="seven" format="2">
  <advance width="556"/>
  <unicode hex="0037"/>
  <outline>
    <contour>
      <point x="51" y="633" type="line"/>
      <point x="51" y="691" type="line"/>
      <point x="501" y="691" type="line"/>
      <point x="501" y="633" type="line"/>
      <point x="235" y="355"/>
      <point x="218" y="0" type="qcurve"/>
      <point x="150" y="0" type="line"/>
      <point x="163" y="179"/>
      <point x="294" y="468"/>
      <point x="438" y="633" type="qcurve"/>
    </contour>
  </outline>
</glyph>
<glyph name="eight" format="2">
  <advance width="556"/>
  <unicode hex="0038"/>
  <outline>
    <contour>
      <point x="278" y="38" type="qcurve" smooth="yes"/>
      <point x="356" y="38"/>
      <point x="404" y="77" type="qcurve" smooth="yes"/>
      <point x="456" y="119"/>
      <point x="456" y="196" type="qcurve" smooth="yes"/>
      <point x="456" y="268"/>
      <point x="402" y="310" type="qcurve" smooth="yes"/>
      <point x="353" y="348"/>
      <point x="278" y="348" type="qcurve" smooth="yes"/>
      <point x="201" y="348"/>
      <point x="153" y="311" type="qcurve" smooth="yes"/>
      <point x="100" y="270"/>
      <point x="100" y="196" type="qcurve" smooth="yes"/>
      <point x="100" y="120"/>
      <point x="152" y="78" type="qcurve" smooth="yes"/>
      <point x="201" y="38"/>
    </contour>
    <contour>
      <point x="490" y="531" type="qcurve" smooth="yes"/>
      <point x="490" y="474"/>
      <point x="430" y="393"/>
      <point x="376" y="376" type="qcurve"/>
      <point x="376" y="375" type="line"/>
      <point x="443" y="362"/>
      <point x="519" y="267"/>
      <point x="519" y="196" type="qcurve" smooth="yes"/>
      <point x="519" y="95"/>
      <point x="448" y="38" type="qcurve" smooth="yes"/>
      <point x="382" y="-15"/>
      <point x="278" y="-15" type="qcurve" smooth="yes"/>
      <point x="174" y="-15"/>
      <point x="108" y="38" type="qcurve" smooth="yes"/>
      <point x="36" y="95"/>
      <point x="37" y="196" type="qcurve" smooth="yes"/>
      <point x="38" y="265"/>
      <point x="115" y="363"/>
      <point x="179" y="375" type="qcurve"/>
      <point x="179" y="377" type="line"/>
      <point x="65" y="411"/>
      <point x="65" y="531" type="qcurve" smooth="yes"/>
      <point x="65" y="615"/>
      <point x="132" y="664" type="qcurve" smooth="yes"/>
      <point x="192" y="706"/>
      <point x="277" y="706" type="qcurve" smooth="yes"/>
      <point x="363" y="706"/>
      <point x="423" y="664" type="qcurve" smooth="yes"/>
      <point x="490" y="615"/>
    </contour>
    <contour>
      <point x="278" y="401" type="qcurve" smooth="yes"/>
      <point x="341" y="401"/>
      <point x="381" y="432" type="qcurve" smooth="yes"/>
      <point x="427" y="467"/>
      <point x="427" y="531" type="qcurve" smooth="yes"/>
      <point x="427" y="589"/>
      <point x="344" y="653"/>
      <point x="278" y="653" type="qcurve" smooth="yes"/>
      <point x="216" y="653"/>
      <point x="174" y="622" type="qcurve" smooth="yes"/>
      <point x="128" y="588"/>
      <point x="128" y="531" type="qcurve" smooth="yes"/>
      <point x="128" y="465"/>
      <point x="175" y="431" type="qcurve" smooth="yes"/>
      <point x="216" y="401"/>
    </contour>
  </outline>
</glyph>
<glyph name="nine" format="2">
  <advance width="556"/>
  <unicode hex="0039"/>
  <outline>
    <contour>
      <point x="266" y="288" type="qcurve" smooth="yes"/>
      <point x="346" y="288"/>
      <point x="394" y="342" type="qcurve" smooth="yes"/>
      <point x="440" y="393"/>
      <point x="440" y="473" type="qcurve" smooth="yes"/>
      <point x="440" y="552"/>
      <point x="398" y="600" type="qcurve" smooth="yes"/>
      <point x="352" y="653"/>
      <point x="265" y="653" type="qcurve" smooth="yes"/>
      <point x="192" y="653"/>
      <point x="97" y="548"/>
      <point x="97" y="473" type="qcurve" smooth="yes"/>
      <point x="97" y="394"/>
      <point x="188" y="288"/>
    </contour>
    <contour>
      <point x="51" y="168" type="qcurve"/>
      <point x="114" y="168" type="line"/>
      <point x="122" y="109"/>
      <point x="200" y="38"/>
      <point x="260" y="38" type="qcurve" smooth="yes"/>
      <point x="369" y="38"/>
      <point x="418" y="147" type="qcurve" smooth="yes"/>
      <point x="453" y="226"/>
      <point x="453" y="351" type="qcurve"/>
      <point x="451" y="351" type="line"/>
      <point x="426" y="299"/>
      <point x="324" y="235"/>
      <point x="265" y="235" type="qcurve" smooth="yes"/>
      <point x="161" y="235"/>
      <point x="34" y="365"/>
      <point x="34" y="469" type="qcurve" smooth="yes"/>
      <point x="34" y="571"/>
      <point x="168" y="706"/>
      <point x="271" y="706" type="qcurve" smooth="yes"/>
      <point x="400" y="706"/>
      <point x="516" y="536"/>
      <point x="516" y="334" type="qcurve" smooth="yes"/>
      <point x="516" y="217"/>
      <point x="477" y="128" type="qcurve" smooth="yes"/>
      <point x="414" y="-15"/>
      <point x="266" y="-15" type="qcurve" smooth="yes"/>
      <point x="74" y="-15"/>
    </contour>
  </outline>
</glyph>
<glyph name="colon" format="2">
  <advance width="278"/>
  <unicode hex="003A"/>
  <outline>
    <contour>
      <point x="181" y="394" type="line"/>
      <point x="97" y="394" type="line"/>
      <point x="97" y="500" type="line"/>
      <point x="181" y="500" type="line"/>
    </contour>
    <contour>
      <point x="181" y="0" type="line"/>
      <point x="97" y="0" type="line"/>
      <point x="97" y="106" type="line"/>
      <point x="181" y="106" type="line"/>
    </contour>
  </outline>
</glyph>
<glyph name="semicolon" format="2">
  <advance width="278"/>
  <unicode hex="003B"/>
  <outline>
    <contour>
      <point x="97" y="106" type="line"/>
      <point x="181" y="106" type="line"/>
      <point x="181" y="-1" type="line" smooth="yes"/>
      <point x="181" y="-48"/>
      <point x="160" y="-84" type="qcurve" smooth="yes"/>
      <point x="136" y="-125"/>
      <point x="93" y="-137" type="qcurve"/>
      <point x="93" y="-94" type="line"/>
      <point x="116" y="-86"/>
      <point x="129" y="-55" type="qcurve" smooth="yes"/>
      <point x="141" y="-28"/>
      <point x="139" y="0" type="qcurve"/>
      <point x="97" y="0" type="line"/>
    </contour>
    <contour>
      <point x="181" y="394" type="line"/>
      <point x="97" y="394" type="line"/>
      <point x="97" y="500" type="line"/>
      <point x="181" y="500" type="line"/>
    </contour>
  </outline>
</glyph>
<glyph name="less" format="2">
  <advance width="600"/>
  <unicode hex="003C"/>
  <outline>
    <contour>
      <point x="554" y="47" type="line"/>
      <point x="554" y="-8" type="line"/>
      <point x="46" y="226" type="line"/>
      <point x="46" y="280" type="line"/>
      <point x="554" y="514" type="line"/>
      <point x="554" y="459" type="line"/>
      <point x="108" y="253" type="line"/>
    </contour>
  </outline>
</glyph>
<glyph name="equal" format="2">
  <advance width="600"/>
  <unicode hex="003D"/>
  <outline>
    <contour>
      <point x="552" y="378" type="line"/>
      <point x="552" y="325" type="line"/>
      <point x="49" y="325" type="line"/>
      <point x="49" y="378" type="line"/>
    </contour>
    <contour>
      <point x="552" y="181" type="line"/>
      <point x="552" y="128" type="line"/>
      <point x="49" y="128" type="line"/>
      <point x="49" y="181" type="line"/>
    </contour>
  </outline>
</glyph>
<glyph name="greater" format="2">
  <advance width="600"/>
  <unicode hex="003E"/>
  <outline>
    <contour>
      <point x="46" y="47" type="line"/>
      <point x="492" y="253" type="line"/>
      <point x="46" y="459" type="line"/>
      <point x="46" y="514" type="line"/>
      <point x="554" y="280" type="line"/>
      <point x="554" y="226" type="line"/>
      <point x="46" y="-8" type="line"/>
    </contour>
  </outline>
</glyph>
<glyph name="question" format="2">
  <advance width="537"/>
  <unicode hex="003F"/>
  <outline>
    <contour>
      <point x="117" y="494" type="qcurve"/>
      <point x="54" y="494" type="line"/>
      <point x="55" y="602"/>
      <point x="174" y="729"/>
      <point x="281" y="729" type="qcurve" smooth="yes"/>
      <point x="367" y="729"/>
      <point x="424" y="680" type="qcurve" smooth="yes"/>
      <point x="484" y="628"/>
      <point x="484" y="544" type="qcurve" smooth="yes"/>
      <point x="484" y="459"/>
      <point x="397" y="374" type="qcurve" smooth="yes"/>
      <point x="327" y="306"/>
      <point x="319" y="291" type="qcurve" smooth="yes"/>
      <point x="306" y="266"/>
      <point x="304" y="179" type="qcurve"/>
      <point x="241" y="179" type="line"/>
      <point x="239" y="264"/>
      <point x="266" y="312" type="qcurve" smooth="yes"/>
      <point x="285" y="345"/>
      <point x="356" y="412" type="qcurve" smooth="yes"/>
      <point x="421" y="473"/>
      <point x="421" y="541" type="qcurve" smooth="yes"/>
      <point x="421" y="600"/>
      <point x="338" y="676"/>
      <point x="278" y="676" type="qcurve" smooth="yes"/>
      <point x="199" y="676"/>
      <point x="115" y="575"/>
    </contour>
    <contour>
      <point x="231" y="0" type="line"/>
      <point x="231" y="106" type="line"/>
      <point x="315" y="106" type="line"/>
      <point x="315" y="0" type="line"/>
    </contour>
  </outline>
</glyph>
<glyph name="at" format="2">
  <advance width="800"/>
  <unicode hex="0040"/>
  <outline>
    <contour>
      <point x="426" y="510" type="qcurve" smooth="yes"/>
      <point x="355" y="510"/>
      <point x="303" y="430" type="qcurve" smooth="yes"/>
      <point x="256" y="357"/>
      <point x="256" y="279" type="qcurve" smooth="yes"/>
      <point x="256" y="235"/>
      <point x="302" y="182"/>
      <point x="339" y="182" type="qcurve" smooth="yes"/>
      <point x="404" y="182"/>
      <point x="457" y="267" type="qcurve" smooth="yes"/>
      <point x="505" y="343"/>
      <point x="505" y="417" type="qcurve" smooth="yes"/>
      <point x="505" y="452"/>
      <point x="455" y="510"/>
    </contour>
    <contour>
      <point x="614" y="544" type="line"/>
      <point x="518" y="256" type="line" smooth="yes"/>
      <point x="507" y="222"/>
      <point x="507" y="202" type="qcurve" smooth="yes"/>
      <point x="507" y="173"/>
      <point x="531" y="173" type="qcurve" smooth="yes"/>
      <point x="596" y="173"/>
      <point x="649" y="255" type="qcurve" smooth="yes"/>
      <point x="700" y="334"/>
      <point x="700" y="421" type="qcurve" smooth="yes"/>
      <point x="700" y="541"/>
      <point x="616" y="614" type="qcurve" smooth="yes"/>
      <point x="536" y="684"/>
      <point x="416" y="684" type="qcurve" smooth="yes"/>
      <point x="278" y="684"/>
      <point x="100" y="493"/>
      <point x="100" y="353" type="qcurve" smooth="yes"/>
      <point x="100" y="216"/>
      <point x="282" y="30"/>
      <point x="418" y="30" type="qcurve" smooth="yes"/>
      <point x="492" y="30"/>
      <point x="633" y="101"/>
      <point x="676" y="163" type="qcurve"/>
      <point x="727" y="163" type="line"/>
      <point x="682" y="81"/>
      <point x="513" y="-15"/>
      <point x="418" y="-15" type="qcurve" smooth="yes"/>
      <point x="258" y="-15"/>
      <point x="47" y="201"/>
      <point x="47" y="360" type="qcurve" smooth="yes"/>
      <point x="47" y="516"/>
      <point x="261" y="729"/>
      <point x="414" y="729" type="qcurve" smooth="yes"/>
      <point x="560" y="729"/>
      <point x="753" y="555"/>
      <point x="753" y="418" type="qcurve" smooth="yes"/>
      <point x="753" y="301"/>
      <point x="608" y="128"/>
      <point x="521" y="128" type="qcurve" smooth="yes"/>
      <point x="460" y="128"/>
      <point x="454" y="195" type="qcurve"/>
      <point x="452" y="195" type="line"/>
      <point x="390" y="129"/>
      <point x="325" y="129" type="qcurve" smooth="yes"/>
      <point x="265" y="129"/>
      <point x="193" y="213"/>
      <point x="193" y="274" type="qcurve" smooth="yes"/>
      <point x="193" y="384"/>
      <point x="258" y="470" type="qcurve" smooth="yes"/>
      <point x="328" y="563"/>
      <point x="430" y="563" type="qcurve" smooth="yes"/>
      <point x="505" y="563"/>
      <point x="536" y="479" type="qcurve"/>
      <point x="561" y="544" type="line"/>
    </contour>
  </outline>
</glyph>
<glyph name="A" format="2">
  <advance width="630"/>
  <unicode hex="0041"/>
  <outline>
    <contour>
      <point x="-7" y="0" type="line"/>
      <point x="281" y="714" type="line"/>
      <point x="357" y="714" type="line"/>
      <point x="637" y="0" type="line"/>
      <point x="564" y="0" type="line"/>
      <point x="477" y="222" type="line"/>
      <point x="152" y="222" type="line"/>
      <point x="66" y="0" type="line"/>
    </contour>
    <contour>
      <point x="316" y="646" type="line"/>
      <point x="173" y="280" type="line"/>
      <point x="454" y="280" type="line"/>
    </contour>
  </outline>
</glyph>
<glyph name="B" format="2">
  <advance width="667"/>
  <unicode hex="0042"/>
  <outline>
    <contour>
      <point x="140" y="343" type="line"/>
      <point x="140" y="58" type="line"/>
      <point x="374" y="58" type="line" smooth="yes"/>
      <point x="562" y="58"/>
      <point x="562" y="205" type="qcurve" smooth="yes"/>
      <point x="562" y="343"/>
      <point x="374" y="343" type="qcurve" smooth="yes"/>
    </contour>
    <contour>
      <point x="72" y="0" type="line"/>
      <point x="72" y="714" type="line"/>
      <point x="374" y="714" type="line" smooth="yes"/>
      <point x="475" y="714"/>
      <point x="534" y="676" type="qcurve" smooth="yes"/>
      <point x="603" y="632"/>
      <point x="603" y="539" type="qcurve" smooth="yes"/>
      <point x="603" y="482"/>
      <point x="534" y="391"/>
      <point x="479" y="379" type="qcurve"/>
      <point x="479" y="377" type="line"/>
      <point x="548" y="368"/>
      <point x="630" y="273"/>
      <point x="630" y="203" type="qcurve" smooth="yes"/>
      <point x="630" y="0"/>
      <point x="374" y="0" type="qcurve" smooth="yes"/>
    </contour>
    <contour>
      <point x="140" y="656" type="line"/>
      <point x="140" y="401" type="line"/>
      <point x="374" y="401" type="line" smooth="yes"/>
      <point x="452" y="401"/>
      <point x="495" y="436" type="qcurve" smooth="yes"/>
      <point x="535" y="469"/>
      <point x="535" y="522" type="qcurve" smooth="yes"/>
      <point x="535" y="656"/>
      <point x="374" y="656" type="qcurve" smooth="yes"/>
    </contour>
  </outline>
</glyph>
<glyph name="C" format="2">
  <advance width="704"/>
  <unicode hex="0043"/>
  <outline>
    <contour>
      <point x="662" y="498" type="qcurve"/>
      <point x="594" y="498" type="line"/>
      <point x="576" y="579"/>
      <point x="455" y="671"/>
      <point x="375" y="671" type="qcurve" smooth="yes"/>
      <point x="242" y="671"/>
      <point x="170" y="573" type="qcurve" smooth="yes"/>
      <point x="106" y="486"/>
      <point x="106" y="357" type="qcurve" smooth="yes"/>
      <point x="106" y="228"/>
      <point x="170" y="142" type="qcurve" smooth="yes"/>
      <point x="242" y="43"/>
      <point x="375" y="43" type="qcurve" smooth="yes"/>
      <point x="471" y="43"/>
      <point x="534" y="110" type="qcurve" smooth="yes"/>
      <point x="594" y="173"/>
      <point x="604" y="272" type="qcurve"/>
      <point x="672" y="272" type="line"/>
      <point x="658" y="140"/>
      <point x="499" y="-15"/>
      <point x="375" y="-15" type="qcurve" smooth="yes"/>
      <point x="214" y="-15"/>
      <point x="122" y="98" type="qcurve" smooth="yes"/>
      <point x="38" y="201"/>
      <point x="38" y="357" type="qcurve" smooth="yes"/>
      <point x="38" y="513"/>
      <point x="122" y="616" type="qcurve" smooth="yes"/>
      <point x="214" y="729"/>
      <point x="375" y="729" type="qcurve" smooth="yes"/>
      <point x="482" y="729"/>
      <point x="562" y="670" type="qcurve" smooth="yes"/>
      <point x="649" y="605"/>
    </contour>
  </outline>
</glyph>
<glyph name="E" format="2">
  <advance width="593"/>
  <unicode hex="0045"/>
  <outline>
    <contour>
      <point x="72" y="0" type="line"/>
      <point x="72" y="714" type="line"/>
      <point x="565" y="714" type="line"/>
      <point x="565" y="656" type="line"/>
      <point x="140" y="656" type="line"/>
      <point x="140" y="398" type="line"/>
      <point x="538" y="398" type="line"/>
      <point x="538" y="340" type="line"/>
      <point x="140" y="340" type="line"/>
      <point x="140" y="58" type="line"/>
      <point x="570" y="58" type="line"/>
      <point x="570" y="0" type="line"/>
    </contour>
  </outline>
</glyph>
<glyph name="F" format="2">
  <advance width="537"/>
  <unicode hex="0046"/>
  <outline>
    <contour>
      <point x="72" y="0" type="line"/>
      <point x="72" y="714" type="line"/>
      <point x="525" y="714" type="line"/>
      <point x="525" y="656" type="line"/>
      <point x="140" y="656" type="line"/>
      <point x="140" y="398" type="line"/>
      <point x="482" y="398" type="line"/>
      <point x="482" y="340" type="line"/>
      <point x="140" y="340" type="line"/>
      <point x="140" y="0" type="line"/>
    </contour>
  </outline>
</glyph>
<glyph name="G" format="2">
  <advance width="741"/>
  <unicode hex="0047"/>
  <outline>
    <contour>
      <point x="682" y="363" type="line"/>
      <point x="682" y="0" type="line"/>
      <point x="633" y="0" type="line"/>
      <point x="624" y="130" type="line"/>
      <point x="622" y="130" type="line"/>
      <point x="554" y="-15"/>
      <point x="375" y="-15" type="qcurve" smooth="yes"/>
      <point x="214" y="-15"/>
      <point x="122" y="98" type="qcurve" smooth="yes"/>
      <point x="38" y="201"/>
      <point x="38" y="357" type="qcurve" smooth="yes"/>
      <point x="38" y="513"/>
      <point x="122" y="616" type="qcurve" smooth="yes"/>
      <point x="214" y="729"/>
      <point x="375" y="729" type="qcurve" smooth="yes"/>
      <point x="491" y="729"/>
      <point x="571" y="669" type="qcurve" smooth="yes"/>
      <point x="654" y="606"/>
      <point x="673" y="492" type="qcurve"/>
      <point x="605" y="492" type="line"/>
      <point x="598" y="560"/>
      <point x="538" y="612" type="qcurve" smooth="yes"/>
      <point x="471" y="671"/>
      <point x="375" y="671" type="qcurve" smooth="yes"/>
      <point x="242" y="671"/>
      <point x="170" y="573" type="qcurve" smooth="yes"/>
      <point x="106" y="486"/>
      <point x="106" y="357" type="qcurve" smooth="yes"/>
      <point x="106" y="228"/>
      <point x="170" y="142" type="qcurve" smooth="yes"/>
      <point x="242" y="43"/>
      <point x="375" y="43" type="qcurve" smooth="yes"/>
      <point x="491" y="43"/>
      <point x="559" y="117" type="qcurve" smooth="yes"/>
      <point x="624" y="189"/>
      <point x="622" y="305" type="qcurve"/>
      <point x="379" y="305" type="line"/>
      <point x="379" y="363" type="line"/>
    </contour>
  </outline>
</glyph>
<glyph name="H" format="2">
  <advance width="704"/>
  <unicode hex="0048"/>
  <outline>
    <contour>
      <point x="72" y="0" type="line"/>
      <point x="72" y="714" type="line"/>
      <point x="140" y="714" type="line"/>
      <point x="140" y="404" type="line"/>
      <point x="564" y="404" type="line"/>
      <point x="564" y="714" type="line"/>
      <point x="632" y="714" type="line"/>
      <point x="632" y="0" type="line"/>
      <point x="564" y="0" type="line"/>
      <point x="564" y="346" type="line"/>
      <point x="140" y="346" type="line"/>
      <point x="140" y="0" type="line"/>
    </contour>
  </outline>
</glyph>
<glyph name="J" format="2">
  <advance width="500"/>
  <unicode hex="004A"/>
  <outline>
    <contour>
      <point x="360" y="228" type="qcurve" smooth="yes"/>
      <point x="360" y="714" type="line"/>
      <point x="428" y="714" type="line"/>
      <point x="428" y="199" type="line" smooth="yes"/>
      <point x="428" y="88"/>
      <point x="382" y="38" type="qcurve" smooth="yes"/>
      <point x="333" y="-15"/>
      <point x="220" y="-15" type="qcurve" smooth="yes"/>
      <point x="19" y="-15"/>
      <point x="21" y="229" type="qcurve"/>
      <point x="89" y="229" type="line"/>
      <point x="92" y="146"/>
      <point x="105" y="113" type="qcurve" smooth="yes"/>
      <point x="135" y="43"/>
      <point x="226" y="43" type="qcurve" smooth="yes"/>
      <point x="303" y="43"/>
      <point x="333" y="86" type="qcurve" smooth="yes"/>
      <point x="360" y="127"/>
    </contour>
  </outline>
</glyph>
<glyph name="K" format="2">
  <advance width="648"/>
  <unicode hex="004B"/>
  <outline>
    <contour>
      <point x="72" y="0" type="line"/>
      <point x="72" y="714" type="line"/>
      <point x="140" y="714" type="line"/>
      <point x="140" y="330" type="line"/>
      <point x="555" y="714" type="line"/>
      <point x="647" y="714" type="line"/>
      <point x="328" y="419" type="line"/>
      <point x="662" y="0" type="line"/>
      <point x="574" y="0" type="line"/>
      <point x="277" y="372" type="line"/>
      <point x="140" y="245" type="line"/>
      <point x="140" y="0" type="line"/>
    </contour>
  </outline>
</glyph>
<glyph name="L" format="2">
  <advance width="537"/>
  <unicode hex="004C"/>
  <outline>
    <contour>
      <point x="72" y="0" type="line"/>
      <point x="72" y="714" type="line"/>
      <point x="140" y="714" type="line"/>
      <point x="140" y="58" type="line"/>
      <point x="540" y="58" type="line"/>
      <point x="540" y="0" type="line"/>
    </contour>
  </outline>
</glyph>
<glyph name="M" format="2">
  <advance width="833"/>
  <unicode hex="004D"/>
  <outline>
    <contour>
      <point x="70" y="0" type="line"/>
      <point x="70" y="714" type="line"/>
      <point x="170" y="714" type="line"/>
      <point x="417" y="88" type="line"/>
      <point x="663" y="714" type="line"/>
      <point x="763" y="714" type="line"/>
      <point x="763" y="0" type="line"/>
      <point x="695" y="0" type="line"/>
      <point x="695" y="617" type="line"/>
      <point x="693" y="617" type="line"/>
      <point x="449" y="0" type="line"/>
      <point x="385" y="0" type="line"/>
      <point x="140" y="617" type="line"/>
      <point x="138" y="617" type="line"/>
      <point x="138" y="0" type="line"/>
    </contour>
  </outline>
</glyph>
<glyph name="N" format="2">
  <advance width="704"/>
  <unicode hex="004E"/>
  <outline>
    <contour>
      <point x="71" y="0" type="line"/>
      <point x="71" y="714" type="line"/>
      <point x="147" y="714" type="line"/>
      <point x="563" y="110" type="line"/>
      <point x="565" y="110" type="line"/>
      <point x="565" y="714" type="line"/>
      <point x="633" y="714" type="line"/>
      <point x="633" y="0" type="line"/>
      <point x="557" y="0" type="line"/>
      <point x="141" y="604" type="line"/>
      <point x="139" y="604" type="line"/>
      <point x="139" y="0" type="line"/>
    </contour>
  </outline>
</glyph>
<glyph name="O" format="2">
  <advance width="741"/>
  <unicode hex="004F"/>
  <outline>
    <contour>
      <point x="34" y="357" type="qcurve" smooth="yes"/>
      <point x="34" y="513"/>
      <point x="118" y="616" type="qcurve" smooth="yes"/>
      <point x="210" y="729"/>
      <point x="371" y="729" type="qcurve" smooth="yes"/>
      <point x="531" y="729"/>
      <point x="623" y="616" type="qcurve" smooth="yes"/>
      <point x="707" y="513"/>
      <point x="707" y="357" type="qcurve" smooth="yes"/>
      <point x="707" y="201"/>
      <point x="623" y="98" type="qcurve" smooth="yes"/>
      <point x="531" y="-15"/>
      <point x="371" y="-15" type="qcurve" smooth="yes"/>
      <point x="210" y="-15"/>
      <point x="118" y="98" type="qcurve" smooth="yes"/>
      <point x="34" y="201"/>
    </contour>
    <contour>
      <point x="102" y="357" type="qcurve" smooth="yes"/>
      <point x="102" y="228"/>
      <point x="166" y="142" type="qcurve" smooth="yes"/>
      <point x="238" y="43"/>
      <point x="371" y="43" type="qcurve" smooth="yes"/>
      <point x="503" y="43"/>
      <point x="576" y="142" type="qcurve" smooth="yes"/>
      <point x="639" y="228"/>
      <point x="639" y="357" type="qcurve" smooth="yes"/>
      <point x="639" y="486"/>
      <point x="576" y="573" type="qcurve" smooth="yes"/>
      <point x="503" y="671"/>
      <point x="371" y="671" type="qcurve" smooth="yes"/>
      <point x="238" y="671"/>
      <point x="166" y="573" type="qcurve" smooth="yes"/>
      <point x="102" y="486"/>
    </contour>
  </outline>
</glyph>
<glyph name="P" format="2">
  <advance width="630"/>
  <unicode hex="0050"/>
  <outline>
    <contour>
      <point x="72" y="0" type="line"/>
      <point x="72" y="714" type="line"/>
      <point x="389" y="714" type="line" smooth="yes"/>
      <point x="486" y="714"/>
      <point x="601" y="606"/>
      <point x="601" y="510" type="qcurve" smooth="yes"/>
      <point x="601" y="414"/>
      <point x="486" y="306"/>
      <point x="389" y="306" type="qcurve" smooth="yes"/>
      <point x="140" y="306" type="line"/>
      <point x="140" y="0" type="line"/>
    </contour>
    <contour>
      <point x="140" y="656" type="line"/>
      <point x="140" y="364" type="line"/>
      <point x="374" y="364" type="line" smooth="yes"/>
      <point x="447" y="364"/>
      <point x="533" y="439"/>
      <point x="533" y="510" type="qcurve" smooth="yes"/>
      <point x="533" y="581"/>
      <point x="489" y="620" type="qcurve" smooth="yes"/>
      <point x="447" y="656"/>
      <point x="374" y="656" type="qcurve" smooth="yes"/>
    </contour>
  </outline>
</glyph>
<glyph name="Q" format="2">
  <advance width="741"/>
  <unicode hex="0051"/>
  <outline>
    <contour>
      <point x="444" y="192" type="line"/>
      <point x="548" y="113" type="line"/>
      <point x="639" y="200"/>
      <point x="639" y="357" type="qcurve" smooth="yes"/>
      <point x="639" y="486"/>
      <point x="576" y="573" type="qcurve" smooth="yes"/>
      <point x="503" y="671"/>
      <point x="371" y="671" type="qcurve" smooth="yes"/>
      <point x="238" y="671"/>
      <point x="166" y="573" type="qcurve" smooth="yes"/>
      <point x="102" y="486"/>
      <point x="102" y="357" type="qcurve" smooth="yes"/>
      <point x="102" y="228"/>
      <point x="166" y="142" type="qcurve" smooth="yes"/>
      <point x="238" y="43"/>
      <point x="371" y="43" type="qcurve" smooth="yes"/>
      <point x="448" y="43"/>
      <point x="503" y="78" type="qcurve"/>
      <point x="409" y="149" type="line"/>
    </contour>
    <contour>
      <point x="701" y="-4" type="line"/>
      <point x="667" y="-46" type="line"/>
      <point x="556" y="38" type="line"/>
      <point x="480" y="-15"/>
      <point x="371" y="-15" type="qcurve" smooth="yes"/>
      <point x="210" y="-15"/>
      <point x="118" y="98" type="qcurve" smooth="yes"/>
      <point x="34" y="201"/>
      <point x="34" y="357" type="qcurve" smooth="yes"/>
      <point x="34" y="513"/>
      <point x="118" y="616" type="qcurve" smooth="yes"/>
      <point x="210" y="729"/>
      <point x="371" y="729" type="qcurve" smooth="yes"/>
      <point x="531" y="729"/>
      <point x="623" y="616" type="qcurve" smooth="yes"/>
      <point x="707" y="513"/>
      <point x="707" y="357" type="qcurve" smooth="yes"/>
      <point x="707" y="178"/>
      <point x="599" y="74" type="qcurve"/>
    </contour>
  </outline>
</glyph>
<glyph name="R" format="2">
  <advance width="667"/>
  <unicode hex="0052"/>
  <outline>
    <contour>
      <point x="72" y="0" type="line"/>
      <point x="72" y="714" type="line"/>
      <point x="399" y="714" type="line" smooth="yes"/>
      <point x="494" y="714"/>
      <point x="552" y="669" type="qcurve" smooth="yes"/>
      <point x="616" y="620"/>
      <point x="616" y="528" type="qcurve" smooth="yes"/>
      <point x="616" y="458"/>
      <point x="581" y="410" type="qcurve" smooth="yes"/>
      <point x="544" y="359"/>
      <point x="477" y="346" type="qcurve"/>
      <point x="477" y="344" type="line"/>
      <point x="593" y="329"/>
      <point x="602" y="183" type="qcurve" smooth="yes"/>
      <point x="607" y="97"/>
      <point x="608" y="87" type="qcurve" smooth="yes"/>
      <point x="616" y="23"/>
      <point x="635" y="0" type="qcurve"/>
      <point x="560" y="0" type="line"/>
      <point x="546" y="22"/>
      <point x="541" y="111" type="qcurve" smooth="yes"/>
      <point x="535" y="212"/>
      <point x="516" y="251" type="qcurve" smooth="yes"/>
      <point x="484" y="317"/>
      <point x="398" y="317" type="qcurve" smooth="yes"/>
      <point x="140" y="317" type="line"/>
      <point x="140" y="0" type="line"/>
    </contour>
    <contour>
      <point x="140" y="656" type="line"/>
      <point x="140" y="375" type="line"/>
      <point x="394" y="375" type="line" smooth="yes"/>
      <point x="459" y="375"/>
      <point x="548" y="451"/>
      <point x="548" y="514" type="qcurve" smooth="yes"/>
      <point x="548" y="581"/>
      <point x="469" y="656"/>
      <point x="394" y="656" type="qcurve" smooth="yes"/>
    </contour>
  </outline>
</glyph>
<glyph name="S" format="2">
  <advance width="630"/>
  <unicode hex="0053"/>
  <outline>
    <contour>
      <point x="36" y="235" type="qcurve"/>
      <point x="104" y="235" type="line"/>
      <point x="100" y="43"/>
      <point x="337" y="43" type="qcurve" smooth="yes"/>
      <point x="405" y="43"/>
      <point x="460" y="77" type="qcurve" smooth="yes"/>
      <point x="526" y="117"/>
      <point x="526" y="188" type="qcurve" smooth="yes"/>
      <point x="526" y="281"/>
      <point x="379" y="317" type="qcurve" smooth="yes"/>
      <point x="220" y="356" type="line" smooth="yes"/>
      <point x="59" y="395"/>
      <point x="59" y="528" type="qcurve" smooth="yes"/>
      <point x="59" y="600"/>
      <point x="107" y="655" type="qcurve" smooth="yes"/>
      <point x="172" y="729"/>
      <point x="305" y="729" type="qcurve" smooth="yes"/>
      <point x="417" y="729"/>
      <point x="490" y="673" type="qcurve" smooth="yes"/>
      <point x="570" y="612"/>
      <point x="569" y="507" type="qcurve"/>
      <point x="501" y="507" type="line"/>
      <point x="498" y="585"/>
      <point x="440" y="630" type="qcurve" smooth="yes"/>
      <point x="386" y="671"/>
      <point x="306" y="671" type="qcurve" smooth="yes"/>
      <point x="228" y="671"/>
      <point x="182" y="640" type="qcurve" smooth="yes"/>
      <point x="127" y="603"/>
      <point x="127" y="529" type="qcurve" smooth="yes"/>
      <point x="127" y="447"/>
      <point x="235" y="420" type="qcurve" smooth="yes"/>
      <point x="409" y="377" type="line" smooth="yes"/>
      <point x="594" y="331"/>
      <point x="594" y="189" type="qcurve" smooth="yes"/>
      <point x="594" y="120"/>
      <point x="552" y="69" type="qcurve" smooth="yes"/>
      <point x="484" y="-15"/>
      <point x="321" y="-15" type="qcurve" smooth="yes"/>
      <point x="187" y="-15"/>
      <point x="112" y="45" type="qcurve" smooth="yes"/>
      <point x="30" y="110"/>
    </contour>
  </outline>
</glyph>
<glyph name="T" format="2">
  <advance width="556"/>
  <unicode hex="0054"/>
  <outline>
    <contour>
      <point x="-5" y="656" type="line"/>
      <point x="-5" y="714" type="line"/>
      <point x="561" y="714" type="line"/>
      <point x="561" y="656" type="line"/>
      <point x="312" y="656" type="line"/>
      <point x="312" y="0" type="line"/>
      <point x="244" y="0" type="line"/>
      <point x="244" y="656" type="line"/>
    </contour>
  </outline>
</glyph>
<glyph name="U" format="2">
  <advance width="685"/>
  <unicode hex="0055"/>
  <outline>
    <contour>
      <point x="65" y="257" type="qcurve" smooth="yes"/>
      <point x="65" y="714" type="line"/>
      <point x="133" y="714" type="line"/>
      <point x="133" y="272" type="line" smooth="yes"/>
      <point x="133" y="43"/>
      <point x="342" y="43" type="qcurve" smooth="yes"/>
      <point x="552" y="43"/>
      <point x="552" y="272" type="qcurve" smooth="yes"/>
      <point x="552" y="714" type="line"/>
      <point x="620" y="714" type="line"/>
      <point x="620" y="257" type="line" smooth="yes"/>
      <point x="620" y="137"/>
      <point x="556" y="66" type="qcurve" smooth="yes"/>
      <point x="483" y="-15"/>
      <point x="342" y="-15" type="qcurve" smooth="yes"/>
      <point x="202" y="-15"/>
      <point x="129" y="66" type="qcurve" smooth="yes"/>
      <point x="65" y="138"/>
    </contour>
  </outline>
</glyph>
<glyph name="V" format="2">
  <advance width="593"/>
  <unicode hex="0056"/>
  <outline>
    <contour>
      <point x="258" y="0" type="line"/>
      <point x="-7" y="714" type="line"/>
      <point x="66" y="714" type="line"/>
      <point x="298" y="75" type="line"/>
      <point x="300" y="75" type="line"/>
      <point x="530" y="714" type="line"/>
      <point x="602" y="714" type="line"/>
      <point x="337" y="0" type="line"/>
    </contour>
  </outline>
</glyph>
<glyph name="W" format="2">
  <advance width="907"/>
  <unicode hex="0057"/>
  <outline>
    <contour>
      <point x="198" y="0" type="line"/>
      <point x="0" y="714" type="line"/>
      <point x="73" y="714" type="line"/>
      <point x="235" y="89" type="line"/>
      <point x="237" y="89" type="line"/>
      <point x="411" y="714" type="line"/>
      <point x="496" y="714" type="line"/>
      <point x="671" y="89" type="line"/>
      <point x="673" y="89" type="line"/>
      <point x="836" y="714" type="line"/>
      <point x="904" y="714" type="line"/>
      <point x="707" y="0" type="line"/>
      <point x="635" y="0" type="line"/>
      <point x="454" y="639" type="line"/>
      <point x="452" y="639" type="line"/>
      <point x="272" y="0" type="line"/>
    </contour>
  </outline>
</glyph>
<glyph name="X" format="2">
  <advance width="574"/>
  <unicode hex="0058"/>
  <outline>
    <contour>
      <point x="245" y="368" type="line"/>
      <point x="3" y="714" type="line"/>
      <point x="83" y="714" type="line"/>
      <point x="285" y="415" type="line"/>
      <point x="494" y="714" type="line"/>
      <point x="570" y="714" type="line"/>
      <point x="326" y="366" type="line"/>
      <point x="584" y="0" type="line"/>
      <point x="502" y="0" type="line"/>
      <point x="285" y="315" type="line"/>
      <point x="65" y="0" type="line"/>
      <point x="-12" y="0" type="line"/>
    </contour>
  </outline>
</glyph>
<glyph name="Y" format="2">
  <advance width="611"/>
  <unicode hex="0059"/>
  <outline>
    <contour>
      <point x="271" y="0" type="line"/>
      <point x="271" y="294" type="line"/>
      <point x="-10" y="714" type="line"/>
      <point x="71" y="714" type="line"/>
      <point x="306" y="352" type="line"/>
      <point x="540" y="714" type="line"/>
      <point x="621" y="714" type="line"/>
      <point x="339" y="294" type="line"/>
      <point x="339" y="0" type="line"/>
    </contour>
  </outline>
</glyph>
<glyph name="Z" format="2">
  <advance width="574"/>
  <unicode hex="005A"/>
  <outline>
    <contour>
      <point x="37" y="656" type="line"/>
      <point x="37" y="714" type="line"/>
      <point x="551" y="714" type="line"/>
      <point x="551" y="654" type="line"/>
      <point x="81" y="58" type="line"/>
      <point x="561" y="58" type="line"/>
      <point x="561" y="0" type="line"/>
      <point x="5" y="0" type="line"/>
      <point x="5" y="60" type="line"/>
      <point x="475" y="656" type="line"/>
    </contour>
  </outline>
</glyph>
<glyph name="bracketleft" format="2">
  <advance width="241"/>
  <unicode hex="005B"/>
  <outline>
    <contour>
      <point x="237" y="-191" type="line"/>
      <point x="76" y="-191" type="line"/>
      <point x="76" y="729" type="line"/>
      <point x="237" y="729" type="line"/>
      <point x="237" y="676" type="line"/>
      <point x="139" y="676" type="line"/>
      <point x="139" y="-138" type="line"/>
      <point x="237" y="-138" type="line"/>
    </contour>
  </outline>
</glyph>
<glyph name="backslash" format="2">
  <advance width="333"/>
  <unicode hex="005C"/>
  <outline>
    <contour>
      <point x="346" y="-15" type="line"/>
      <point x="292" y="-15" type="line"/>
      <point x="-13" y="729" type="line"/>
      <point x="38" y="729" type="line"/>
    </contour>
  </outline>
</glyph>
<glyph name="bracketright" format="2">
  <advance width="241"/>
  <unicode hex="005D"/>
  <outline>
    <contour>
      <point x="4" y="729" type="line"/>
      <point x="165" y="729" type="line"/>
      <point x="165" y="-191" type="line"/>
      <point x="4" y="-191" type="line"/>
      <point x="4" y="-138" type="line"/>
      <point x="102" y="-138" type="line"/>
      <point x="102" y="676" type="line"/>
      <point x="4" y="676" type="line"/>
    </contour>
  </outline>
</glyph>
<glyph name="asciicircum" format="2">
  <advance width="600"/>
  <unicode hex="005E"/>
  <outline>
    <contour>
      <point x="102" y="238" type="line"/>
      <point x="44" y="238" type="line"/>
      <point x="274" y="691" type="line"/>
      <point x="326" y="691" type="line"/>
      <point x="556" y="238" type="line"/>
      <point x="499" y="238" type="line"/>
      <point x="299" y="628" type="line"/>
    </contour>
  </outline>
</glyph>
<glyph name="grave" format="2">
  <advance width="185"/>
  <unicode hex="0060"/>
  <outline>
    <contour>
      <point x="101" y="588" type="line"/>
      <point x="-31" y="729" type="line"/>
      <point x="47" y="729" type="line"/>
      <point x="152" y="588" type="line"/>
    </contour>
  </outline>
</glyph>
<glyph name="a" format="2">
  <advance width="519"/>
  <unicode hex="0061"/>
  <outline>
    <contour>
      <point x="390" y="200" type="qcurve" smooth="yes"/>
      <point x="390" y="282" type="line"/>
      <point x="388" y="282" type="line"/>
      <point x="380" y="267"/>
      <point x="335" y="259" type="qcurve" smooth="yes"/>
      <point x="280" y="251"/>
      <point x="225" y="242" type="qcurve" smooth="yes"/>
      <point x="163" y="231"/>
      <point x="133" y="212" type="qcurve" smooth="yes"/>
      <point x="95" y="186"/>
      <point x="95" y="140" type="qcurve" smooth="yes"/>
      <point x="95" y="95"/>
      <point x="164" y="38"/>
      <point x="210" y="38" type="qcurve" smooth="yes"/>
      <point x="285" y="38"/>
      <point x="390" y="127"/>
    </contour>
    <contour>
      <point x="117" y="358" type="qcurve"/>
      <point x="54" y="358" type="line"/>
      <point x="58" y="445"/>
      <point x="117" y="490" type="qcurve" smooth="yes"/>
      <point x="170" y="531"/>
      <point x="263" y="531" type="qcurve" smooth="yes"/>
      <point x="453" y="531"/>
      <point x="453" y="365" type="qcurve" smooth="yes"/>
      <point x="453" y="91" type="line" smooth="yes"/>
      <point x="453" y="53"/>
      <point x="490" y="53" type="qcurve" smooth="yes"/>
      <point x="500" y="53"/>
      <point x="510" y="57" type="qcurve"/>
      <point x="510" y="4" type="line"/>
      <point x="491" y="0"/>
      <point x="469" y="0" type="qcurve" smooth="yes"/>
      <point x="424" y="0"/>
      <point x="408" y="25" type="qcurve" smooth="yes"/>
      <point x="395" y="45"/>
      <point x="395" y="90" type="qcurve"/>
      <point x="393" y="90" type="line"/>
      <point x="357" y="35"/>
      <point x="320" y="12" type="qcurve" smooth="yes"/>
      <point x="275" y="-15"/>
      <point x="205" y="-15" type="qcurve" smooth="yes"/>
      <point x="129" y="-15"/>
      <point x="83" y="22" type="qcurve" smooth="yes"/>
      <point x="32" y="62"/>
      <point x="32" y="136" type="qcurve" smooth="yes"/>
      <point x="32" y="232"/>
      <point x="119" y="267" type="qcurve" smooth="yes"/>
      <point x="162" y="285"/>
      <point x="309" y="302" type="qcurve" smooth="yes"/>
      <point x="354" y="307"/>
      <point x="369" y="318" type="qcurve" smooth="yes"/>
      <point x="390" y="333"/>
      <point x="390" y="372" type="qcurve" smooth="yes"/>
      <point x="390" y="478"/>
      <point x="255" y="478" type="qcurve" smooth="yes"/>
      <point x="120" y="478"/>
    </contour>
  </outline>
</glyph>
<glyph name="b" format="2">
  <advance width="574"/>
  <unicode hex="0062"/>
  <outline>
    <contour>
      <point x="473" y="258" type="qcurve" smooth="yes"/>
      <point x="473" y="348"/>
      <point x="434" y="408" type="qcurve" smooth="yes"/>
      <point x="388" y="478"/>
      <point x="304" y="478" type="qcurve" smooth="yes"/>
      <point x="211" y="478"/>
      <point x="163" y="408" type="qcurve" smooth="yes"/>
      <point x="123" y="349"/>
      <point x="123" y="258" type="qcurve" smooth="yes"/>
      <point x="123" y="167"/>
      <point x="163" y="108" type="qcurve" smooth="yes"/>
      <point x="211" y="38"/>
      <point x="304" y="38" type="qcurve" smooth="yes"/>
      <point x="388" y="38"/>
      <point x="434" y="108" type="qcurve" smooth="yes"/>
      <point x="473" y="168"/>
    </contour>
    <contour>
      <point x="60" y="0" type="line"/>
      <point x="60" y="714" type="line"/>
      <point x="123" y="714" type="line"/>
      <point x="123" y="418" type="line"/>
      <point x="125" y="418" type="line"/>
      <point x="145" y="472"/>
      <point x="196" y="502" type="qcurve" smooth="yes"/>
      <point x="244" y="531"/>
      <point x="304" y="531" type="qcurve" smooth="yes"/>
      <point x="416" y="531"/>
      <point x="479" y="449" type="qcurve" smooth="yes"/>
      <point x="536" y="375"/>
      <point x="536" y="258" type="qcurve" smooth="yes"/>
      <point x="536" y="141"/>
      <point x="479" y="67" type="qcurve" smooth="yes"/>
      <point x="416" y="-15"/>
      <point x="304" y="-15" type="qcurve" smooth="yes"/>
      <point x="241" y="-15"/>
      <point x="142" y="46"/>
      <point x="120" y="98" type="qcurve"/>
      <point x="118" y="98" type="line"/>
      <point x="118" y="0" type="line"/>
    </contour>
  </outline>
</glyph>
<glyph name="c" format="2">
  <advance width="519"/>
  <unicode hex="0063"/>
  <outline>
    <contour>
      <point x="487" y="354" type="qcurve"/>
      <point x="424" y="354" type="line"/>
      <point x="397" y="478"/>
      <point x="278" y="478" type="qcurve" smooth="yes"/>
      <point x="192" y="478"/>
      <point x="142" y="409" type="qcurve" smooth="yes"/>
      <point x="97" y="347"/>
      <point x="97" y="258" type="qcurve" smooth="yes"/>
      <point x="97" y="169"/>
      <point x="142" y="107" type="qcurve" smooth="yes"/>
      <point x="192" y="38"/>
      <point x="278" y="38" type="qcurve" smooth="yes"/>
      <point x="337" y="38"/>
      <point x="422" y="121"/>
      <point x="428" y="185" type="qcurve"/>
      <point x="491" y="185" type="line"/>
      <point x="478" y="92"/>
      <point x="364" y="-15"/>
      <point x="278" y="-15" type="qcurve" smooth="yes"/>
      <point x="164" y="-15"/>
      <point x="97" y="66" type="qcurve" smooth="yes"/>
      <point x="34" y="142"/>
      <point x="34" y="258" type="qcurve" smooth="yes"/>
      <point x="34" y="374"/>
      <point x="97" y="450" type="qcurve" smooth="yes"/>
      <point x="164" y="531"/>
      <point x="278" y="531" type="qcurve" smooth="yes"/>
      <point x="363" y="531"/>
      <point x="419" y="487" type="qcurve" smooth="yes"/>
      <point x="477" y="440"/>
    </contour>
  </outline>
</glyph>
<glyph name="d" format="2">
  <advance width="574"/>
  <unicode hex="0064"/>
  <outline>
    <contour>
      <point x="101" y="258" type="qcurve" smooth="yes"/>
      <point x="101" y="168"/>
      <point x="141" y="108" type="qcurve" smooth="yes"/>
      <point x="186" y="38"/>
      <point x="270" y="38" type="qcurve" smooth="yes"/>
      <point x="363" y="38"/>
      <point x="411" y="108" type="qcurve" smooth="yes"/>
      <point x="451" y="167"/>
      <point x="451" y="258" type="qcurve" smooth="yes"/>
      <point x="451" y="349"/>
      <point x="411" y="408" type="qcurve" smooth="yes"/>
      <point x="363" y="478"/>
      <point x="270" y="478" type="qcurve" smooth="yes"/>
      <point x="186" y="478"/>
      <point x="141" y="408" type="qcurve" smooth="yes"/>
      <point x="101" y="348"/>
    </contour>
    <contour>
      <point x="514" y="714" type="line"/>
      <point x="514" y="0" type="line"/>
      <point x="456" y="0" type="line"/>
      <point x="456" y="98" type="line"/>
      <point x="454" y="98" type="line"/>
      <point x="434" y="49"/>
      <point x="328" y="-15"/>
      <point x="270" y="-15" type="qcurve" smooth="yes"/>
      <point x="158" y="-15"/>
      <point x="95" y="67" type="qcurve" smooth="yes"/>
      <point x="38" y="141"/>
      <point x="38" y="258" type="qcurve" smooth="yes"/>
      <point x="38" y="375"/>
      <point x="95" y="449" type="qcurve" smooth="yes"/>
      <point x="158" y="531"/>
      <point x="270" y="531" type="qcurve" smooth="yes"/>
      <point x="330" y="531"/>
      <point x="429" y="472"/>
      <point x="449" y="418" type="qcurve"/>
      <point x="451" y="418" type="line"/>
      <point x="451" y="714" type="line"/>
    </contour>
  </outline>
</glyph>
<glyph name="e" format="2">
  <advance width="519"/>
  <unicode hex="0065"/>
  <outline>
    <contour>
      <point x="494" y="241" type="qcurve"/>
      <point x="97" y="241" type="line"/>
      <point x="98" y="161"/>
      <point x="137" y="105" type="qcurve" smooth="yes"/>
      <point x="184" y="38"/>
      <point x="267" y="38" type="qcurve" smooth="yes"/>
      <point x="395" y="38"/>
      <point x="429" y="170" type="qcurve"/>
      <point x="492" y="170" type="line"/>
      <point x="449" y="-15"/>
      <point x="267" y="-15" type="qcurve" smooth="yes"/>
      <point x="151" y="-15"/>
      <point x="89" y="66" type="qcurve" smooth="yes"/>
      <point x="34" y="139"/>
      <point x="34" y="258" type="qcurve" smooth="yes"/>
      <point x="34" y="371"/>
      <point x="89" y="446" type="qcurve" smooth="yes"/>
      <point x="152" y="531"/>
      <point x="267" y="531" type="qcurve" smooth="yes"/>
      <point x="384" y="531"/>
      <point x="445" y="440" type="qcurve" smooth="yes"/>
      <point x="498" y="361"/>
    </contour>
    <contour>
      <point x="97" y="294" type="qcurve"/>
      <point x="431" y="294" type="line"/>
      <point x="429" y="370"/>
      <point x="386" y="422" type="qcurve" smooth="yes"/>
      <point x="340" y="478"/>
      <point x="267" y="478" type="qcurve" smooth="yes"/>
      <point x="194" y="478"/>
      <point x="147" y="421" type="qcurve" smooth="yes"/>
      <point x="105" y="371"/>
    </contour>
  </outline>
</glyph>
<glyph name="f" format="2">
  <advance width="259"/>
  <unicode hex="0066"/>
  <outline>
    <contour>
      <point x="259" y="516" type="line"/>
      <point x="259" y="463" type="line"/>
      <point x="157" y="463" type="line"/>
      <point x="157" y="0" type="line"/>
      <point x="94" y="0" type="line"/>
      <point x="94" y="463" type="line"/>
      <point x="6" y="463" type="line"/>
      <point x="6" y="516" type="line"/>
      <point x="94" y="516" type="line"/>
      <point x="94" y="563" type="line" smooth="yes"/>
      <point x="94" y="637"/>
      <point x="119" y="672" type="qcurve" smooth="yes"/>
      <point x="148" y="714"/>
      <point x="219" y="714" type="qcurve" smooth="yes"/>
      <point x="245" y="714"/>
      <point x="272" y="710" type="qcurve"/>
      <point x="272" y="656" type="line"/>
      <point x="244" y="661"/>
      <point x="226" y="661" type="qcurve" smooth="yes"/>
      <point x="179" y="661"/>
      <point x="165" y="632" type="qcurve" smooth="yes"/>
      <point x="157" y="615"/>
      <point x="157" y="561" type="qcurve" smooth="yes"/>
      <point x="157" y="516" type="line"/>
    </contour>
  </outline>
</glyph>
<glyph name="g" format="2">
  <advance width="556"/>
  <unicode hex="0067"/>
  <outline>
    <contour>
      <point x="267" y="59" type="qcurve" smooth="yes"/>
      <point x="345" y="59"/>
      <point x="391" y="122" type="qcurve" smooth="yes"/>
      <point x="433" y="180"/>
      <point x="433" y="264" type="qcurve" smooth="yes"/>
      <point x="433" y="350"/>
      <point x="395" y="409" type="qcurve" smooth="yes"/>
      <point x="350" y="478"/>
      <point x="267" y="478" type="qcurve" smooth="yes"/>
      <point x="183" y="478"/>
      <point x="137" y="411" type="qcurve" smooth="yes"/>
      <point x="97" y="353"/>
      <point x="97" y="264" type="qcurve" smooth="yes"/>
      <point x="97" y="179"/>
      <point x="139" y="123" type="qcurve" smooth="yes"/>
      <point x="185" y="59"/>
    </contour>
    <contour>
      <point x="496" y="516" type="line"/>
      <point x="496" y="42" type="line" smooth="yes"/>
      <point x="496" y="-206"/>
      <point x="267" y="-206" type="qcurve" smooth="yes"/>
      <point x="182" y="-206"/>
      <point x="125" y="-169" type="qcurve" smooth="yes"/>
      <point x="59" y="-127"/>
      <point x="53" y="-50" type="qcurve"/>
      <point x="116" y="-50" type="line"/>
      <point x="135" y="-153"/>
      <point x="267" y="-153" type="qcurve" smooth="yes"/>
      <point x="433" y="-153"/>
      <point x="433" y="42" type="qcurve" smooth="yes"/>
      <point x="433" y="112" type="line"/>
      <point x="431" y="112" type="line"/>
      <point x="409" y="64"/>
      <point x="322" y="6"/>
      <point x="267" y="6" type="qcurve" smooth="yes"/>
      <point x="149" y="6"/>
      <point x="89" y="83" type="qcurve" smooth="yes"/>
      <point x="34" y="153"/>
      <point x="34" y="271" type="qcurve" smooth="yes"/>
      <point x="34" y="382"/>
      <point x="95" y="454" type="qcurve" smooth="yes"/>
      <point x="159" y="531"/>
      <point x="267" y="531" type="qcurve" smooth="yes"/>
      <point x="322" y="531"/>
      <point x="412" y="471"/>
      <point x="431" y="427" type="qcurve"/>
      <point x="433" y="427" type="line"/>
      <point x="433" y="516" type="line"/>
    </contour>
  </outline>
</glyph>
<glyph name="j" format="2">
  <advance width="185"/>
  <unicode hex="006A"/>
  <outline>
    <contour>
      <point x="61" y="-63" type="qcurve" smooth="yes"/>
      <point x="61" y="516" type="line"/>
      <point x="124" y="516" type="line"/>
      <point x="124" y="-48" type="line" smooth="yes"/>
      <point x="124" y="-191"/>
      <point x="14" y="-191" type="qcurve" smooth="yes"/>
      <point x="7" y="-191"/>
      <point x="-23" y="-189"/>
      <point x="-30" y="-189" type="qcurve"/>
      <point x="-30" y="-137" type="line"/>
      <point x="-8" y="-139"/>
      <point x="4" y="-138" type="qcurve" smooth="yes"/>
      <point x="61" y="-138"/>
    </contour>
    <contour>
      <point x="61" y="613" type="line"/>
      <point x="61" y="714" type="line"/>
      <point x="124" y="714" type="line"/>
      <point x="124" y="613" type="line"/>
    </contour>
  </outline>
</glyph>
<glyph name="k" format="2">
  <advance width="500"/>
  <unicode hex="006B"/>
  <outline>
    <contour>
      <point x="60" y="0" type="line"/>
      <point x="60" y="714" type="line"/>
      <point x="123" y="714" type="line"/>
      <point x="123" y="266" type="line"/>
      <point x="409" y="516" type="line"/>
      <point x="493" y="516" type="line"/>
      <point x="273" y="325" type="line"/>
      <point x="508" y="0" type="line"/>
      <point x="429" y="0" type="line"/>
      <point x="225" y="281" type="line"/>
      <point x="123" y="196" type="line"/>
      <point x="123" y="0" type="line"/>
    </contour>
  </outline>
</glyph>
<glyph name="l" format="2">
  <advance width="185"/>
  <unicode hex="006C"/>
  <outline>
    <contour>
      <point x="61" y="0" type="line"/>
      <point x="61" y="714" type="line"/>
      <point x="124" y="714" type="line"/>
      <point x="124" y="0" type="line"/>
    </contour>
  </outline>
</glyph>
<glyph name="m" format="2">
  <advance width="833"/>
  <unicode hex="006D"/>
  <outline>
    <contour>
      <point x="60" y="0" type="line"/>
      <point x="60" y="516" type="line"/>
      <point x="118" y="516" type="line"/>
      <point x="118" y="429" type="line"/>
      <point x="121" y="429" type="line"/>
      <point x="175" y="531"/>
      <point x="290" y="531" type="qcurve" smooth="yes"/>
      <point x="343" y="531"/>
      <point x="424" y="479"/>
      <point x="438" y="430" type="qcurve"/>
      <point x="484" y="531"/>
      <point x="602" y="531" type="qcurve" smooth="yes"/>
      <point x="773" y="531"/>
      <point x="773" y="350" type="qcurve" smooth="yes"/>
      <point x="773" y="0" type="line"/>
      <point x="710" y="0" type="line"/>
      <point x="710" y="347" type="line" smooth="yes"/>
      <point x="710" y="478"/>
      <point x="588" y="478" type="qcurve" smooth="yes"/>
      <point x="448" y="478"/>
      <point x="448" y="292" type="qcurve" smooth="yes"/>
      <point x="448" y="0" type="line"/>
      <point x="385" y="0" type="line"/>
      <point x="385" y="350" type="line" smooth="yes"/>
      <point x="385" y="478"/>
      <point x="277" y="478" type="qcurve" smooth="yes"/>
      <point x="199" y="478"/>
      <point x="159" y="424" type="qcurve" smooth="yes"/>
      <point x="123" y="374"/>
      <point x="123" y="288" type="qcurve" smooth="yes"/>
      <point x="123" y="0" type="line"/>
    </contour>
  </outline>
</glyph>
<glyph name="n" format="2">
  <advance width="537"/>
  <unicode hex="006E"/>
  <outline>
    <contour>
      <point x="59" y="0" type="line"/>
      <point x="59" y="516" type="line"/>
      <point x="122" y="516" type="line"/>
      <point x="122" y="427" type="line"/>
      <point x="124" y="427" type="line"/>
      <point x="141" y="473"/>
      <point x="234" y="531"/>
      <point x="289" y="531" type="qcurve" smooth="yes"/>
      <point x="393" y="531"/>
      <point x="438" y="478" type="qcurve" smooth="yes"/>
      <point x="478" y="430"/>
      <point x="478" y="332" type="qcurve" smooth="yes"/>
      <point x="478" y="0" type="line"/>
      <point x="415" y="0" type="line"/>
      <point x="415" y="322" type="line" smooth="yes"/>
      <point x="415" y="478"/>
      <point x="284" y="478" type="qcurve" smooth="yes"/>
      <point x="210" y="478"/>
      <point x="122" y="378"/>
      <point x="122" y="301" type="qcurve" smooth="yes"/>
      <point x="122" y="0" type="line"/>
    </contour>
  </outline>
</glyph>
<glyph name="o" format="2">
  <advance width="556"/>
  <unicode hex="006F"/>
  <outline>
    <contour>
      <point x="278" y="531" type="qcurve" smooth="yes"/>
      <point x="392" y="531"/>
      <point x="459" y="450" type="qcurve" smooth="yes"/>
      <point x="522" y="374"/>
      <point x="522" y="258" type="qcurve" smooth="yes"/>
      <point x="522" y="142"/>
      <point x="459" y="66" type="qcurve" smooth="yes"/>
      <point x="392" y="-15"/>
      <point x="278" y="-15" type="qcurve" smooth="yes"/>
      <point x="164" y="-15"/>
      <point x="97" y="66" type="qcurve" smooth="yes"/>
      <point x="34" y="142"/>
      <point x="34" y="258" type="qcurve" smooth="yes"/>
      <point x="34" y="374"/>
      <point x="97" y="450" type="qcurve" smooth="yes"/>
      <point x="164" y="531"/>
    </contour>
    <contour>
      <point x="278" y="478" type="qcurve" smooth="yes"/>
      <point x="192" y="478"/>
      <point x="142" y="409" type="qcurve" smooth="yes"/>
      <point x="97" y="347"/>
      <point x="97" y="258" type="qcurve" smooth="yes"/>
      <point x="97" y="169"/>
      <point x="142" y="107" type="qcurve" smooth="yes"/>
      <point x="192" y="38"/>
      <point x="278" y="38" type="qcurve" smooth="yes"/>
      <point x="364" y="38"/>
      <point x="414" y="107" type="qcurve" smooth="yes"/>
      <point x="459" y="169"/>
      <point x="459" y="258" type="qcurve" smooth="yes"/>
      <point x="459" y="347"/>
      <point x="414" y="409" type="qcurve" smooth="yes"/>
      <point x="364" y="478"/>
    </contour>
  </outline>
</glyph>
<glyph name="p" format="2">
  <advance width="574"/>
  <unicode hex="0070"/>
  <outline>
    <contour>
      <point x="473" y="258" type="qcurve" smooth="yes"/>
      <point x="473" y="348"/>
      <point x="434" y="408" type="qcurve" smooth="yes"/>
      <point x="388" y="478"/>
      <point x="304" y="478" type="qcurve" smooth="yes"/>
      <point x="123" y="478"/>
      <point x="123" y="258" type="qcurve" smooth="yes"/>
      <point x="123" y="167"/>
      <point x="163" y="108" type="qcurve" smooth="yes"/>
      <point x="211" y="38"/>
      <point x="304" y="38" type="qcurve" smooth="yes"/>
      <point x="388" y="38"/>
      <point x="434" y="108" type="qcurve" smooth="yes"/>
      <point x="473" y="168"/>
    </contour>
    <contour>
      <point x="60" y="-191" type="line"/>
      <point x="60" y="516" type="line"/>
      <point x="118" y="516" type="line"/>
      <point x="118" y="418" type="line"/>
      <point x="120" y="418" type="line"/>
      <point x="142" y="470"/>
      <point x="241" y="531"/>
      <point x="304" y="531" type="qcurve" smooth="yes"/>
      <point x="416" y="531"/>
      <point x="479" y="449" type="qcurve" smooth="yes"/>
      <point x="536" y="375"/>
      <point x="536" y="258" type="qcurve" smooth="yes"/>
      <point x="536" y="141"/>
      <point x="479" y="67" type="qcurve" smooth="yes"/>
      <point x="416" y="-15"/>
      <point x="304" y="-15" type="qcurve" smooth="yes"/>
      <point x="244" y="-15"/>
      <point x="196" y="14" type="qcurve" smooth="yes"/>
      <point x="145" y="44"/>
      <point x="125" y="98" type="qcurve"/>
      <point x="123" y="98" type="line"/>
      <point x="123" y="-191" type="line"/>
    </contour>
  </outline>
</glyph>
<glyph name="q" format="2">
  <advance width="574"/>
  <unicode hex="0071"/>
  <outline>
    <contour>
      <point x="101" y="258" type="qcurve" smooth="yes"/>
      <point x="101" y="168"/>
      <point x="141" y="108" type="qcurve" smooth="yes"/>
      <point x="186" y="38"/>
      <point x="270" y="38" type="qcurve" smooth="yes"/>
      <point x="363" y="38"/>
      <point x="411" y="108" type="qcurve" smooth="yes"/>
      <point x="451" y="167"/>
      <point x="451" y="258" type="qcurve" smooth="yes"/>
      <point x="451" y="349"/>
      <point x="411" y="408" type="qcurve" smooth="yes"/>
      <point x="363" y="478"/>
      <point x="270" y="478" type="qcurve" smooth="yes"/>
      <point x="186" y="478"/>
      <point x="141" y="408" type="qcurve" smooth="yes"/>
      <point x="101" y="348"/>
    </contour>
    <contour>
      <point x="514" y="516" type="line"/>
      <point x="514" y="-191" type="line"/>
      <point x="451" y="-191" type="line"/>
      <point x="451" y="98" type="line"/>
      <point x="449" y="98" type="line"/>
      <point x="429" y="44"/>
      <point x="330" y="-15"/>
      <point x="270" y="-15" type="qcurve" smooth="yes"/>
      <point x="158" y="-15"/>
      <point x="95" y="67" type="qcurve" smooth="yes"/>
      <point x="38" y="141"/>
      <point x="38" y="258" type="qcurve" smooth="yes"/>
      <point x="38" y="375"/>
      <point x="95" y="449" type="qcurve" smooth="yes"/>
      <point x="158" y="531"/>
      <point x="270" y="531" type="qcurve" smooth="yes"/>
      <point x="328" y="531"/>
      <point x="434" y="467"/>
      <point x="454" y="418" type="qcurve"/>
      <point x="456" y="418" type="line"/>
      <point x="456" y="516" type="line"/>
    </contour>
  </outline>
</glyph>
<glyph name="r" format="2">
  <advance width="315"/>
  <unicode hex="0072"/>
  <outline>
    <contour>
      <point x="60" y="0" type="line"/>
      <point x="60" y="516" type="line"/>
      <point x="118" y="516" type="line"/>
      <point x="118" y="395" type="line"/>
      <point x="120" y="395" type="line"/>
      <point x="144" y="458"/>
      <point x="246" y="526"/>
      <point x="315" y="523" type="qcurve"/>
      <point x="315" y="460" type="line"/>
      <point x="231" y="464"/>
      <point x="123" y="357"/>
      <point x="123" y="275" type="qcurve" smooth="yes"/>
      <point x="123" y="0" type="line"/>
    </contour>
  </outline>
</glyph>
<glyph name="s" format="2">
  <advance width="481"/>
  <unicode hex="0073"/>
  <outline>
    <contour>
      <point x="432" y="365" type="qcurve"/>
      <point x="369" y="365" type="line"/>
      <point x="367" y="421"/>
      <point x="327" y="451" type="qcurve" smooth="yes"/>
      <point x="291" y="478"/>
      <point x="234" y="478" type="qcurve" smooth="yes"/>
      <point x="185" y="478"/>
      <point x="152" y="459" type="qcurve" smooth="yes"/>
      <point x="112" y="435"/>
      <point x="112" y="389" type="qcurve" smooth="yes"/>
      <point x="112" y="326"/>
      <point x="219" y="302" type="qcurve" smooth="yes"/>
      <point x="303" y="283" type="line" smooth="yes"/>
      <point x="450" y="250"/>
      <point x="450" y="140" type="qcurve" smooth="yes"/>
      <point x="450" y="63"/>
      <point x="383" y="21" type="qcurve" smooth="yes"/>
      <point x="325" y="-15"/>
      <point x="243" y="-15" type="qcurve" smooth="yes"/>
      <point x="45" y="-15"/>
      <point x="31" y="167" type="qcurve"/>
      <point x="94" y="167" type="line"/>
      <point x="98" y="105"/>
      <point x="181" y="38"/>
      <point x="246" y="38" type="qcurve" smooth="yes"/>
      <point x="299" y="38"/>
      <point x="339" y="60" type="qcurve" smooth="yes"/>
      <point x="387" y="87"/>
      <point x="387" y="136" type="qcurve" smooth="yes"/>
      <point x="387" y="205"/>
      <point x="274" y="230" type="qcurve" smooth="yes"/>
      <point x="193" y="248" type="line" smooth="yes"/>
      <point x="123" y="264"/>
      <point x="90" y="291" type="qcurve" smooth="yes"/>
      <point x="49" y="325"/>
      <point x="49" y="386" type="qcurve" smooth="yes"/>
      <point x="49" y="459"/>
      <point x="112" y="498" type="qcurve" smooth="yes"/>
      <point x="165" y="531"/>
      <point x="243" y="531" type="qcurve" smooth="yes"/>
      <point x="324" y="531"/>
      <point x="375" y="490" type="qcurve" smooth="yes"/>
      <point x="429" y="446"/>
    </contour>
  </outline>
</glyph>
<glyph name="t" format="2">
  <advance width="296"/>
  <unicode hex="0074"/>
  <outline>
    <contour>
      <point x="160" y="671" type="line"/>
      <point x="160" y="516" type="line"/>
      <point x="265" y="516" type="line"/>
      <point x="265" y="463" type="line"/>
      <point x="160" y="463" type="line"/>
      <point x="160" y="115" type="line" smooth="yes"/>
      <point x="160" y="81"/>
      <point x="168" y="68" type="qcurve" smooth="yes"/>
      <point x="179" y="49"/>
      <point x="211" y="47" type="qcurve" smooth="yes"/>
      <point x="230" y="46"/>
      <point x="265" y="50" type="qcurve"/>
      <point x="265" y="-4" type="line"/>
      <point x="256" y="-4"/>
      <point x="219" y="-6"/>
      <point x="209" y="-6" type="qcurve" smooth="yes"/>
      <point x="146" y="-6"/>
      <point x="97" y="44"/>
      <point x="97" y="110" type="qcurve" smooth="yes"/>
      <point x="97" y="463" type="line"/>
      <point x="7" y="463" type="line"/>
      <point x="7" y="516" type="line"/>
      <point x="97" y="516" type="line"/>
      <point x="97" y="671" type="line"/>
    </contour>
  </outline>
</glyph>
<glyph name="u" format="2">
  <advance width="537"/>
  <unicode hex="0075"/>
  <outline>
    <contour>
      <point x="478" y="516" type="line"/>
      <point x="478" y="0" type="line"/>
      <point x="420" y="0" type="line"/>
      <point x="420" y="93" type="line"/>
      <point x="418" y="93" type="line"/>
      <point x="394" y="42"/>
      <point x="298" y="-15"/>
      <point x="240" y="-15" type="qcurve" smooth="yes"/>
      <point x="59" y="-15"/>
      <point x="59" y="181" type="qcurve" smooth="yes"/>
      <point x="59" y="516" type="line"/>
      <point x="122" y="516" type="line"/>
      <point x="122" y="180" type="line" smooth="yes"/>
      <point x="122" y="38"/>
      <point x="260" y="38" type="qcurve" smooth="yes"/>
      <point x="336" y="38"/>
      <point x="378" y="102" type="qcurve" smooth="yes"/>
      <point x="415" y="159"/>
      <point x="415" y="245" type="qcurve" smooth="yes"/>
      <point x="415" y="516" type="line"/>
    </contour>
  </outline>
</glyph>
<glyph name="v" format="2">
  <advance width="463"/>
  <unicode hex="0076"/>
  <outline>
    <contour>
      <point x="201" y="0" type="line"/>
      <point x="2" y="516" type="line"/>
      <point x="72" y="516" type="line"/>
      <point x="234" y="63" type="line"/>
      <point x="236" y="63" type="line"/>
      <point x="396" y="516" type="line"/>
      <point x="461" y="516" type="line"/>
      <point x="268" y="0" type="line"/>
    </contour>
  </outline>
</glyph>
<glyph name="w" format="2">
  <advance width="741"/>
  <unicode hex="0077"/>
  <outline>
    <contour>
      <point x="174" y="0" type="line"/>
      <point x="8" y="516" type="line"/>
      <point x="75" y="516" type="line"/>
      <point x="207" y="74" type="line"/>
      <point x="209" y="74" type="line"/>
      <point x="335" y="516" type="line"/>
      <point x="406" y="516" type="line"/>
      <point x="532" y="74" type="line"/>
      <point x="534" y="74" type="line"/>
      <point x="666" y="516" type="line"/>
      <point x="733" y="516" type="line"/>
      <point x="567" y="0" type="line"/>
      <point x="498" y="0" type="line"/>
      <point x="371" y="434" type="line"/>
      <point x="369" y="434" type="line"/>
      <point x="243" y="0" type="line"/>
    </contour>
  </outline>
</glyph>
<glyph name="x" format="2">
  <advance width="481"/>
  <unicode hex="0078"/>
  <outline>
    <contour>
      <point x="1" y="0" type="line"/>
      <point x="201" y="268" type="line"/>
      <point x="16" y="516" type="line"/>
      <point x="95" y="516" type="line"/>
      <point x="242" y="320" type="line"/>
      <point x="386" y="516" type="line"/>
      <point x="465" y="516" type="line"/>
      <point x="279" y="269" type="line"/>
      <point x="480" y="0" type="line"/>
      <point x="400" y="0" type="line"/>
      <point x="238" y="217" type="line"/>
      <point x="79" y="0" type="line"/>
    </contour>
  </outline>
</glyph>
<glyph name="y" format="2">
  <advance width="463"/>
  <unicode hex="0079"/>
  <outline>
    <contour>
      <point x="208" y="2" type="line"/>
      <point x="2" y="516" type="line"/>
      <point x="69" y="516" type="line"/>
      <point x="239" y="76" type="line"/>
      <point x="398" y="516" type="line"/>
      <point x="461" y="516" type="line"/>
      <point x="237" y="-79" type="line" smooth="yes"/>
      <point x="212" y="-147"/>
      <point x="186" y="-168" type="qcurve" smooth="yes"/>
      <point x="159" y="-192"/>
      <point x="101" y="-191" type="qcurve" smooth="yes"/>
      <point x="65" y="-191"/>
      <point x="53" y="-186" type="qcurve"/>
      <point x="53" y="-133" type="line"/>
      <point x="78" y="-138"/>
      <point x="96" y="-138" type="qcurve" smooth="yes"/>
      <point x="134" y="-138"/>
      <point x="155" y="-116" type="qcurve" smooth="yes"/>
      <point x="170" y="-100"/>
      <point x="186" y="-57" type="qcurve" smooth="yes"/>
    </contour>
  </outline>
</glyph>
<glyph name="z" format="2">
  <advance width="463"/>
  <unicode hex="007A"/>
  <outline>
    <contour>
      <point x="432" y="471" type="line"/>
      <point x="91" y="53" type="line"/>
      <point x="446" y="53" type="line"/>
      <point x="446" y="0" type="line"/>
      <point x="15" y="0" type="line"/>
      <point x="15" y="51" type="line"/>
      <point x="352" y="463" type="line"/>
      <point x="38" y="463" type="line"/>
      <point x="38" y="516" type="line"/>
      <point x="432" y="516" type="line"/>
    </contour>
  </outline>
</glyph>
<glyph name="braceleft" format="2">
  <advance width="333"/>
  <unicode hex="007B"/>
  <outline>
    <contour>
      <point x="293" y="-191" type="line"/>
      <point x="243" y="-191" type="line" smooth="yes"/>
      <point x="201" y="-191"/>
      <point x="155" y="-124"/>
      <point x="155" y="-66" type="qcurve" smooth="yes"/>
      <point x="155" y="82" type="line" smooth="yes"/>
      <point x="155" y="242"/>
      <point x="83" y="242" type="qcurve"/>
      <point x="83" y="295" type="line"/>
      <point x="155" y="295"/>
      <point x="155" y="455" type="qcurve" smooth="yes"/>
      <point x="155" y="604" type="line" smooth="yes"/>
      <point x="155" y="662"/>
      <point x="201" y="729"/>
      <point x="243" y="729" type="qcurve" smooth="yes"/>
      <point x="293" y="729" type="line"/>
      <point x="293" y="676" type="line"/>
      <point x="273" y="676" type="line" smooth="yes"/>
      <point x="218" y="676"/>
      <point x="218" y="573" type="qcurve" smooth="yes"/>
      <point x="218" y="432" type="line" smooth="yes"/>
      <point x="218" y="362"/>
      <point x="188" y="313" type="qcurve" smooth="yes"/>
      <point x="169" y="281"/>
      <point x="148" y="270" type="qcurve"/>
      <point x="148" y="268" type="line"/>
      <point x="169" y="257"/>
      <point x="188" y="225" type="qcurve" smooth="yes"/>
      <point x="218" y="176"/>
      <point x="218" y="106" type="qcurve" smooth="yes"/>
      <point x="218" y="-35" type="line" smooth="yes"/>
      <point x="218" y="-138"/>
      <point x="273" y="-138" type="qcurve" smooth="yes"/>
      <point x="293" y="-138" type="line"/>
    </contour>
  </outline>
</glyph>
<glyph name="bar" format="2">
  <advance width="222"/>
  <unicode hex="007C"/>
  <outline>
    <contour>
      <point x="85" y="-15" type="line"/>
      <point x="85" y="729" type="line"/>
      <point x="138" y="729" type="line"/>
      <point x="138" y="-15" type="line"/>
    </contour>
  </outline>
</glyph>
<glyph name="braceright" format="2">
  <advance width="333"/>
  <unicode hex="007D"/>
  <outline>
    <contour>
      <point x="40" y="729" type="line"/>
      <point x="90" y="729" type="line" smooth="yes"/>
      <point x="132" y="729"/>
      <point x="178" y="662"/>
      <point x="178" y="604" type="qcurve" smooth="yes"/>
      <point x="178" y="456" type="line" smooth="yes"/>
      <point x="178" y="296"/>
      <point x="250" y="296" type="qcurve"/>
      <point x="250" y="243" type="line"/>
      <point x="178" y="243"/>
      <point x="178" y="83" type="qcurve" smooth="yes"/>
      <point x="178" y="-66" type="line" smooth="yes"/>
      <point x="178" y="-124"/>
      <point x="132" y="-191"/>
      <point x="90" y="-191" type="qcurve" smooth="yes"/>
      <point x="40" y="-191" type="line"/>
      <point x="40" y="-138" type="line"/>
      <point x="60" y="-138" type="line" smooth="yes"/>
      <point x="115" y="-138"/>
      <point x="115" y="-35" type="qcurve" smooth="yes"/>
      <point x="115" y="106" type="line" smooth="yes"/>
      <point x="115" y="176"/>
      <point x="145" y="225" type="qcurve" smooth="yes"/>
      <point x="164" y="257"/>
      <point x="185" y="268" type="qcurve"/>
      <point x="185" y="270" type="line"/>
      <point x="164" y="281"/>
      <point x="145" y="313" type="qcurve" smooth="yes"/>
      <point x="115" y="362"/>
      <point x="115" y="432" type="qcurve" smooth="yes"/>
      <point x="115" y="573" type="line" smooth="yes"/>
      <point x="115" y="676"/>
      <point x="60" y="676" type="qcurve" smooth="yes"/>
      <point x="40" y="676" type="line"/>
    </contour>
  </outline>
</glyph>
<glyph name="asciitilde" format="2">
  <advance width="600"/>
  <unicode hex="007E"/>
  <outline>
    <contour>
      <point x="495" y="315" type="qcurve"/>
      <point x="495" y="315" type="line"/>
      <point x="531" y="279" type="line"/>
      <point x="501" y="237"/>
      <point x="481" y="220" type="qcurve" smooth="yes"/>
      <point x="447" y="193"/>
      <point x="406" y="193" type="qcurve" smooth="yes"/>
      <point x="366" y="193"/>
      <point x="228" y="258"/>
      <point x="189" y="258" type="qcurve" smooth="yes"/>
      <point x="137" y="258"/>
      <point x="105" y="189" type="qcurve"/>
      <point x="69" y="225" type="line"/>
      <point x="114" y="311"/>
      <point x="194" y="311" type="qcurve" smooth="yes"/>
      <point x="236" y="311"/>
      <point x="382" y="246"/>
      <point x="407" y="246" type="qcurve" smooth="yes"/>
      <point x="450" y="246"/>
    </contour>
  </outline>
</glyph>
<glyph name="exclamdown" format="2">
  <advance width="241"/>
  <unicode hex="00A1"/>
  <outline>
    <contour>
      <point x="140" y="338" type="line"/>
      <point x="155" y="15" type="line"/>
      <point x="155" y="-191" type="line"/>
      <point x="87" y="-191" type="line"/>
      <point x="87" y="15" type="line"/>
      <point x="102" y="338" type="line"/>
    </contour>
    <contour>
      <point x="79" y="516" type="line"/>
      <point x="163" y="516" type="line"/>
      <point x="163" y="410" type="line"/>
      <point x="79" y="410" type="line"/>
    </contour>
  </outline>
</glyph>
<glyph name="cent" format="2">
  <advance width="556"/>
  <unicode hex="00A2"/>
  <outline>
    <contour>
      <point x="270" y="39" type="qcurve"/>
      <point x="270" y="476" type="line"/>
      <point x="197" y="465"/>
      <point x="155" y="399" type="qcurve" smooth="yes"/>
      <point x="117" y="340"/>
      <point x="117" y="258" type="qcurve" smooth="yes"/>
      <point x="117" y="177"/>
      <point x="155" y="117" type="qcurve" smooth="yes"/>
      <point x="197" y="50"/>
    </contour>
    <contour>
      <point x="507" y="354" type="qcurve"/>
      <point x="444" y="354" type="line"/>
      <point x="418" y="474"/>
      <point x="309" y="478" type="qcurve"/>
      <point x="309" y="38" type="line"/>
      <point x="364" y="41"/>
      <point x="442" y="124"/>
      <point x="448" y="185" type="qcurve"/>
      <point x="511" y="185" type="line"/>
      <point x="499" y="95"/>
      <point x="391" y="-12"/>
      <point x="309" y="-15" type="qcurve"/>
      <point x="309" y="-116" type="line"/>
      <point x="270" y="-116" type="line"/>
      <point x="270" y="-14" type="line"/>
      <point x="168" y="-4"/>
      <point x="110" y="75" type="qcurve" smooth="yes"/>
      <point x="54" y="149"/>
      <point x="54" y="258" type="qcurve" smooth="yes"/>
      <point x="54" y="367"/>
      <point x="110" y="441" type="qcurve" smooth="yes"/>
      <point x="169" y="520"/>
      <point x="270" y="529" type="qcurve"/>
      <point x="270" y="618" type="line"/>
      <point x="309" y="618" type="line"/>
      <point x="309" y="531" type="line"/>
      <point x="389" y="529"/>
      <point x="497" y="437"/>
    </contour>
  </outline>
</glyph>
<glyph name="sterling" format="2">
  <advance width="556"/>
  <unicode hex="00A3"/>
  <outline>
    <contour>
      <point x="46" y="330" type="line"/>
      <point x="46" y="362" type="line"/>
      <point x="109" y="362" type="line"/>
      <point x="54" y="452"/>
      <point x="54" y="523" type="qcurve" smooth="yes"/>
      <point x="54" y="624"/>
      <point x="125" y="680" type="qcurve" smooth="yes"/>
      <point x="187" y="729"/>
      <point x="282" y="729" type="qcurve" smooth="yes"/>
      <point x="392" y="729"/>
      <point x="516" y="602"/>
      <point x="514" y="492" type="qcurve"/>
      <point x="451" y="492" type="line"/>
      <point x="451" y="575"/>
      <point x="409" y="624" type="qcurve" smooth="yes"/>
      <point x="364" y="676"/>
      <point x="282" y="676" type="qcurve" smooth="yes"/>
      <point x="213" y="676"/>
      <point x="168" y="638" type="qcurve" smooth="yes"/>
      <point x="117" y="595"/>
      <point x="117" y="519" type="qcurve" smooth="yes"/>
      <point x="117" y="477"/>
      <point x="157" y="399"/>
      <point x="176" y="362" type="qcurve"/>
      <point x="336" y="362" type="line"/>
      <point x="336" y="330" type="line"/>
      <point x="194" y="330" type="line"/>
      <point x="218" y="292"/>
      <point x="218" y="233" type="qcurve" smooth="yes"/>
      <point x="218" y="139"/>
      <point x="108" y="51" type="qcurve"/>
      <point x="110" y="49" type="line"/>
      <point x="168" y="79"/>
      <point x="207" y="79" type="qcurve" smooth="yes"/>
      <point x="248" y="79"/>
      <point x="365" y="38"/>
      <point x="395" y="38" type="qcurve" smooth="yes"/>
      <point x="459" y="38"/>
      <point x="510" y="94" type="qcurve"/>
      <point x="542" y="46" type="line"/>
      <point x="473" y="-15"/>
      <point x="396" y="-15" type="qcurve" smooth="yes"/>
      <point x="345" y="-15"/>
      <point x="290" y="4" type="qcurve" smooth="yes"/>
      <point x="226" y="26"/>
      <point x="189" y="26" type="qcurve" smooth="yes"/>
      <point x="156" y="26"/>
      <point x="130" y="14" type="qcurve" smooth="yes"/>
      <point x="124" y="11"/>
      <point x="79" y="-15" type="qcurve"/>
      <point x="43" y="39" type="line"/>
      <point x="155" y="127"/>
      <point x="155" y="225" type="qcurve" smooth="yes"/>
      <point x="155" y="283"/>
      <point x="127" y="330" type="qcurve"/>
    </contour>
  </outline>
</glyph>
<glyph name="currency" format="2">
  <advance width="556"/>
  <unicode hex="00A4"/>
  <outline>
    <contour>
      <point x="29" y="136" type="line"/>
      <point x="86" y="193" type="line"/>
      <point x="31" y="259"/>
      <point x="31" y="346" type="qcurve" smooth="yes"/>
      <point x="31" y="432"/>
      <point x="85" y="500" type="qcurve"/>
      <point x="29" y="556" type="line"/>
      <point x="67" y="594" type="line"/>
      <point x="123" y="538" type="line"/>
      <point x="191" y="594"/>
      <point x="279" y="594" type="qcurve" smooth="yes"/>
      <point x="366" y="594"/>
      <point x="432" y="539" type="qcurve"/>
      <point x="487" y="594" type="line"/>
      <point x="525" y="556" type="line"/>
      <point x="471" y="502" type="line"/>
      <point x="527" y="435"/>
      <point x="527" y="346" type="qcurve" smooth="yes"/>
      <point x="527" y="257"/>
      <point x="471" y="190" type="qcurve"/>
      <point x="525" y="136" type="line"/>
      <point x="487" y="98" type="line"/>
      <point x="432" y="153" type="line"/>
      <point x="368" y="98"/>
      <point x="279" y="98" type="qcurve" smooth="yes"/>
      <point x="190" y="98"/>
      <point x="123" y="154" type="qcurve"/>
      <point x="67" y="98" type="line"/>
    </contour>
    <contour>
      <point x="94" y="346" type="qcurve" smooth="yes"/>
      <point x="94" y="266"/>
      <point x="202" y="156"/>
      <point x="279" y="156" type="qcurve" smooth="yes"/>
      <point x="356" y="156"/>
      <point x="464" y="266"/>
      <point x="464" y="346" type="qcurve" smooth="yes"/>
      <point x="464" y="426"/>
      <point x="356" y="536"/>
      <point x="279" y="536" type="qcurve" smooth="yes"/>
      <point x="202" y="536"/>
      <point x="94" y="426"/>
    </contour>
  </outline>
</glyph>
<glyph name="yen" format="2">
  <advance width="556"/>
  <unicode hex="00A5"/>
  <outline>
    <contour>
      <point x="110" y="304" type="line"/>
      <point x="110" y="349" type="line"/>
      <point x="216" y="349" type="line"/>
      <point x="6" y="714" type="line"/>
      <point x="78" y="714" type="line"/>
      <point x="277" y="349" type="line"/>
      <point x="478" y="714" type="line"/>
      <point x="547" y="714" type="line"/>
      <point x="336" y="349" type="line"/>
      <point x="445" y="349" type="line"/>
      <point x="445" y="304" type="line"/>
      <point x="314" y="304" type="line"/>
      <point x="308" y="294" type="line"/>
      <point x="308" y="221" type="line"/>
      <point x="445" y="221" type="line"/>
      <point x="445" y="176" type="line"/>
      <point x="308" y="176" type="line"/>
      <point x="308" y="0" type="line"/>
      <point x="245" y="0" type="line"/>
      <point x="245" y="176" type="line"/>
      <point x="110" y="176" type="line"/>
      <point x="110" y="221" type="line"/>
      <point x="245" y="221" type="line"/>
      <point x="245" y="294" type="line"/>
      <point x="239" y="304" type="line"/>
    </contour>
  </outline>
</glyph>
<glyph name="brokenbar" format="2">
  <advance width="222"/>
  <unicode hex="00A6"/>
  <outline>
    <contour>
      <point x="85" y="-15" type="line"/>
      <point x="85" y="260" type="line"/>
      <point x="138" y="260" type="line"/>
      <point x="138" y="-15" type="line"/>
    </contour>
    <contour>
      <point x="85" y="454" type="line"/>
      <point x="85" y="729" type="line"/>
      <point x="138" y="729" type="line"/>
      <point x="138" y="454" type="line"/>
    </contour>
  </outline>
</glyph>
<glyph name="section" format="2">
  <advance width="556"/>
  <unicode hex="00A7"/>
  <outline>
    <contour>
      <point x="448" y="230" type="qcurve" smooth="yes"/>
      <point x="448" y="296"/>
      <point x="351" y="356" type="qcurve" smooth="yes"/>
      <point x="270" y="402"/>
      <point x="190" y="447" type="qcurve"/>
      <point x="108" y="413"/>
      <point x="108" y="339" type="qcurve" smooth="yes"/>
      <point x="108" y="276"/>
      <point x="204" y="215" type="qcurve" smooth="yes"/>
      <point x="284" y="168"/>
      <point x="364" y="122" type="qcurve"/>
      <point x="448" y="157"/>
    </contour>
    <contour>
      <point x="511" y="231" type="qcurve" smooth="yes"/>
      <point x="511" y="184"/>
      <point x="449" y="109"/>
      <point x="402" y="91" type="qcurve"/>
      <point x="452" y="47"/>
      <point x="452" y="-18" type="qcurve" smooth="yes"/>
      <point x="452" y="-83"/>
      <point x="399" y="-124" type="qcurve" smooth="yes"/>
      <point x="350" y="-161"/>
      <point x="283" y="-161" type="qcurve" smooth="yes"/>
      <point x="198" y="-161"/>
      <point x="98" y="-68"/>
      <point x="98" y="16" type="qcurve"/>
      <point x="161" y="16" type="line"/>
      <point x="159" y="-36"/>
      <point x="225" y="-108"/>
      <point x="277" y="-108" type="qcurve" smooth="yes"/>
      <point x="324" y="-108"/>
      <point x="354" y="-87" type="qcurve" smooth="yes"/>
      <point x="389" y="-63"/>
      <point x="389" y="-19" type="qcurve" smooth="yes"/>
      <point x="389" y="43"/>
      <point x="300" y="97" type="qcurve" smooth="yes"/>
      <point x="217" y="144"/>
      <point x="134" y="191" type="qcurve"/>
      <point x="45" y="254"/>
      <point x="45" y="337" type="qcurve" smooth="yes"/>
      <point x="45" y="384"/>
      <point x="77" y="423" type="qcurve" smooth="yes"/>
      <point x="107" y="459"/>
      <point x="154" y="477" type="qcurve"/>
      <point x="104" y="521"/>
      <point x="104" y="586" type="qcurve" smooth="yes"/>
      <point x="104" y="651"/>
      <point x="157" y="692" type="qcurve" smooth="yes"/>
      <point x="206" y="729"/>
      <point x="273" y="729" type="qcurve" smooth="yes"/>
      <point x="358" y="729"/>
      <point x="458" y="636"/>
      <point x="458" y="552" type="qcurve"/>
      <point x="395" y="552" type="line"/>
      <point x="397" y="604"/>
      <point x="331" y="676"/>
      <point x="279" y="676" type="qcurve" smooth="yes"/>
      <point x="232" y="676"/>
      <point x="202" y="655" type="qcurve" smooth="yes"/>
      <point x="167" y="631"/>
      <point x="167" y="587" type="qcurve" smooth="yes"/>
      <point x="167" y="525"/>
      <point x="256" y="471" type="qcurve" smooth="yes"/>
      <point x="339" y="424"/>
      <point x="422" y="377" type="qcurve"/>
      <point x="511" y="314"/>
    </contour>
  </outline>
</glyph>
<glyph name="dieresis" format="2">
  <advance width="185"/>
  <unicode hex="00A8"/>
  <outline>
    <contour>
      <point x="215" y="605" type="line"/>
      <point x="147" y="605" type="line"/>
      <point x="147" y="706" type="line"/>
      <point x="215" y="706" type="line"/>
    </contour>
    <contour>
      <point x="38" y="605" type="line"/>
      <point x="-30" y="605" type="line"/>
      <point x="-30" y="706" type="line"/>
      <point x="38" y="706" type="line"/>
    </contour>
  </outline>
</glyph>
<glyph name="copyright" format="2">
  <advance width="800"/>
  <unicode hex="00A9"/>
  <outline>
    <contour>
      <point x="772" y="357" type="qcurve" smooth="yes"/>
      <point x="772" y="200"/>
      <point x="557" y="-15"/>
      <point x="400" y="-15" type="qcurve" smooth="yes"/>
      <point x="243" y="-15"/>
      <point x="28" y="200"/>
      <point x="28" y="357" type="qcurve" smooth="yes"/>
      <point x="28" y="514"/>
      <point x="243" y="729"/>
      <point x="400" y="729" type="qcurve" smooth="yes"/>
      <point x="557" y="729"/>
      <point x="772" y="514"/>
    </contour>
    <contour>
      <point x="714" y="357" type="qcurve" smooth="yes"/>
      <point x="714" y="491"/>
      <point x="534" y="676"/>
      <point x="400" y="676" type="qcurve" smooth="yes"/>
      <point x="266" y="676"/>
      <point x="86" y="491"/>
      <point x="86" y="357" type="qcurve" smooth="yes"/>
      <point x="86" y="223"/>
      <point x="266" y="38"/>
      <point x="400" y="38" type="qcurve" smooth="yes"/>
      <point x="534" y="38"/>
      <point x="714" y="223"/>
    </contour>
    <contour>
      <point x="594" y="435" type="qcurve"/>
      <point x="543" y="435" type="line"/>
      <point x="534" y="481"/>
      <point x="463" y="541"/>
      <point x="410" y="541" type="qcurve" smooth="yes"/>
      <point x="332" y="541"/>
      <point x="245" y="438"/>
      <point x="245" y="357" type="qcurve" smooth="yes"/>
      <point x="245" y="276"/>
      <point x="287" y="226" type="qcurve" smooth="yes"/>
      <point x="332" y="173"/>
      <point x="410" y="173" type="qcurve" smooth="yes"/>
      <point x="463" y="173"/>
      <point x="499" y="204" type="qcurve" smooth="yes"/>
      <point x="534" y="232"/>
      <point x="543" y="279" type="qcurve"/>
      <point x="594" y="279" type="line"/>
      <point x="585" y="208"/>
      <point x="482" y="128"/>
      <point x="409" y="128" type="qcurve" smooth="yes"/>
      <point x="309" y="128"/>
      <point x="192" y="256"/>
      <point x="192" y="357" type="qcurve" smooth="yes"/>
      <point x="192" y="458"/>
      <point x="309" y="586"/>
      <point x="409" y="586" type="qcurve" smooth="yes"/>
      <point x="482" y="586"/>
      <point x="585" y="506"/>
    </contour>
  </outline>
</glyph>
<glyph name="ordfeminine" format="2">
  <advance width="311"/>
  <unicode hex="00AA"/>
  <outline>
    <contour>
      <point x="228" y="502" type="qcurve" smooth="yes"/>
      <point x="228" y="549" type="line"/>
      <point x="226" y="549" type="line"/>
      <point x="222" y="540"/>
      <point x="192" y="535" type="qcurve" smooth="yes"/>
      <point x="95" y="519"/>
      <point x="87" y="517" type="qcurve" smooth="yes"/>
      <point x="42" y="503"/>
      <point x="42" y="466" type="qcurve" smooth="yes"/>
      <point x="42" y="441"/>
      <point x="86" y="407"/>
      <point x="111" y="407" type="qcurve" smooth="yes"/>
      <point x="159" y="407"/>
      <point x="228" y="459"/>
    </contour>
    <contour>
      <point x="54" y="597" type="qcurve"/>
      <point x="7" y="597" type="line"/>
      <point x="13" y="706"/>
      <point x="147" y="706" type="qcurve" smooth="yes"/>
      <point x="275" y="706"/>
      <point x="275" y="606" type="qcurve" smooth="yes"/>
      <point x="275" y="434" type="line" smooth="yes"/>
      <point x="275" y="411"/>
      <point x="300" y="411" type="qcurve" smooth="yes"/>
      <point x="307" y="411"/>
      <point x="313" y="414" type="qcurve"/>
      <point x="313" y="380" type="line"/>
      <point x="292" y="377"/>
      <point x="286" y="377" type="qcurve" smooth="yes"/>
      <point x="257" y="377"/>
      <point x="246" y="392" type="qcurve" smooth="yes"/>
      <point x="238" y="404"/>
      <point x="238" y="433" type="qcurve"/>
      <point x="236" y="433" type="line"/>
      <point x="195" y="368"/>
      <point x="113" y="368" type="qcurve" smooth="yes"/>
      <point x="-5" y="368"/>
      <point x="-5" y="464" type="qcurve" smooth="yes"/>
      <point x="-5" y="525"/>
      <point x="52" y="548" type="qcurve" smooth="yes"/>
      <point x="80" y="559"/>
      <point x="175" y="569" type="qcurve" smooth="yes"/>
      <point x="228" y="575"/>
      <point x="228" y="600" type="qcurve" smooth="yes"/>
      <point x="228" y="667"/>
      <point x="140" y="667" type="qcurve" smooth="yes"/>
      <point x="55" y="667"/>
    </contour>
  </outline>
</glyph>
<glyph name="guillemotleft" format="2">
  <advance width="426"/>
  <unicode hex="00AB"/>
  <outline>
    <contour>
      <point x="354" y="119" type="line"/>
      <point x="221" y="244" type="line"/>
      <point x="221" y="306" type="line"/>
      <point x="354" y="431" type="line"/>
      <point x="354" y="364" type="line"/>
      <point x="260" y="275" type="line"/>
      <point x="354" y="186" type="line"/>
    </contour>
    <contour>
      <point x="193" y="119" type="line"/>
      <point x="60" y="244" type="line"/>
      <point x="60" y="306" type="line"/>
      <point x="193" y="431" type="line"/>
      <point x="193" y="364" type="line"/>
      <point x="99" y="275" type="line"/>
      <point x="193" y="186" type="line"/>
    </contour>
  </outline>
</glyph>
<glyph name="logicalnot" format="2">
  <advance width="600"/>
  <unicode hex="00AC"/>
  <outline>
    <contour>
      <point x="499" y="111" type="line"/>
      <point x="499" y="325" type="line"/>
      <point x="49" y="325" type="line"/>
      <point x="49" y="378" type="line"/>
      <point x="552" y="378" type="line"/>
      <point x="552" y="111" type="line"/>
    </contour>
  </outline>
</glyph>
<glyph name="minus" format="2">
  <advance width="600"/>
  <unicode hex="00AD"/>
  <unicode hex="2212"/>
  <outline>
    <contour>
      <point x="552" y="278" type="line"/>
      <point x="552" y="225" type="line"/>
      <point x="49" y="225" type="line"/>
      <point x="49" y="278" type="line"/>
    </contour>
  </outline>
</glyph>
<glyph name="registered" format="2">
  <advance width="800"/>
  <unicode hex="00AE"/>
  <outline>
    <contour>
      <point x="400" y="729" type="qcurve" smooth="yes"/>
      <point x="557" y="729"/>
      <point x="772" y="514"/>
      <point x="772" y="357" type="qcurve" smooth="yes"/>
      <point x="772" y="200"/>
      <point x="557" y="-15"/>
      <point x="400" y="-15" type="qcurve" smooth="yes"/>
      <point x="243" y="-15"/>
      <point x="28" y="200"/>
      <point x="28" y="357" type="qcurve" smooth="yes"/>
      <point x="28" y="514"/>
      <point x="243" y="729"/>
    </contour>
    <contour>
      <point x="400" y="676" type="qcurve" smooth="yes"/>
      <point x="266" y="676"/>
      <point x="86" y="491"/>
      <point x="86" y="357" type="qcurve" smooth="yes"/>
      <point x="86" y="223"/>
      <point x="266" y="38"/>
      <point x="400" y="38" type="qcurve" smooth="yes"/>
      <point x="534" y="38"/>
      <point x="714" y="223"/>
      <point x="714" y="357" type="qcurve" smooth="yes"/>
      <point x="714" y="491"/>
      <point x="534" y="676"/>
    </contour>
    <contour>
      <point x="318" y="333" type="line"/>
      <point x="318" y="142" type="line"/>
      <point x="265" y="142" type="line"/>
      <point x="265" y="572" type="line"/>
      <point x="430" y="572" type="line" smooth="yes"/>
      <point x="570" y="572"/>
      <point x="570" y="453" type="qcurve" smooth="yes"/>
      <point x="570" y="352"/>
      <point x="462" y="333" type="qcurve"/>
      <point x="590" y="142" type="line"/>
      <point x="528" y="142" type="line"/>
      <point x="407" y="333" type="line"/>
    </contour>
    <contour>
      <point x="318" y="378" type="line"/>
      <point x="388" y="378" type="line" smooth="yes"/>
      <point x="451" y="378"/>
      <point x="477" y="388" type="qcurve" smooth="yes"/>
      <point x="517" y="404"/>
      <point x="517" y="453" type="qcurve" smooth="yes"/>
      <point x="517" y="527"/>
      <point x="415" y="527" type="qcurve" smooth="yes"/>
      <point x="318" y="527" type="line"/>
    </contour>
  </outline>
</glyph>
<glyph name="macron" format="2">
  <advance width="185"/>
  <unicode hex="00AF"/>
  <unicode hex="02C9"/>
  <outline>
    <contour>
      <point x="257" y="634" type="line"/>
      <point x="-72" y="634" type="line"/>
      <point x="-72" y="679" type="line"/>
      <point x="257" y="679" type="line"/>
    </contour>
  </outline>
</glyph>
<glyph name="degree" format="2">
  <advance width="400"/>
  <unicode hex="00B0"/>
  <outline>
    <contour>
      <point x="56" y="562" type="qcurve" smooth="yes"/>
      <point x="56" y="622"/>
      <point x="140" y="706"/>
      <point x="200" y="706" type="qcurve" smooth="yes"/>
      <point x="260" y="706"/>
      <point x="344" y="622"/>
      <point x="344" y="562" type="qcurve" smooth="yes"/>
      <point x="344" y="502"/>
      <point x="260" y="418"/>
      <point x="200" y="418" type="qcurve" smooth="yes"/>
      <point x="140" y="418"/>
      <point x="56" y="502"/>
    </contour>
    <contour>
      <point x="95" y="562" type="qcurve" smooth="yes"/>
      <point x="95" y="519"/>
      <point x="157" y="457"/>
      <point x="200" y="457" type="qcurve" smooth="yes"/>
      <point x="244" y="457"/>
      <point x="305" y="519"/>
      <point x="305" y="562" type="qcurve" smooth="yes"/>
      <point x="305" y="606"/>
      <point x="244" y="667"/>
      <point x="200" y="667" type="qcurve" smooth="yes"/>
      <point x="157" y="667"/>
      <point x="95" y="606"/>
    </contour>
  </outline>
</glyph>
<glyph name="plusminus" format="2">
  <advance width="600"/>
  <unicode hex="00B1"/>
  <outline>
    <contour>
      <point x="274" y="323" type="line"/>
      <point x="274" y="503" type="line"/>
      <point x="327" y="503" type="line"/>
      <point x="327" y="323" type="line"/>
      <point x="552" y="323" type="line"/>
      <point x="552" y="270" type="line"/>
      <point x="327" y="270" type="line"/>
      <point x="327" y="90" type="line"/>
      <point x="274" y="90" type="line"/>
      <point x="274" y="270" type="line"/>
      <point x="50" y="270" type="line"/>
      <point x="50" y="323" type="line"/>
    </contour>
    <contour>
      <point x="49" y="0" type="line"/>
      <point x="49" y="53" type="line"/>
      <point x="552" y="53" type="line"/>
      <point x="552" y="0" type="line"/>
    </contour>
  </outline>
</glyph>
<glyph name="twosuperior" format="2">
  <advance width="333"/>
  <unicode hex="00B2"/>
  <outline>
    <contour>
      <point x="71" y="553" type="qcurve"/>
      <point x="24" y="553" type="line"/>
      <point x="22" y="624"/>
      <point x="98" y="706"/>
      <point x="174" y="706" type="qcurve" smooth="yes"/>
      <point x="240" y="706"/>
      <point x="320" y="642"/>
      <point x="320" y="581" type="qcurve" smooth="yes"/>
      <point x="320" y="502"/>
      <point x="205" y="432" type="qcurve" smooth="yes"/>
      <point x="166" y="409"/>
      <point x="127" y="385" type="qcurve" smooth="yes"/>
      <point x="80" y="352"/>
      <point x="69" y="313" type="qcurve"/>
      <point x="317" y="313" type="line"/>
      <point x="317" y="274" type="line"/>
      <point x="15" y="274" type="line"/>
      <point x="16" y="332"/>
      <point x="56" y="375" type="qcurve" smooth="yes"/>
      <point x="82" y="404"/>
      <point x="144" y="442" type="qcurve" smooth="yes"/>
      <point x="211" y="484"/>
      <point x="234" y="505" type="qcurve" smooth="yes"/>
      <point x="273" y="541"/>
      <point x="273" y="585" type="qcurve" smooth="yes"/>
      <point x="273" y="622"/>
      <point x="213" y="667"/>
      <point x="170" y="667" type="qcurve" smooth="yes"/>
      <point x="120" y="667"/>
      <point x="94" y="632" type="qcurve" smooth="yes"/>
      <point x="70" y="601"/>
    </contour>
  </outline>
</glyph>
<glyph name="threesuperior" format="2">
  <advance width="333"/>
  <unicode hex="00B3"/>
  <outline>
    <contour>
      <point x="135" y="478" type="line"/>
      <point x="135" y="517" type="line"/>
      <point x="170" y="517" type="line" smooth="yes"/>
      <point x="205" y="517"/>
      <point x="232" y="535" type="qcurve" smooth="yes"/>
      <point x="263" y="556"/>
      <point x="263" y="591" type="qcurve" smooth="yes"/>
      <point x="263" y="628"/>
      <point x="234" y="649" type="qcurve" smooth="yes"/>
      <point x="207" y="667"/>
      <point x="165" y="667" type="qcurve" smooth="yes"/>
      <point x="117" y="667"/>
      <point x="64" y="609"/>
      <point x="65" y="564" type="qcurve"/>
      <point x="18" y="564" type="line"/>
      <point x="19" y="628"/>
      <point x="97" y="706"/>
      <point x="165" y="706" type="qcurve" smooth="yes"/>
      <point x="226" y="706"/>
      <point x="266" y="680" type="qcurve" smooth="yes"/>
      <point x="310" y="650"/>
      <point x="310" y="595" type="qcurve" smooth="yes"/>
      <point x="310" y="519"/>
      <point x="233" y="502" type="qcurve"/>
      <point x="233" y="500" type="line"/>
      <point x="277" y="494"/>
      <point x="327" y="439"/>
      <point x="327" y="397" type="qcurve" smooth="yes"/>
      <point x="327" y="335"/>
      <point x="235" y="265"/>
      <point x="166" y="265" type="qcurve" smooth="yes"/>
      <point x="91" y="265"/>
      <point x="3" y="343"/>
      <point x="8" y="412" type="qcurve"/>
      <point x="55" y="412" type="line"/>
      <point x="53" y="364"/>
      <point x="113" y="304"/>
      <point x="165" y="304" type="qcurve" smooth="yes"/>
      <point x="211" y="304"/>
      <point x="280" y="353"/>
      <point x="280" y="394" type="qcurve" smooth="yes"/>
      <point x="280" y="434"/>
      <point x="217" y="478"/>
      <point x="170" y="478" type="qcurve" smooth="yes"/>
    </contour>
  </outline>
</glyph>
<glyph name="acute" format="2">
  <advance width="185"/>
  <unicode hex="00B4"/>
  <outline>
    <contour>
      <point x="216" y="729" type="line"/>
      <point x="84" y="588" type="line"/>
      <point x="33" y="588" type="line"/>
      <point x="138" y="729" type="line"/>
    </contour>
  </outline>
</glyph>
<glyph name="mu" format="2">
  <advance width="537"/>
  <unicode hex="00B5"/>
  <unicode hex="03BC"/>
  <outline>
    <contour>
      <point x="478" y="516" type="line"/>
      <point x="478" y="0" type="line"/>
      <point x="420" y="0" type="line"/>
      <point x="420" y="93" type="line"/>
      <point x="418" y="93" type="line"/>
      <point x="394" y="42"/>
      <point x="298" y="-15"/>
      <point x="240" y="-15" type="qcurve" smooth="yes"/>
      <point x="170" y="-15"/>
      <point x="123" y="20" type="qcurve"/>
      <point x="123" y="-191" type="line"/>
      <point x="59" y="-191" type="line"/>
      <point x="59" y="516" type="line"/>
      <point x="122" y="516" type="line"/>
      <point x="122" y="180" type="line" smooth="yes"/>
      <point x="122" y="38"/>
      <point x="260" y="38" type="qcurve" smooth="yes"/>
      <point x="336" y="38"/>
      <point x="378" y="102" type="qcurve" smooth="yes"/>
      <point x="415" y="159"/>
      <point x="415" y="245" type="qcurve" smooth="yes"/>
      <point x="415" y="516" type="line"/>
    </contour>
  </outline>
</glyph>
<glyph name="paragraph" format="2">
  <advance width="600"/>
  <unicode hex="00B6"/>
  <outline>
    <contour>
      <point x="273" y="-177" type="line"/>
      <point x="273" y="328" type="line"/>
      <point x="186" y="328"/>
      <point x="66" y="440"/>
      <point x="66" y="518" type="qcurve" smooth="yes"/>
      <point x="66" y="612"/>
      <point x="183" y="714"/>
      <point x="289" y="714" type="qcurve" smooth="yes"/>
      <point x="519" y="714" type="line"/>
      <point x="519" y="-177" type="line"/>
      <point x="456" y="-177" type="line"/>
      <point x="456" y="661" type="line"/>
      <point x="336" y="661" type="line"/>
      <point x="336" y="-177" type="line"/>
    </contour>
  </outline>
</glyph>
<glyph name="periodcentered" format="2">
  <advance width="278"/>
  <unicode hex="00B7"/>
  <unicode hex="2219"/>
  <outline>
    <contour>
      <point x="139" y="375" type="qcurve" smooth="yes"/>
      <point x="163" y="375"/>
      <point x="198" y="339"/>
      <point x="198" y="315" type="qcurve" smooth="yes"/>
      <point x="198" y="292"/>
      <point x="162" y="257"/>
      <point x="139" y="257" type="qcurve" smooth="yes"/>
      <point x="115" y="257"/>
      <point x="80" y="293"/>
      <point x="80" y="317" type="qcurve" smooth="yes"/>
      <point x="80" y="339"/>
      <point x="116" y="375"/>
    </contour>
  </outline>
</glyph>
<glyph name="cedilla" format="2">
  <advance width="185"/>
  <unicode hex="00B8"/>
  <outline>
    <contour>
      <point x="91" y="0" type="line"/>
      <point x="126" y="0" type="line"/>
      <point x="82" y="-58" type="line"/>
      <point x="97" y="-55"/>
      <point x="113" y="-55" type="qcurve" smooth="yes"/>
      <point x="198" y="-55"/>
      <point x="198" y="-120" type="qcurve" smooth="yes"/>
      <point x="198" y="-162"/>
      <point x="162" y="-186" type="qcurve" smooth="yes"/>
      <point x="131" y="-206"/>
      <point x="88" y="-206" type="qcurve" smooth="yes"/>
      <point x="38" y="-206"/>
      <point x="-6" y="-185" type="qcurve"/>
      <point x="8" y="-153" type="line"/>
      <point x="42" y="-167"/>
      <point x="87" y="-167" type="qcurve" smooth="yes"/>
      <point x="140" y="-167"/>
      <point x="140" y="-124" type="qcurve" smooth="yes"/>
      <point x="140" y="-86"/>
      <point x="97" y="-86" type="qcurve" smooth="yes"/>
      <point x="62" y="-86"/>
      <point x="46" y="-94" type="qcurve"/>
      <point x="30" y="-79" type="line"/>
    </contour>
  </outline>
</glyph>
<glyph name="onesuperior" format="2">
  <advance width="333"/>
  <unicode hex="00B9"/>
  <outline>
    <contour>
      <point x="35" y="584" type="line"/>
      <point x="35" y="623" type="line"/>
      <point x="98" y="625"/>
      <point x="121" y="635" type="qcurve" smooth="yes"/>
      <point x="154" y="650"/>
      <point x="163" y="697" type="qcurve"/>
      <point x="203" y="697" type="line"/>
      <point x="203" y="274" type="line"/>
      <point x="156" y="274" type="line"/>
      <point x="156" y="584" type="line"/>
    </contour>
  </outline>
</glyph>
<glyph name="ordmasculine" format="2">
  <advance width="334"/>
  <unicode hex="00BA"/>
  <outline>
    <contour>
      <point x="162" y="368" type="qcurve" smooth="yes"/>
      <point x="87" y="368"/>
      <point x="3" y="464"/>
      <point x="3" y="537" type="qcurve" smooth="yes"/>
      <point x="3" y="610"/>
      <point x="87" y="706"/>
      <point x="162" y="706" type="qcurve" smooth="yes"/>
      <point x="243" y="706"/>
      <point x="289" y="657" type="qcurve" smooth="yes"/>
      <point x="331" y="611"/>
      <point x="331" y="537" type="qcurve" smooth="yes"/>
      <point x="331" y="463"/>
      <point x="289" y="417" type="qcurve" smooth="yes"/>
      <point x="243" y="368"/>
    </contour>
    <contour>
      <point x="167" y="407" type="qcurve" smooth="yes"/>
      <point x="222" y="407"/>
      <point x="254" y="448" type="qcurve" smooth="yes"/>
      <point x="284" y="485"/>
      <point x="284" y="537" type="qcurve" smooth="yes"/>
      <point x="284" y="589"/>
      <point x="254" y="626" type="qcurve" smooth="yes"/>
      <point x="222" y="667"/>
      <point x="167" y="667" type="qcurve" smooth="yes"/>
      <point x="112" y="667"/>
      <point x="80" y="626" type="qcurve" smooth="yes"/>
      <point x="50" y="589"/>
      <point x="50" y="537" type="qcurve" smooth="yes"/>
      <point x="50" y="485"/>
      <point x="80" y="448" type="qcurve" smooth="yes"/>
      <point x="112" y="407"/>
    </contour>
  </outline>
</glyph>
<glyph name="guillemotright" format="2">
  <advance width="426"/>
  <unicode hex="00BB"/>
  <outline>
    <contour>
      <point x="233" y="119" type="line"/>
      <point x="233" y="186" type="line"/>
      <point x="327" y="275" type="line"/>
      <point x="233" y="364" type="line"/>
      <point x="233" y="431" type="line"/>
      <point x="366" y="306" type="line"/>
      <point x="366" y="244" type="line"/>
    </contour>
    <contour>
      <point x="72" y="119" type="line"/>
      <point x="72" y="186" type="line"/>
      <point x="166" y="275" type="line"/>
      <point x="72" y="364" type="line"/>
      <point x="72" y="431" type="line"/>
      <point x="205" y="306" type="line"/>
      <point x="205" y="244" type="line"/>
    </contour>
  </outline>
</glyph>
<glyph name="onequarter" format="2">
  <advance width="834"/>
  <unicode hex="00BC"/>
  <outline>
    <contour>
      <point x="133" y="-34" type="line"/>
      <point x="586" y="725" type="line"/>
      <point x="633" y="725" type="line"/>
      <point x="181" y="-34" type="line"/>
    </contour>
    <contour>
      <point x="48" y="584" type="line"/>
      <point x="48" y="623" type="line"/>
      <point x="111" y="625"/>
      <point x="134" y="635" type="qcurve" smooth="yes"/>
      <point x="167" y="650"/>
      <point x="176" y="697" type="qcurve"/>
      <point x="216" y="697" type="line"/>
      <point x="216" y="274" type="line"/>
      <point x="169" y="274" type="line"/>
      <point x="169" y="584" type="line"/>
    </contour>
    <contour>
      <point x="642" y="0" type="line"/>
      <point x="642" y="100" type="line"/>
      <point x="432" y="100" type="line"/>
      <point x="432" y="139" type="line"/>
      <point x="645" y="423" type="line"/>
      <point x="689" y="423" type="line"/>
      <point x="689" y="139" type="line"/>
      <point x="757" y="139" type="line"/>
      <point x="757" y="100" type="line"/>
      <point x="689" y="100" type="line"/>
      <point x="689" y="0" type="line"/>
    </contour>
    <contour>
      <point x="640" y="355" type="line"/>
      <point x="478" y="139" type="line"/>
      <point x="642" y="139" type="line"/>
      <point x="642" y="355" type="line"/>
    </contour>
  </outline>
</glyph>
<glyph name="onehalf" format="2">
  <advance width="834"/>
  <unicode hex="00BD"/>
  <outline>
    <contour>
      <point x="133" y="-34" type="line"/>
      <point x="586" y="725" type="line"/>
      <point x="633" y="725" type="line"/>
      <point x="181" y="-34" type="line"/>
    </contour>
    <contour>
      <point x="48" y="584" type="line"/>
      <point x="48" y="623" type="line"/>
      <point x="111" y="625"/>
      <point x="134" y="635" type="qcurve" smooth="yes"/>
      <point x="167" y="650"/>
      <point x="176" y="697" type="qcurve"/>
      <point x="216" y="697" type="line"/>
      <point x="216" y="274" type="line"/>
      <point x="169" y="274" type="line"/>
      <point x="169" y="584" type="line"/>
    </contour>
    <contour>
      <point x="536" y="279" type="qcurve"/>
      <point x="489" y="279" type="line"/>
      <point x="487" y="350"/>
      <point x="563" y="432"/>
      <point x="639" y="432" type="qcurve" smooth="yes"/>
      <point x="705" y="432"/>
      <point x="785" y="368"/>
      <point x="785" y="307" type="qcurve" smooth="yes"/>
      <point x="785" y="228"/>
      <point x="670" y="158" type="qcurve" smooth="yes"/>
      <point x="631" y="135"/>
      <point x="592" y="111" type="qcurve" smooth="yes"/>
      <point x="545" y="78"/>
      <point x="534" y="39" type="qcurve"/>
      <point x="782" y="39" type="line"/>
      <point x="782" y="0" type="line"/>
      <point x="480" y="0" type="line"/>
      <point x="481" y="58"/>
      <point x="521" y="101" type="qcurve" smooth="yes"/>
      <point x="547" y="130"/>
      <point x="609" y="168" type="qcurve" smooth="yes"/>
      <point x="676" y="210"/>
      <point x="699" y="231" type="qcurve" smooth="yes"/>
      <point x="738" y="267"/>
      <point x="738" y="311" type="qcurve" smooth="yes"/>
      <point x="738" y="348"/>
      <point x="678" y="393"/>
      <point x="635" y="393" type="qcurve" smooth="yes"/>
      <point x="585" y="393"/>
      <point x="559" y="358" type="qcurve" smooth="yes"/>
      <point x="535" y="327"/>
    </contour>
  </outline>
</glyph>
<glyph name="threequarters" format="2">
  <advance width="834"/>
  <unicode hex="00BE"/>
  <outline>
    <contour>
      <point x="135" y="478" type="line"/>
      <point x="135" y="517" type="line"/>
      <point x="170" y="517" type="line" smooth="yes"/>
      <point x="205" y="517"/>
      <point x="232" y="535" type="qcurve" smooth="yes"/>
      <point x="263" y="556"/>
      <point x="263" y="591" type="qcurve" smooth="yes"/>
      <point x="263" y="628"/>
      <point x="234" y="649" type="qcurve" smooth="yes"/>
      <point x="207" y="667"/>
      <point x="165" y="667" type="qcurve" smooth="yes"/>
      <point x="117" y="667"/>
      <point x="64" y="609"/>
      <point x="65" y="564" type="qcurve"/>
      <point x="18" y="564" type="line"/>
      <point x="19" y="628"/>
      <point x="97" y="706"/>
      <point x="165" y="706" type="qcurve" smooth="yes"/>
      <point x="226" y="706"/>
      <point x="266" y="680" type="qcurve" smooth="yes"/>
      <point x="310" y="650"/>
      <point x="310" y="595" type="qcurve" smooth="yes"/>
      <point x="310" y="519"/>
      <point x="233" y="502" type="qcurve"/>
      <point x="233" y="500" type="line"/>
      <point x="277" y="494"/>
      <point x="327" y="439"/>
      <point x="327" y="397" type="qcurve" smooth="yes"/>
      <point x="327" y="335"/>
      <point x="235" y="265"/>
      <point x="166" y="265" type="qcurve" smooth="yes"/>
      <point x="91" y="265"/>
      <point x="3" y="343"/>
      <point x="8" y="412" type="qcurve"/>
      <point x="55" y="412" type="line"/>
      <point x="53" y="364"/>
      <point x="113" y="304"/>
      <point x="165" y="304" type="qcurve" smooth="yes"/>
      <point x="211" y="304"/>
      <point x="280" y="353"/>
      <point x="280" y="394" type="qcurve" smooth="yes"/>
      <point x="280" y="434"/>
      <point x="217" y="478"/>
      <point x="170" y="478" type="qcurve" smooth="yes"/>
    </contour>
    <contour>
      <point x="173" y="-34" type="line"/>
      <point x="626" y="725" type="line"/>
      <point x="673" y="725" type="line"/>
      <point x="221" y="-34" type="line"/>
    </contour>
    <contour>
      <point x="642" y="0" type="line"/>
      <point x="642" y="100" type="line"/>
      <point x="432" y="100" type="line"/>
      <point x="432" y="139" type="line"/>
      <point x="645" y="423" type="line"/>
      <point x="689" y="423" type="line"/>
      <point x="689" y="139" type="line"/>
      <point x="757" y="139" type="line"/>
      <point x="757" y="100" type="line"/>
      <point x="689" y="100" type="line"/>
      <point x="689" y="0" type="line"/>
    </contour>
    <contour>
      <point x="640" y="355" type="line"/>
      <point x="478" y="139" type="line"/>
      <point x="642" y="139" type="line"/>
      <point x="642" y="355" type="line"/>
    </contour>
  </outline>
</glyph>
<glyph name="questiondown" format="2">
  <advance width="537"/>
  <unicode hex="00BF"/>
  <outline>
    <contour>
      <point x="421" y="29" type="qcurve"/>
      <point x="484" y="29" type="line"/>
      <point x="483" y="-79"/>
      <point x="425" y="-142" type="qcurve" smooth="yes"/>
      <point x="364" y="-206"/>
      <point x="257" y="-206" type="qcurve" smooth="yes"/>
      <point x="171" y="-206"/>
      <point x="114" y="-157" type="qcurve" smooth="yes"/>
      <point x="54" y="-105"/>
      <point x="54" y="-21" type="qcurve" smooth="yes"/>
      <point x="54" y="64"/>
      <point x="141" y="149" type="qcurve" smooth="yes"/>
      <point x="211" y="217"/>
      <point x="219" y="232" type="qcurve" smooth="yes"/>
      <point x="232" y="257"/>
      <point x="234" y="344" type="qcurve"/>
      <point x="297" y="344" type="line"/>
      <point x="299" y="259"/>
      <point x="272" y="211" type="qcurve" smooth="yes"/>
      <point x="253" y="178"/>
      <point x="182" y="111" type="qcurve" smooth="yes"/>
      <point x="117" y="50"/>
      <point x="117" y="-18" type="qcurve" smooth="yes"/>
      <point x="117" y="-77"/>
      <point x="200" y="-153"/>
      <point x="260" y="-153" type="qcurve" smooth="yes"/>
      <point x="339" y="-153"/>
      <point x="382" y="-101" type="qcurve" smooth="yes"/>
      <point x="423" y="-52"/>
    </contour>
    <contour>
      <point x="307" y="516" type="line"/>
      <point x="307" y="410" type="line"/>
      <point x="223" y="410" type="line"/>
      <point x="223" y="516" type="line"/>
    </contour>
  </outline>
</glyph>
<glyph name="AE" format="2">
  <advance width="907"/>
  <unicode hex="00C6"/>
  <outline>
    <contour>
      <point x="513" y="340" type="line"/>
      <point x="513" y="58" type="line"/>
      <point x="884" y="58" type="line"/>
      <point x="884" y="0" type="line"/>
      <point x="445" y="0" type="line"/>
      <point x="445" y="226" type="line"/>
      <point x="186" y="226" type="line"/>
      <point x="70" y="0" type="line"/>
      <point x="-7" y="0" type="line"/>
      <point x="367" y="714" type="line"/>
      <point x="880" y="714" type="line"/>
      <point x="880" y="656" type="line"/>
      <point x="513" y="656" type="line"/>
      <point x="513" y="398" type="line"/>
      <point x="857" y="398" type="line"/>
      <point x="857" y="340" type="line"/>
    </contour>
    <contour>
      <point x="216" y="284" type="line"/>
      <point x="445" y="284" type="line"/>
      <point x="445" y="656" type="line"/>
      <point x="405" y="656" type="line"/>
    </contour>
  </outline>
</glyph>
<glyph name="Ccedilla" format="2">
  <advance width="704"/>
  <unicode hex="00C7"/>
  <outline>
    <contour>
      <point x="604" y="272" type="qcurve"/>
      <point x="672" y="272" type="line"/>
      <point x="658" y="140"/>
      <point x="499" y="-15"/>
      <point x="375" y="-15" type="qcurve" smooth="yes"/>
      <point x="374" y="-15" type="line"/>
      <point x="341" y="-58" type="line"/>
      <point x="356" y="-55"/>
      <point x="372" y="-55" type="qcurve" smooth="yes"/>
      <point x="457" y="-55"/>
      <point x="457" y="-120" type="qcurve" smooth="yes"/>
      <point x="457" y="-162"/>
      <point x="421" y="-186" type="qcurve" smooth="yes"/>
      <point x="390" y="-206"/>
      <point x="347" y="-206" type="qcurve" smooth="yes"/>
      <point x="297" y="-206"/>
      <point x="253" y="-185" type="qcurve"/>
      <point x="267" y="-153" type="line"/>
      <point x="301" y="-167"/>
      <point x="346" y="-167" type="qcurve" smooth="yes"/>
      <point x="399" y="-167"/>
      <point x="399" y="-124" type="qcurve" smooth="yes"/>
      <point x="399" y="-86"/>
      <point x="356" y="-86" type="qcurve" smooth="yes"/>
      <point x="321" y="-86"/>
      <point x="305" y="-94" type="qcurve"/>
      <point x="289" y="-79" type="line"/>
      <point x="340" y="-13" type="line"/>
      <point x="195" y="-1"/>
      <point x="113" y="109" type="qcurve" smooth="yes"/>
      <point x="38" y="210"/>
      <point x="38" y="357" type="qcurve" smooth="yes"/>
      <point x="38" y="513"/>
      <point x="122" y="616" type="qcurve" smooth="yes"/>
      <point x="214" y="729"/>
      <point x="375" y="729" type="qcurve" smooth="yes"/>
      <point x="482" y="729"/>
      <point x="562" y="670" type="qcurve" smooth="yes"/>
      <point x="649" y="605"/>
      <point x="662" y="498" type="qcurve"/>
      <point x="594" y="498" type="line"/>
      <point x="576" y="579"/>
      <point x="455" y="671"/>
      <point x="375" y="671" type="qcurve" smooth="yes"/>
      <point x="242" y="671"/>
      <point x="170" y="573" type="qcurve" smooth="yes"/>
      <point x="106" y="486"/>
      <point x="106" y="357" type="qcurve" smooth="yes"/>
      <point x="106" y="228"/>
      <point x="170" y="142" type="qcurve" smooth="yes"/>
      <point x="242" y="43"/>
      <point x="375" y="43" type="qcurve" smooth="yes"/>
      <point x="471" y="43"/>
      <point x="534" y="110" type="qcurve" smooth="yes"/>
      <point x="594" y="173"/>
    </contour>
  </outline>
</glyph>
<glyph name="Eth" format="2">
  <advance width="685"/>
  <unicode hex="00D0"/>
  <outline>
    <contour>
      <point x="140" y="656" type="line"/>
      <point x="140" y="393" type="line"/>
      <point x="376" y="393" type="line"/>
      <point x="376" y="348" type="line"/>
      <point x="140" y="348" type="line"/>
      <point x="140" y="58" type="line"/>
      <point x="285" y="58" type="line" smooth="yes"/>
      <point x="440" y="58"/>
      <point x="579" y="198"/>
      <point x="579" y="357" type="qcurve" smooth="yes"/>
      <point x="579" y="516"/>
      <point x="440" y="656"/>
      <point x="285" y="656" type="qcurve" smooth="yes"/>
    </contour>
    <contour>
      <point x="72" y="393" type="line"/>
      <point x="72" y="714" type="line"/>
      <point x="319" y="714" type="line" smooth="yes"/>
      <point x="480" y="714"/>
      <point x="647" y="533"/>
      <point x="647" y="357" type="qcurve" smooth="yes"/>
      <point x="647" y="181"/>
      <point x="480" y="0"/>
      <point x="319" y="0" type="qcurve" smooth="yes"/>
      <point x="72" y="0" type="line"/>
      <point x="72" y="348" type="line"/>
      <point x="0" y="348" type="line"/>
      <point x="0" y="393" type="line"/>
    </contour>
  </outline>
</glyph>
<glyph name="multiply" format="2">
  <advance width="600"/>
  <unicode hex="00D7"/>
  <outline>
    <contour>
      <point x="262" y="251" type="line"/>
      <point x="74" y="440" type="line"/>
      <point x="111" y="477" type="line"/>
      <point x="300" y="288" type="line"/>
      <point x="489" y="477" type="line"/>
      <point x="526" y="440" type="line"/>
      <point x="337" y="251" type="line"/>
      <point x="526" y="62" type="line"/>
      <point x="489" y="25" type="line"/>
      <point x="300" y="213" type="line"/>
      <point x="111" y="25" type="line"/>
      <point x="74" y="62" type="line"/>
    </contour>
  </outline>
</glyph>
<glyph name="Oslash" format="2">
  <advance width="741"/>
  <unicode hex="00D8"/>
  <outline>
    <contour>
      <point x="580" y="565" type="qcurve"/>
      <point x="183" y="122" type="line"/>
      <point x="254" y="43"/>
      <point x="371" y="43" type="qcurve" smooth="yes"/>
      <point x="503" y="43"/>
      <point x="576" y="142" type="qcurve" smooth="yes"/>
      <point x="639" y="228"/>
      <point x="639" y="357" type="qcurve" smooth="yes"/>
      <point x="639" y="483"/>
    </contour>
    <contour>
      <point x="160" y="150" type="qcurve"/>
      <point x="558" y="593" type="line"/>
      <point x="487" y="671"/>
      <point x="371" y="671" type="qcurve" smooth="yes"/>
      <point x="238" y="671"/>
      <point x="166" y="573" type="qcurve" smooth="yes"/>
      <point x="102" y="486"/>
      <point x="102" y="357" type="qcurve" smooth="yes"/>
      <point x="102" y="233"/>
    </contour>
    <contour>
      <point x="672" y="719" type="line"/>
      <point x="698" y="696" type="line"/>
      <point x="625" y="615" type="line"/>
      <point x="707" y="514"/>
      <point x="707" y="357" type="qcurve" smooth="yes"/>
      <point x="707" y="201"/>
      <point x="623" y="98" type="qcurve" smooth="yes"/>
      <point x="531" y="-15"/>
      <point x="371" y="-15" type="qcurve" smooth="yes"/>
      <point x="229" y="-15"/>
      <point x="140" y="74" type="qcurve"/>
      <point x="64" y="-12" type="line"/>
      <point x="37" y="13" type="line"/>
      <point x="116" y="101" type="line"/>
      <point x="34" y="204"/>
      <point x="34" y="357" type="qcurve" smooth="yes"/>
      <point x="34" y="513"/>
      <point x="118" y="616" type="qcurve" smooth="yes"/>
      <point x="210" y="729"/>
      <point x="371" y="729" type="qcurve" smooth="yes"/>
      <point x="511" y="729"/>
      <point x="601" y="641" type="qcurve"/>
    </contour>
  </outline>
</glyph>
<glyph name="Thorn" format="2">
  <advance width="630"/>
  <unicode hex="00DE"/>
  <outline>
    <contour>
      <point x="72" y="0" type="line"/>
      <point x="72" y="714" type="line"/>
      <point x="140" y="714" type="line"/>
      <point x="140" y="597" type="line"/>
      <point x="389" y="597" type="line" smooth="yes"/>
      <point x="486" y="597"/>
      <point x="601" y="489"/>
      <point x="601" y="393" type="qcurve" smooth="yes"/>
      <point x="601" y="297"/>
      <point x="486" y="189"/>
      <point x="389" y="189" type="qcurve" smooth="yes"/>
      <point x="140" y="189" type="line"/>
      <point x="140" y="0" type="line"/>
    </contour>
    <contour>
      <point x="140" y="539" type="line"/>
      <point x="140" y="247" type="line"/>
      <point x="374" y="247" type="line" smooth="yes"/>
      <point x="447" y="247"/>
      <point x="533" y="322"/>
      <point x="533" y="393" type="qcurve" smooth="yes"/>
      <point x="533" y="464"/>
      <point x="489" y="503" type="qcurve" smooth="yes"/>
      <point x="447" y="539"/>
      <point x="374" y="539" type="qcurve" smooth="yes"/>
    </contour>
  </outline>
</glyph>
<glyph name="germandbls" format="2">
  <advance width="537"/>
  <unicode hex="00DF"/>
  <outline>
    <contour>
      <point x="61" y="0" type="line"/>
      <point x="61" y="535" type="line" smooth="yes"/>
      <point x="61" y="631"/>
      <point x="116" y="682" type="qcurve" smooth="yes"/>
      <point x="168" y="729"/>
      <point x="260" y="729" type="qcurve" smooth="yes"/>
      <point x="344" y="729"/>
      <point x="398" y="684" type="qcurve" smooth="yes"/>
      <point x="456" y="635"/>
      <point x="456" y="553" type="qcurve" smooth="yes"/>
      <point x="456" y="497"/>
      <point x="427" y="457" type="qcurve" smooth="yes"/>
      <point x="396" y="414"/>
      <point x="343" y="403" type="qcurve"/>
      <point x="343" y="401" type="line"/>
      <point x="413" y="395"/>
      <point x="454" y="340" type="qcurve" smooth="yes"/>
      <point x="492" y="288"/>
      <point x="492" y="216" type="qcurve" smooth="yes"/>
      <point x="492" y="109"/>
      <point x="429" y="50" type="qcurve" smooth="yes"/>
      <point x="370" y="-5"/>
      <point x="270" y="-8" type="qcurve" smooth="yes"/>
      <point x="243" y="-9"/>
      <point x="220" y="-6" type="qcurve"/>
      <point x="220" y="49" type="line"/>
      <point x="240" y="45"/>
      <point x="267" y="45" type="qcurve" smooth="yes"/>
      <point x="335" y="44"/>
      <point x="379" y="82" type="qcurve" smooth="yes"/>
      <point x="429" y="124"/>
      <point x="429" y="205" type="qcurve" smooth="yes"/>
      <point x="429" y="302"/>
      <point x="371" y="339" type="qcurve" smooth="yes"/>
      <point x="324" y="368"/>
      <point x="220" y="368" type="qcurve"/>
      <point x="220" y="421" type="line"/>
      <point x="393" y="421"/>
      <point x="393" y="551" type="qcurve" smooth="yes"/>
      <point x="393" y="605"/>
      <point x="316" y="676"/>
      <point x="261" y="676" type="qcurve" smooth="yes"/>
      <point x="124" y="676"/>
      <point x="124" y="530" type="qcurve" smooth="yes"/>
      <point x="124" y="0" type="line"/>
    </contour>
  </outline>
</glyph>
<glyph name="ae" format="2">
  <advance width="870"/>
  <unicode hex="00E6"/>
  <outline>
    <contour>
      <point x="453" y="294" type="qcurve"/>
      <point x="778" y="294" type="line"/>
      <point x="778" y="368"/>
      <point x="734" y="422" type="qcurve" smooth="yes"/>
      <point x="687" y="478"/>
      <point x="615" y="478" type="qcurve" smooth="yes"/>
      <point x="539" y="478"/>
      <point x="494" y="422" type="qcurve" smooth="yes"/>
      <point x="451" y="370"/>
    </contour>
    <contour>
      <point x="390" y="200" type="qcurve" smooth="yes"/>
      <point x="390" y="282" type="line"/>
      <point x="388" y="282" type="line"/>
      <point x="380" y="267"/>
      <point x="335" y="259" type="qcurve" smooth="yes"/>
      <point x="280" y="251"/>
      <point x="225" y="242" type="qcurve" smooth="yes"/>
      <point x="163" y="231"/>
      <point x="133" y="212" type="qcurve" smooth="yes"/>
      <point x="95" y="186"/>
      <point x="95" y="140" type="qcurve" smooth="yes"/>
      <point x="95" y="95"/>
      <point x="164" y="38"/>
      <point x="210" y="38" type="qcurve" smooth="yes"/>
      <point x="285" y="38"/>
      <point x="390" y="127"/>
    </contour>
    <contour>
      <point x="841" y="241" type="qcurve"/>
      <point x="453" y="241" type="line"/>
      <point x="447" y="154"/>
      <point x="489" y="98" type="qcurve" smooth="yes"/>
      <point x="534" y="38"/>
      <point x="621" y="38" type="qcurve" smooth="yes"/>
      <point x="745" y="38"/>
      <point x="774" y="167" type="qcurve"/>
      <point x="837" y="167" type="line"/>
      <point x="817" y="80"/>
      <point x="701" y="-15"/>
      <point x="612" y="-15" type="qcurve" smooth="yes"/>
      <point x="470" y="-15"/>
      <point x="423" y="115" type="qcurve"/>
      <point x="421" y="115" type="line"/>
      <point x="410" y="55"/>
      <point x="341" y="18" type="qcurve" smooth="yes"/>
      <point x="280" y="-15"/>
      <point x="205" y="-15" type="qcurve" smooth="yes"/>
      <point x="129" y="-15"/>
      <point x="83" y="22" type="qcurve" smooth="yes"/>
      <point x="32" y="62"/>
      <point x="32" y="136" type="qcurve" smooth="yes"/>
      <point x="32" y="232"/>
      <point x="119" y="267" type="qcurve" smooth="yes"/>
      <point x="162" y="285"/>
      <point x="309" y="302" type="qcurve" smooth="yes"/>
      <point x="354" y="307"/>
      <point x="369" y="318" type="qcurve" smooth="yes"/>
      <point x="390" y="333"/>
      <point x="390" y="372" type="qcurve" smooth="yes"/>
      <point x="390" y="478"/>
      <point x="255" y="478" type="qcurve" smooth="yes"/>
      <point x="120" y="478"/>
      <point x="117" y="358" type="qcurve"/>
      <point x="54" y="358" type="line"/>
      <point x="58" y="445"/>
      <point x="117" y="490" type="qcurve" smooth="yes"/>
      <point x="170" y="531"/>
      <point x="263" y="531" type="qcurve" smooth="yes"/>
      <point x="420" y="531"/>
      <point x="435" y="424" type="qcurve"/>
      <point x="437" y="424" type="line"/>
      <point x="457" y="476"/>
      <point x="510" y="505" type="qcurve" smooth="yes"/>
      <point x="558" y="531"/>
      <point x="618" y="531" type="qcurve" smooth="yes"/>
      <point x="736" y="531"/>
      <point x="793" y="442" type="qcurve" smooth="yes"/>
      <point x="841" y="368"/>
    </contour>
  </outline>
</glyph>
<glyph name="ccedilla" format="2">
  <advance width="519"/>
  <unicode hex="00E7"/>
  <outline>
    <contour>
      <point x="428" y="185" type="qcurve"/>
      <point x="491" y="185" type="line"/>
      <point x="478" y="93"/>
      <point x="367" y="-13"/>
      <point x="282" y="-15" type="qcurve"/>
      <point x="249" y="-58" type="line"/>
      <point x="264" y="-55"/>
      <point x="280" y="-55" type="qcurve" smooth="yes"/>
      <point x="365" y="-55"/>
      <point x="365" y="-120" type="qcurve" smooth="yes"/>
      <point x="365" y="-162"/>
      <point x="329" y="-186" type="qcurve" smooth="yes"/>
      <point x="298" y="-206"/>
      <point x="255" y="-206" type="qcurve" smooth="yes"/>
      <point x="205" y="-206"/>
      <point x="161" y="-185" type="qcurve"/>
      <point x="175" y="-153" type="line"/>
      <point x="209" y="-167"/>
      <point x="254" y="-167" type="qcurve" smooth="yes"/>
      <point x="307" y="-167"/>
      <point x="307" y="-124" type="qcurve" smooth="yes"/>
      <point x="307" y="-86"/>
      <point x="264" y="-86" type="qcurve" smooth="yes"/>
      <point x="229" y="-86"/>
      <point x="213" y="-94" type="qcurve"/>
      <point x="197" y="-79" type="line"/>
      <point x="248" y="-13" type="line"/>
      <point x="147" y="-2"/>
      <point x="89" y="76" type="qcurve" smooth="yes"/>
      <point x="34" y="150"/>
      <point x="34" y="258" type="qcurve" smooth="yes"/>
      <point x="34" y="374"/>
      <point x="97" y="450" type="qcurve" smooth="yes"/>
      <point x="164" y="531"/>
      <point x="278" y="531" type="qcurve" smooth="yes"/>
      <point x="363" y="531"/>
      <point x="419" y="487" type="qcurve" smooth="yes"/>
      <point x="477" y="440"/>
      <point x="487" y="354" type="qcurve"/>
      <point x="424" y="354" type="line"/>
      <point x="397" y="478"/>
      <point x="278" y="478" type="qcurve" smooth="yes"/>
      <point x="192" y="478"/>
      <point x="142" y="409" type="qcurve" smooth="yes"/>
      <point x="97" y="347"/>
      <point x="97" y="258" type="qcurve" smooth="yes"/>
      <point x="97" y="169"/>
      <point x="142" y="107" type="qcurve" smooth="yes"/>
      <point x="192" y="38"/>
      <point x="278" y="38" type="qcurve" smooth="yes"/>
      <point x="337" y="38"/>
      <point x="422" y="121"/>
    </contour>
  </outline>
</glyph>
<glyph name="eth" format="2">
  <advance width="556"/>
  <unicode hex="00F0"/>
  <outline>
    <contour>
      <point x="276" y="453" type="qcurve" smooth="yes"/>
      <point x="185" y="453"/>
      <point x="138" y="392" type="qcurve" smooth="yes"/>
      <point x="97" y="338"/>
      <point x="97" y="248" type="qcurve" smooth="yes"/>
      <point x="97" y="159"/>
      <point x="139" y="102" type="qcurve" smooth="yes"/>
      <point x="186" y="38"/>
      <point x="274" y="38" type="qcurve" smooth="yes"/>
      <point x="360" y="38"/>
      <point x="408" y="98" type="qcurve" smooth="yes"/>
      <point x="453" y="154"/>
      <point x="453" y="250" type="qcurve" smooth="yes"/>
      <point x="453" y="334"/>
      <point x="412" y="389" type="qcurve" smooth="yes"/>
      <point x="365" y="453"/>
    </contour>
    <contour>
      <point x="135" y="596" type="line"/>
      <point x="235" y="652" type="line"/>
      <point x="184" y="686"/>
      <point x="142" y="707" type="qcurve"/>
      <point x="178" y="742" type="line"/>
      <point x="239" y="711"/>
      <point x="282" y="678" type="qcurve"/>
      <point x="396" y="742" type="line"/>
      <point x="429" y="710" type="line"/>
      <point x="320" y="649" type="line"/>
      <point x="516" y="488"/>
      <point x="516" y="258" type="qcurve" smooth="yes"/>
      <point x="516" y="139"/>
      <point x="456" y="65" type="qcurve" smooth="yes"/>
      <point x="391" y="-15"/>
      <point x="271" y="-15" type="qcurve" smooth="yes"/>
      <point x="155" y="-15"/>
      <point x="92" y="61" type="qcurve" smooth="yes"/>
      <point x="34" y="132"/>
      <point x="34" y="249" type="qcurve" smooth="yes"/>
      <point x="34" y="358"/>
      <point x="96" y="430" type="qcurve" smooth="yes"/>
      <point x="161" y="506"/>
      <point x="271" y="506" type="qcurve" smooth="yes"/>
      <point x="367" y="506"/>
      <point x="404" y="466" type="qcurve"/>
      <point x="406" y="466" type="line"/>
      <point x="360" y="552"/>
      <point x="273" y="623" type="qcurve"/>
      <point x="168" y="564" type="line"/>
    </contour>
  </outline>
</glyph>
<glyph name="divide" format="2">
  <advance width="600"/>
  <unicode hex="00F7"/>
  <outline>
    <contour>
      <point x="552" y="225" type="line"/>
      <point x="49" y="225" type="line"/>
      <point x="49" y="278" type="line"/>
      <point x="552" y="278" type="line"/>
    </contour>
    <contour>
      <point x="244" y="453" type="qcurve" smooth="yes"/>
      <point x="244" y="476"/>
      <point x="277" y="509"/>
      <point x="300" y="509" type="qcurve" smooth="yes"/>
      <point x="323" y="509"/>
      <point x="356" y="476"/>
      <point x="356" y="453" type="qcurve" smooth="yes"/>
      <point x="356" y="432"/>
      <point x="323" y="397"/>
      <point x="301" y="397" type="qcurve" smooth="yes"/>
      <point x="278" y="397"/>
      <point x="244" y="430"/>
    </contour>
    <contour>
      <point x="244" y="50" type="qcurve" smooth="yes"/>
      <point x="244" y="73"/>
      <point x="277" y="106"/>
      <point x="300" y="106" type="qcurve" smooth="yes"/>
      <point x="323" y="106"/>
      <point x="356" y="73"/>
      <point x="356" y="50" type="qcurve" smooth="yes"/>
      <point x="356" y="29"/>
      <point x="323" y="-6"/>
      <point x="301" y="-6" type="qcurve" smooth="yes"/>
      <point x="278" y="-6"/>
      <point x="244" y="27"/>
    </contour>
  </outline>
</glyph>
<glyph name="oslash" format="2">
  <advance width="556"/>
  <unicode hex="00F8"/>
  <outline>
    <contour>
      <point x="133" y="123" type="qcurve"/>
      <point x="406" y="418" type="line"/>
      <point x="358" y="478"/>
      <point x="278" y="478" type="qcurve" smooth="yes"/>
      <point x="192" y="478"/>
      <point x="142" y="409" type="qcurve" smooth="yes"/>
      <point x="97" y="347"/>
      <point x="97" y="258" type="qcurve" smooth="yes"/>
      <point x="97" y="181"/>
    </contour>
    <contour>
      <point x="424" y="392" type="qcurve"/>
      <point x="151" y="97" type="line"/>
      <point x="198" y="38"/>
      <point x="278" y="38" type="qcurve" smooth="yes"/>
      <point x="364" y="38"/>
      <point x="414" y="107" type="qcurve" smooth="yes"/>
      <point x="459" y="169"/>
      <point x="459" y="258" type="qcurve" smooth="yes"/>
      <point x="459" y="335"/>
    </contour>
    <contour>
      <point x="500" y="519" type="line"/>
      <point x="522" y="499" type="line"/>
      <point x="468" y="440" type="line"/>
      <point x="522" y="365"/>
      <point x="522" y="258" type="qcurve" smooth="yes"/>
      <point x="522" y="142"/>
      <point x="459" y="66" type="qcurve" smooth="yes"/>
      <point x="392" y="-15"/>
      <point x="278" y="-15" type="qcurve" smooth="yes"/>
      <point x="173" y="-15"/>
      <point x="110" y="53" type="qcurve"/>
      <point x="51" y="-11" type="line"/>
      <point x="29" y="9" type="line"/>
      <point x="90" y="76" type="line"/>
      <point x="34" y="149"/>
      <point x="34" y="258" type="qcurve" smooth="yes"/>
      <point x="34" y="374"/>
      <point x="97" y="450" type="qcurve" smooth="yes"/>
      <point x="164" y="531"/>
      <point x="278" y="531" type="qcurve" smooth="yes"/>
      <point x="383" y="531"/>
      <point x="448" y="463" type="qcurve"/>
    </contour>
  </outline>
</glyph>
<glyph name="dotlessi" format="2">
  <advance width="185"/>
  <unicode hex="0131"/>
  <outline>
    <contour>
      <point x="124" y="0" type="line"/>
      <point x="61" y="0" type="line"/>
      <point x="61" y="516" type="line"/>
      <point x="124" y="516" type="line"/>
    </contour>
  </outline>
</glyph>
<glyph name="Lslash" format="2">
  <advance width="537"/>
  <unicode hex="0141"/>
  <outline>
    <contour>
      <point x="72" y="306" type="line"/>
      <point x="72" y="714" type="line"/>
      <point x="140" y="714" type="line"/>
      <point x="140" y="353" type="line"/>
      <point x="383" y="521" type="line"/>
      <point x="383" y="465" type="line"/>
      <point x="140" y="298" type="line"/>
      <point x="140" y="58" type="line"/>
      <point x="540" y="58" type="line"/>
      <point x="540" y="0" type="line"/>
      <point x="72" y="0" type="line"/>
      <point x="72" y="251" type="line"/>
      <point x="-10" y="194" type="line"/>
      <point x="-10" y="250" type="line"/>
    </contour>
  </outline>
</glyph>
<glyph name="lslash" format="2">
  <advance width="185"/>
  <unicode hex="0142"/>
  <outline>
    <contour>
      <point x="61" y="395" type="line"/>
      <point x="61" y="714" type="line"/>
      <point x="124" y="714" type="line"/>
      <point x="124" y="447" type="line"/>
      <point x="191" y="502" type="line"/>
      <point x="191" y="447" type="line"/>
      <point x="124" y="392" type="line"/>
      <point x="124" y="0" type="line"/>
      <point x="61" y="0" type="line"/>
      <point x="61" y="340" type="line"/>
      <point x="-6" y="285" type="line"/>
      <point x="-6" y="340" type="line"/>
    </contour>
  </outline>
</glyph>
<glyph name="OE" format="2">
  <advance width="1074"/>
  <unicode hex="0152"/>
  <outline>
    <contour>
      <point x="569" y="177" type="qcurve" smooth="yes"/>
      <point x="569" y="509" type="line" smooth="yes"/>
      <point x="569" y="555"/>
      <point x="564" y="575" type="qcurve" smooth="yes"/>
      <point x="548" y="618"/>
      <point x="486" y="646" type="qcurve" smooth="yes"/>
      <point x="432" y="671"/>
      <point x="375" y="671" type="qcurve" smooth="yes"/>
      <point x="249" y="671"/>
      <point x="175" y="577" type="qcurve" smooth="yes"/>
      <point x="105" y="490"/>
      <point x="105" y="357" type="qcurve" smooth="yes"/>
      <point x="105" y="224"/>
      <point x="175" y="137" type="qcurve" smooth="yes"/>
      <point x="249" y="43"/>
      <point x="375" y="43" type="qcurve" smooth="yes"/>
      <point x="488" y="43"/>
      <point x="551" y="122" type="qcurve" smooth="yes"/>
      <point x="569" y="145"/>
    </contour>
    <contour>
      <point x="637" y="656" type="line"/>
      <point x="637" y="398" type="line"/>
      <point x="1005" y="398" type="line"/>
      <point x="1005" y="340" type="line"/>
      <point x="637" y="340" type="line"/>
      <point x="637" y="58" type="line"/>
      <point x="1046" y="58" type="line"/>
      <point x="1046" y="0" type="line"/>
      <point x="569" y="0" type="line"/>
      <point x="569" y="70" type="line"/>
      <point x="535" y="29"/>
      <point x="480" y="7" type="qcurve" smooth="yes"/>
      <point x="429" y="-15"/>
      <point x="375" y="-15" type="qcurve" smooth="yes"/>
      <point x="221" y="-15"/>
      <point x="126" y="96" type="qcurve" smooth="yes"/>
      <point x="37" y="201"/>
      <point x="37" y="357" type="qcurve" smooth="yes"/>
      <point x="37" y="513"/>
      <point x="126" y="618" type="qcurve" smooth="yes"/>
      <point x="221" y="729"/>
      <point x="375" y="729" type="qcurve" smooth="yes"/>
      <point x="504" y="729"/>
      <point x="569" y="655" type="qcurve"/>
      <point x="569" y="714" type="line"/>
      <point x="1043" y="714" type="line"/>
      <point x="1043" y="656" type="line"/>
    </contour>
  </outline>
</glyph>
<glyph name="oe" format="2">
  <advance width="889"/>
  <unicode hex="0153"/>
  <outline>
    <contour>
      <point x="265" y="478" type="qcurve" smooth="yes"/>
      <point x="176" y="478"/>
      <point x="133" y="403" type="qcurve" smooth="yes"/>
      <point x="99" y="343"/>
      <point x="99" y="246" type="qcurve" smooth="yes"/>
      <point x="99" y="160"/>
      <point x="137" y="103" type="qcurve" smooth="yes"/>
      <point x="181" y="38"/>
      <point x="264" y="38" type="qcurve" smooth="yes"/>
      <point x="416" y="38"/>
      <point x="416" y="262" type="qcurve" smooth="yes"/>
      <point x="416" y="478"/>
    </contour>
    <contour>
      <point x="799" y="166" type="qcurve"/>
      <point x="862" y="166" type="line"/>
      <point x="841" y="80"/>
      <point x="722" y="-15"/>
      <point x="634" y="-15" type="qcurve" smooth="yes"/>
      <point x="568" y="-15"/>
      <point x="518" y="19" type="qcurve" smooth="yes"/>
      <point x="465" y="54"/>
      <point x="450" y="116" type="qcurve"/>
      <point x="448" y="116" type="line"/>
      <point x="411" y="-15"/>
      <point x="263" y="-15" type="qcurve" smooth="yes"/>
      <point x="149" y="-15"/>
      <point x="89" y="67" type="qcurve" smooth="yes"/>
      <point x="36" y="140"/>
      <point x="36" y="258" type="qcurve" smooth="yes"/>
      <point x="36" y="373"/>
      <point x="92" y="448" type="qcurve" smooth="yes"/>
      <point x="154" y="531"/>
      <point x="266" y="531" type="qcurve" smooth="yes"/>
      <point x="410" y="531"/>
      <point x="450" y="404" type="qcurve"/>
      <point x="452" y="404" type="line"/>
      <point x="473" y="461"/>
      <point x="575" y="531"/>
      <point x="642" y="531" type="qcurve" smooth="yes"/>
      <point x="863" y="531"/>
      <point x="863" y="241" type="qcurve"/>
      <point x="479" y="241" type="line"/>
      <point x="479" y="158"/>
      <point x="518" y="102" type="qcurve" smooth="yes"/>
      <point x="561" y="38"/>
      <point x="640" y="38" type="qcurve" smooth="yes"/>
      <point x="762" y="38"/>
    </contour>
    <contour>
      <point x="479" y="294" type="qcurve"/>
      <point x="800" y="294" type="line"/>
      <point x="800" y="371"/>
      <point x="759" y="422" type="qcurve" smooth="yes"/>
      <point x="715" y="478"/>
      <point x="640" y="478" type="qcurve" smooth="yes"/>
      <point x="564" y="478"/>
      <point x="520" y="423" type="qcurve" smooth="yes"/>
      <point x="479" y="372"/>
    </contour>
  </outline>
</glyph>
<glyph name="florin" format="2">
  <advance width="556"/>
  <unicode hex="0192"/>
  <outline>
    <contour>
      <point x="7" y="-168" type="qcurve"/>
      <point x="16" y="-114" type="line"/>
      <point x="44" y="-121"/>
      <point x="68" y="-120" type="qcurve" smooth="yes"/>
      <point x="139" y="-118"/>
      <point x="160" y="-8" type="qcurve" smooth="yes"/>
      <point x="235" y="386" type="line"/>
      <point x="135" y="386" type="line"/>
      <point x="144" y="439" type="line"/>
      <point x="245" y="439" type="line"/>
      <point x="258" y="508" type="line" smooth="yes"/>
      <point x="278" y="612"/>
      <point x="301" y="651" type="qcurve" smooth="yes"/>
      <point x="340" y="714"/>
      <point x="428" y="714" type="qcurve" smooth="yes"/>
      <point x="455" y="714"/>
      <point x="490" y="709" type="qcurve"/>
      <point x="478" y="657" type="line"/>
      <point x="446" y="661"/>
      <point x="432" y="661" type="qcurve" smooth="yes"/>
      <point x="376" y="660"/>
      <point x="350" y="609" type="qcurve" smooth="yes"/>
      <point x="339" y="585"/>
      <point x="322" y="506" type="qcurve" smooth="yes"/>
      <point x="308" y="439" type="line"/>
      <point x="421" y="439" type="line"/>
      <point x="412" y="386" type="line"/>
      <point x="299" y="386" type="line"/>
      <point x="238" y="63" type="line" smooth="yes"/>
      <point x="214" y="-65"/>
      <point x="194" y="-101" type="qcurve" smooth="yes"/>
      <point x="153" y="-175"/>
      <point x="52" y="-173" type="qcurve" smooth="yes"/>
      <point x="30" y="-173"/>
    </contour>
  </outline>
</glyph>
<glyph name="circumflex" format="2">
  <advance width="185"/>
  <unicode hex="02C6"/>
  <outline>
    <contour>
      <point x="127" y="729" type="line"/>
      <point x="241" y="588" type="line"/>
      <point x="176" y="588" type="line"/>
      <point x="90" y="690" type="line"/>
      <point x="2" y="588" type="line"/>
      <point x="-56" y="588" type="line"/>
      <point x="58" y="729" type="line"/>
    </contour>
  </outline>
</glyph>
<glyph name="caron" format="2">
  <advance width="185"/>
  <unicode hex="02C7"/>
  <outline>
    <contour>
      <point x="58" y="588" type="line"/>
      <point x="-56" y="729" type="line"/>
      <point x="9" y="729" type="line"/>
      <point x="95" y="627" type="line"/>
      <point x="183" y="729" type="line"/>
      <point x="241" y="729" type="line"/>
      <point x="127" y="588" type="line"/>
    </contour>
  </outline>
</glyph>
<glyph name="breve" format="2">
  <advance width="185"/>
  <unicode hex="02D8"/>
  <outline>
    <contour>
      <point x="-51" y="722" type="qcurve"/>
      <point x="-12" y="722" type="line"/>
      <point x="-10" y="684"/>
      <point x="22" y="661" type="qcurve" smooth="yes"/>
      <point x="51" y="640"/>
      <point x="91" y="640" type="qcurve" smooth="yes"/>
      <point x="131" y="640"/>
      <point x="192" y="684"/>
      <point x="197" y="722" type="qcurve"/>
      <point x="236" y="722" type="line"/>
      <point x="229" y="664"/>
      <point x="150" y="595"/>
      <point x="91" y="595" type="qcurve" smooth="yes"/>
      <point x="30" y="595"/>
      <point x="-47" y="662"/>
    </contour>
  </outline>
</glyph>
<glyph name="dotaccent" format="2">
  <advance width="185"/>
  <unicode hex="02D9"/>
  <outline>
    <contour>
      <point x="127" y="605" type="line"/>
      <point x="59" y="605" type="line"/>
      <point x="59" y="706" type="line"/>
      <point x="127" y="706" type="line"/>
    </contour>
  </outline>
</glyph>
<glyph name="ring" format="2">
  <advance width="185"/>
  <unicode hex="02DA"/>
  <outline>
    <contour>
      <point x="-14" y="677" type="qcurve" smooth="yes"/>
      <point x="-14" y="721"/>
      <point x="49" y="784"/>
      <point x="93" y="784" type="qcurve" smooth="yes"/>
      <point x="137" y="784"/>
      <point x="200" y="721"/>
      <point x="200" y="677" type="qcurve" smooth="yes"/>
      <point x="200" y="633"/>
      <point x="137" y="570"/>
      <point x="93" y="570" type="qcurve" smooth="yes"/>
      <point x="49" y="570"/>
      <point x="-14" y="633"/>
    </contour>
    <contour>
      <point x="25" y="677" type="qcurve" smooth="yes"/>
      <point x="25" y="649"/>
      <point x="65" y="609"/>
      <point x="93" y="609" type="qcurve" smooth="yes"/>
      <point x="122" y="609"/>
      <point x="161" y="649"/>
      <point x="161" y="677" type="qcurve" smooth="yes"/>
      <point x="161" y="706"/>
      <point x="122" y="745"/>
      <point x="93" y="745" type="qcurve" smooth="yes"/>
      <point x="65" y="745"/>
      <point x="25" y="706"/>
    </contour>
  </outline>
</glyph>
<glyph name="ogonek" format="2">
  <advance width="185"/>
  <unicode hex="02DB"/>
  <outline>
    <contour>
      <point x="151" y="2" type="qcurve"/>
      <point x="189" y="2" type="line"/>
      <point x="100" y="-69"/>
      <point x="100" y="-125" type="qcurve" smooth="yes"/>
      <point x="100" y="-172"/>
      <point x="144" y="-172" type="qcurve" smooth="yes"/>
      <point x="176" y="-172"/>
      <point x="199" y="-131" type="qcurve"/>
      <point x="228" y="-144" type="line"/>
      <point x="188" y="-211"/>
      <point x="133" y="-211" type="qcurve" smooth="yes"/>
      <point x="37" y="-211"/>
      <point x="37" y="-129" type="qcurve" smooth="yes"/>
      <point x="37" y="-66"/>
    </contour>
  </outline>
</glyph>
<glyph name="tilde" format="2">
  <advance width="185"/>
  <unicode hex="02DC"/>
  <outline>
    <contour>
      <point x="211" y="708" type="qcurve"/>
      <point x="211" y="708" type="line"/>
      <point x="249" y="708" type="line"/>
      <point x="243" y="669"/>
      <point x="222" y="643" type="qcurve" smooth="yes"/>
      <point x="198" y="613"/>
      <point x="162" y="613" type="qcurve" smooth="yes"/>
      <point x="132" y="613"/>
      <point x="40" y="659"/>
      <point x="27" y="659" type="qcurve" smooth="yes"/>
      <point x="-26" y="659"/>
      <point x="-26" y="608" type="qcurve"/>
      <point x="-65" y="608" type="line"/>
      <point x="-60" y="647"/>
      <point x="-13" y="704"/>
      <point x="24" y="704" type="qcurve" smooth="yes"/>
      <point x="54" y="704"/>
      <point x="143" y="660"/>
      <point x="159" y="660" type="qcurve" smooth="yes"/>
      <point x="196" y="660"/>
    </contour>
  </outline>
</glyph>
<glyph name="hungarumlaut" format="2">
  <advance width="185"/>
  <unicode hex="02DD"/>
  <outline>
    <contour>
      <point x="18" y="588" type="line"/>
      <point x="-33" y="588" type="line"/>
      <point x="68" y="729" type="line"/>
      <point x="144" y="729" type="line"/>
    </contour>
    <contour>
      <point x="174" y="588" type="line"/>
      <point x="123" y="588" type="line"/>
      <point x="224" y="729" type="line"/>
      <point x="300" y="729" type="line"/>
    </contour>
  </outline>
</glyph>
<glyph name="quoteleft" format="2">
  <advance width="278"/>
  <unicode hex="2018"/>
  <outline>
    <contour>
      <point x="179" y="471" type="line"/>
      <point x="95" y="471" type="line"/>
      <point x="95" y="578" type="line" smooth="yes"/>
      <point x="95" y="625"/>
      <point x="117" y="661" type="qcurve" smooth="yes"/>
      <point x="141" y="702"/>
      <point x="184" y="714" type="qcurve"/>
      <point x="184" y="671" type="line"/>
      <point x="160" y="663"/>
      <point x="147" y="632" type="qcurve" smooth="yes"/>
      <point x="135" y="605"/>
      <point x="137" y="577" type="qcurve"/>
      <point x="179" y="577" type="line"/>
    </contour>
  </outline>
</glyph>
<glyph name="quoteright" format="2">
  <advance width="278"/>
  <unicode hex="2019"/>
  <outline>
    <contour>
      <point x="99" y="714" type="line"/>
      <point x="183" y="714" type="line"/>
      <point x="183" y="607" type="line" smooth="yes"/>
      <point x="183" y="560"/>
      <point x="161" y="524" type="qcurve" smooth="yes"/>
      <point x="137" y="483"/>
      <point x="94" y="471" type="qcurve"/>
      <point x="94" y="514" type="line"/>
      <point x="118" y="522"/>
      <point x="131" y="553" type="qcurve" smooth="yes"/>
      <point x="143" y="580"/>
      <point x="141" y="608" type="qcurve"/>
      <point x="99" y="608" type="line"/>
    </contour>
  </outline>
</glyph>
<glyph name="quotesinglbase" format="2">
  <advance width="278"/>
  <unicode hex="201A"/>
  <outline>
    <contour>
      <point x="99" y="106" type="line"/>
      <point x="183" y="106" type="line"/>
      <point x="183" y="-1" type="line" smooth="yes"/>
      <point x="183" y="-48"/>
      <point x="161" y="-84" type="qcurve" smooth="yes"/>
      <point x="137" y="-125"/>
      <point x="94" y="-137" type="qcurve"/>
      <point x="94" y="-94" type="line"/>
      <point x="118" y="-86"/>
      <point x="131" y="-55" type="qcurve" smooth="yes"/>
      <point x="143" y="-28"/>
      <point x="141" y="0" type="qcurve"/>
      <point x="99" y="0" type="line"/>
    </contour>
  </outline>
</glyph>
<glyph name="quotedblleft" format="2">
  <advance width="370"/>
  <unicode hex="201C"/>
  <outline>
    <contour>
      <point x="302" y="471" type="line"/>
      <point x="218" y="471" type="line"/>
      <point x="218" y="578" type="line" smooth="yes"/>
      <point x="218" y="625"/>
      <point x="240" y="661" type="qcurve" smooth="yes"/>
      <point x="264" y="702"/>
      <point x="307" y="714" type="qcurve"/>
      <point x="307" y="671" type="line"/>
      <point x="283" y="663"/>
      <point x="270" y="632" type="qcurve" smooth="yes"/>
      <point x="258" y="605"/>
      <point x="260" y="577" type="qcurve"/>
      <point x="302" y="577" type="line"/>
    </contour>
    <contour>
      <point x="148" y="471" type="line"/>
      <point x="64" y="471" type="line"/>
      <point x="64" y="578" type="line" smooth="yes"/>
      <point x="64" y="625"/>
      <point x="86" y="661" type="qcurve" smooth="yes"/>
      <point x="110" y="702"/>
      <point x="153" y="714" type="qcurve"/>
      <point x="153" y="671" type="line"/>
      <point x="129" y="663"/>
      <point x="116" y="632" type="qcurve" smooth="yes"/>
      <point x="104" y="605"/>
      <point x="106" y="577" type="qcurve"/>
      <point x="148" y="577" type="line"/>
    </contour>
  </outline>
</glyph>
<glyph name="quotedblright" format="2">
  <advance width="370"/>
  <unicode hex="201D"/>
  <outline>
    <contour>
      <point x="222" y="714" type="line"/>
      <point x="306" y="714" type="line"/>
      <point x="306" y="607" type="line" smooth="yes"/>
      <point x="306" y="560"/>
      <point x="284" y="524" type="qcurve" smooth="yes"/>
      <point x="260" y="483"/>
      <point x="217" y="471" type="qcurve"/>
      <point x="217" y="514" type="line"/>
      <point x="241" y="522"/>
      <point x="254" y="553" type="qcurve" smooth="yes"/>
      <point x="266" y="580"/>
      <point x="264" y="608" type="qcurve"/>
      <point x="222" y="608" type="line"/>
    </contour>
    <contour>
      <point x="68" y="714" type="line"/>
      <point x="152" y="714" type="line"/>
      <point x="152" y="607" type="line" smooth="yes"/>
      <point x="152" y="560"/>
      <point x="130" y="524" type="qcurve" smooth="yes"/>
      <point x="106" y="483"/>
      <point x="63" y="471" type="qcurve"/>
      <point x="63" y="514" type="line"/>
      <point x="87" y="522"/>
      <point x="100" y="553" type="qcurve" smooth="yes"/>
      <point x="112" y="580"/>
      <point x="110" y="608" type="qcurve"/>
      <point x="68" y="608" type="line"/>
    </contour>
  </outline>
</glyph>
<glyph name="quotedblbase" format="2">
  <advance width="370"/>
  <unicode hex="201E"/>
  <outline>
    <contour>
      <point x="222" y="106" type="line"/>
      <point x="306" y="106" type="line"/>
      <point x="306" y="-1" type="line" smooth="yes"/>
      <point x="306" y="-48"/>
      <point x="284" y="-84" type="qcurve" smooth="yes"/>
      <point x="260" y="-125"/>
      <point x="217" y="-137" type="qcurve"/>
      <point x="217" y="-94" type="line"/>
      <point x="241" y="-86"/>
      <point x="254" y="-55" type="qcurve" smooth="yes"/>
      <point x="266" y="-28"/>
      <point x="264" y="0" type="qcurve"/>
      <point x="222" y="0" type="line"/>
    </contour>
    <contour>
      <point x="68" y="106" type="line"/>
      <point x="152" y="106" type="line"/>
      <point x="152" y="-1" type="line" smooth="yes"/>
      <point x="152" y="-48"/>
      <point x="130" y="-84" type="qcurve" smooth="yes"/>
      <point x="106" y="-125"/>
      <point x="63" y="-137" type="qcurve"/>
      <point x="63" y="-94" type="line"/>
      <point x="87" y="-86"/>
      <point x="100" y="-55" type="qcurve" smooth="yes"/>
      <point x="112" y="-28"/>
      <point x="110" y="0" type="qcurve"/>
      <point x="68" y="0" type="line"/>
    </contour>
  </outline>
</glyph>
<glyph name="dagger" format="2">
  <advance width="556"/>
  <unicode hex="2020"/>
  <outline>
    <contour>
      <point x="246" y="440" type="line"/>
      <point x="48" y="440" type="line"/>
      <point x="48" y="493" type="line"/>
      <point x="246" y="493" type="line"/>
      <point x="246" y="714" type="line"/>
      <point x="309" y="714" type="line"/>
      <point x="309" y="493" type="line"/>
      <point x="508" y="493" type="line"/>
      <point x="508" y="440" type="line"/>
      <point x="309" y="440" type="line"/>
      <point x="309" y="-151" type="line"/>
      <point x="246" y="-151" type="line"/>
    </contour>
  </outline>
</glyph>
<glyph name="daggerdbl" format="2">
  <advance width="556"/>
  <unicode hex="2021"/>
  <outline>
    <contour>
      <point x="246" y="47" type="line"/>
      <point x="48" y="47" type="line"/>
      <point x="48" y="100" type="line"/>
      <point x="246" y="100" type="line"/>
      <point x="246" y="463" type="line"/>
      <point x="48" y="463" type="line"/>
      <point x="48" y="516" type="line"/>
      <point x="246" y="516" type="line"/>
      <point x="246" y="714" type="line"/>
      <point x="309" y="714" type="line"/>
      <point x="309" y="516" type="line"/>
      <point x="508" y="516" type="line"/>
      <point x="508" y="463" type="line"/>
      <point x="309" y="463" type="line"/>
      <point x="309" y="100" type="line"/>
      <point x="508" y="100" type="line"/>
      <point x="508" y="47" type="line"/>
      <point x="309" y="47" type="line"/>
      <point x="309" y="-151" type="line"/>
      <point x="246" y="-151" type="line"/>
    </contour>
  </outline>
</glyph>
<glyph name="bullet" format="2">
  <advance width="500"/>
  <unicode hex="2022"/>
  <outline>
    <contour>
      <point x="72" y="357" type="qcurve" smooth="yes"/>
      <point x="72" y="431"/>
      <point x="176" y="535"/>
      <point x="250" y="535" type="qcurve" smooth="yes"/>
      <point x="324" y="535"/>
      <point x="429" y="431"/>
      <point x="429" y="357" type="qcurve" smooth="yes"/>
      <point x="429" y="283"/>
      <point x="324" y="178"/>
      <point x="250" y="178" type="qcurve" smooth="yes"/>
      <point x="176" y="178"/>
      <point x="72" y="283"/>
    </contour>
  </outline>
</glyph>
<glyph name="ellipsis" format="2">
  <advance width="1000"/>
  <unicode hex="2026"/>
  <outline>
    <contour>
      <point x="209" y="0" type="line"/>
      <point x="125" y="0" type="line"/>
      <point x="125" y="106" type="line"/>
      <point x="209" y="106" type="line"/>
    </contour>
    <contour>
      <point x="542" y="0" type="line"/>
      <point x="458" y="0" type="line"/>
      <point x="458" y="106" type="line"/>
      <point x="542" y="106" type="line"/>
    </contour>
    <contour>
      <point x="875" y="0" type="line"/>
      <point x="791" y="0" type="line"/>
      <point x="791" y="106" type="line"/>
      <point x="875" y="106" type="line"/>
    </contour>
  </outline>
</glyph>
<glyph name="perthousand" format="2">
  <advance width="1111"/>
  <unicode hex="2030"/>
  <outline>
    <contour>
      <point x="129" y="-34" type="line"/>
      <point x="582" y="725" type="line"/>
      <point x="629" y="725" type="line"/>
      <point x="177" y="-34" type="line"/>
    </contour>
    <contour>
      <point x="547" y="323" type="qcurve" smooth="yes"/>
      <point x="696" y="323"/>
      <point x="696" y="154" type="qcurve" smooth="yes"/>
      <point x="696" y="-15"/>
      <point x="547" y="-15" type="qcurve" smooth="yes"/>
      <point x="398" y="-15"/>
      <point x="398" y="154" type="qcurve" smooth="yes"/>
      <point x="398" y="323"/>
    </contour>
    <contour>
      <point x="547" y="278" type="qcurve" smooth="yes"/>
      <point x="451" y="278"/>
      <point x="451" y="154" type="qcurve" smooth="yes"/>
      <point x="451" y="30"/>
      <point x="547" y="30" type="qcurve" smooth="yes"/>
      <point x="643" y="30"/>
      <point x="643" y="154" type="qcurve" smooth="yes"/>
      <point x="643" y="278"/>
    </contour>
    <contour>
      <point x="901" y="323" type="qcurve" smooth="yes"/>
      <point x="1050" y="323"/>
      <point x="1050" y="154" type="qcurve" smooth="yes"/>
      <point x="1050" y="-15"/>
      <point x="901" y="-15" type="qcurve" smooth="yes"/>
      <point x="752" y="-15"/>
      <point x="752" y="154" type="qcurve" smooth="yes"/>
      <point x="752" y="323"/>
    </contour>
    <contour>
      <point x="901" y="278" type="qcurve" smooth="yes"/>
      <point x="805" y="278"/>
      <point x="805" y="154" type="qcurve" smooth="yes"/>
      <point x="805" y="30"/>
      <point x="901" y="30" type="qcurve" smooth="yes"/>
      <point x="997" y="30"/>
      <point x="997" y="154" type="qcurve" smooth="yes"/>
      <point x="997" y="278"/>
    </contour>
    <contour>
      <point x="214" y="706" type="qcurve" smooth="yes"/>
      <point x="363" y="706"/>
      <point x="363" y="537" type="qcurve" smooth="yes"/>
      <point x="363" y="368"/>
      <point x="214" y="368" type="qcurve" smooth="yes"/>
      <point x="65" y="368"/>
      <point x="65" y="537" type="qcurve" smooth="yes"/>
      <point x="65" y="706"/>
    </contour>
    <contour>
      <point x="214" y="661" type="qcurve" smooth="yes"/>
      <point x="118" y="661"/>
      <point x="118" y="537" type="qcurve" smooth="yes"/>
      <point x="118" y="413"/>
      <point x="214" y="413" type="qcurve" smooth="yes"/>
      <point x="310" y="413"/>
      <point x="310" y="537" type="qcurve" smooth="yes"/>
      <point x="310" y="661"/>
    </contour>
  </outline>
</glyph>
<glyph name="guilsinglleft" format="2">
  <advance width="259"/>
  <unicode hex="2039"/>
  <outline>
    <contour>
      <point x="186" y="119" type="line"/>
      <point x="53" y="244" type="line"/>
      <point x="53" y="306" type="line"/>
      <point x="186" y="431" type="line"/>
      <point x="186" y="364" type="line"/>
      <point x="92" y="275" type="line"/>
      <point x="186" y="186" type="line"/>
    </contour>
  </outline>
</glyph>
<glyph name="guilsinglright" format="2">
  <advance width="259"/>
  <unicode hex="203A"/>
  <outline>
    <contour>
      <point x="73" y="119" type="line"/>
      <point x="73" y="186" type="line"/>
      <point x="167" y="275" type="line"/>
      <point x="73" y="364" type="line"/>
      <point x="73" y="431" type="line"/>
      <point x="206" y="306" type="line"/>
      <point x="206" y="244" type="line"/>
    </contour>
  </outline>
</glyph>
<glyph name="fraction" format="2">
  <advance width="167"/>
  <unicode hex="2044"/>
  <outline>
    <contour>
      <point x="-166" y="-34" type="line"/>
      <point x="287" y="725" type="line"/>
      <point x="334" y="725" type="line"/>
      <point x="-118" y="-34" type="line"/>
    </contour>
  </outline>
</glyph>
<glyph name="trademark" format="2">
  <advance width="990"/>
  <unicode hex="2122"/>
  <outline>
    <contour>
      <point x="269" y="302" type="line"/>
      <point x="216" y="302" type="line"/>
      <point x="216" y="669" type="line"/>
      <point x="82" y="669" type="line"/>
      <point x="82" y="714" type="line"/>
      <point x="403" y="714" type="line"/>
      <point x="403" y="669" type="line"/>
      <point x="269" y="669" type="line"/>
    </contour>
    <contour>
      <point x="529" y="302" type="line"/>
      <point x="476" y="302" type="line"/>
      <point x="476" y="714" type="line"/>
      <point x="561" y="714" type="line"/>
      <point x="694" y="380" type="line"/>
      <point x="823" y="714" type="line"/>
      <point x="908" y="714" type="line"/>
      <point x="908" y="302" type="line"/>
      <point x="855" y="302" type="line"/>
      <point x="855" y="666" type="line"/>
      <point x="853" y="666" type="line"/>
      <point x="707" y="302" type="line"/>
      <point x="677" y="302" type="line"/>
      <point x="531" y="666" type="line"/>
      <point x="529" y="666" type="line"/>
    </contour>
  </outline>
</glyph>
<glyph name="fl" format="2">
  <advance width="444"/>
  <unicode hex="F002"/>
  <outline>
    <contour>
      <point x="94" y="0" type="line"/>
      <point x="94" y="463" type="line"/>
      <point x="6" y="463" type="line"/>
      <point x="6" y="516" type="line"/>
      <point x="94" y="516" type="line"/>
      <point x="94" y="563" type="line" smooth="yes"/>
      <point x="94" y="637"/>
      <point x="119" y="672" type="qcurve" smooth="yes"/>
      <point x="148" y="714"/>
      <point x="219" y="714" type="qcurve" smooth="yes"/>
      <point x="245" y="714"/>
      <point x="272" y="710" type="qcurve"/>
      <point x="272" y="656" type="line"/>
      <point x="244" y="661"/>
      <point x="226" y="661" type="qcurve" smooth="yes"/>
      <point x="179" y="661"/>
      <point x="165" y="632" type="qcurve" smooth="yes"/>
      <point x="157" y="615"/>
      <point x="157" y="561" type="qcurve" smooth="yes"/>
      <point x="157" y="516" type="line"/>
      <point x="259" y="516" type="line"/>
      <point x="259" y="463" type="line"/>
      <point x="157" y="463" type="line"/>
      <point x="157" y="0" type="line"/>
    </contour>
    <contour>
      <point x="320" y="0" type="line"/>
      <point x="320" y="714" type="line"/>
      <point x="383" y="714" type="line"/>
      <point x="383" y="0" type="line"/>
    </contour>
  </outline>
</glyph>
<glyph name=".notdef" format="2">
  <advance width="500"/>
  <outline>
    <contour>
      <point x="63" y="0" type="line"/>
      <point x="63" y="797" type="line"/>
      <point x="438" y="797" type="line"/>
      <point x="438" y="0" type="line"/>
    </contour>
    <contour>
      <point x="125" y="63" type="line"/>
      <point x="375" y="63" type="line"/>
      <point x="375" y="735" type="line"/>
      <point x="125" y="735" type="line"/>
    </contour>
  </outline>
</glyph>
